<?xml version="1.0" standalone="no"?>
<!DOCTYPE svg PUBLIC "-//W3C//DTD SVG 20010904//EN"
 "http://www.w3.org/TR/2001/REC-SVG-20010904/DTD/svg10.dtd">
<svg version="1.0" xmlns="http://www.w3.org/2000/svg"
 width="675.000000pt" height="602.000000pt" viewBox="0 0 675.000000 602.000000"
 preserveAspectRatio="xMidYMid meet">

<g transform="translate(0.000000,602.000000) scale(0.100000,-0.100000)"
fill="#000000" stroke="none">
<path d="M3335 5890 c-8 -13 5 -13 25 0 13 8 13 10 -2 10 -9 0 -20 -4 -23 -10z"/>
<path d="M3446 5750 c5 -5 25 -13 44 -16 32 -7 34 -6 21 9 -7 9 -27 17 -44 17
-20 0 -28 -3 -21 -10z"/>
<path d="M3580 5752 c0 -24 96 -106 112 -96 6 4 6 -2 -1 -13 -7 -14 -7 -23 1
-31 25 -25 -3 -10 -34 18 -18 17 -38 30 -44 30 -6 0 -25 7 -43 16 -21 11 -36
13 -42 7 -7 -7 3 -16 28 -26 22 -8 45 -22 52 -31 8 -9 22 -16 32 -16 10 0 23
-9 29 -20 6 -11 16 -20 22 -20 6 0 37 -12 69 -27 50 -24 59 -32 59 -55 0 -16
-2 -28 -5 -28 -3 0 -24 14 -48 31 -26 19 -50 29 -64 26 -12 -2 -35 4 -50 14
-15 11 -33 19 -40 19 -7 0 -59 23 -117 50 -58 28 -116 50 -129 50 -13 0 -35 9
-48 21 -21 19 -24 19 -29 3 -6 -16 -8 -16 -28 4 -19 19 -36 22 -134 27 -102 4
-110 4 -88 -9 14 -8 57 -22 95 -32 62 -15 125 -43 100 -44 -6 -1 4 -7 20 -14
29 -12 28 -13 -28 -13 -32 0 -63 -5 -70 -12 -6 -6 -19 -11 -29 -11 -23 0 -23
-17 0 -22 9 -3 -24 -3 -75 -1 -51 1 -104 -2 -119 -7 -19 -8 -31 -7 -38 0 -7 7
-2 10 15 10 13 0 33 8 44 16 19 15 16 15 -34 9 -38 -5 -52 -4 -47 4 4 6 1 11
-8 11 -8 0 -21 3 -30 6 -9 3 -16 1 -16 -5 0 -6 9 -11 20 -11 11 0 20 -4 20
-10 0 -14 -18 -13 -81 7 -59 18 -272 20 -319 4 -14 -5 -38 -12 -54 -16 -27 -6
-27 -7 -10 -20 11 -8 17 -15 14 -16 -10 -3 -76 -8 -153 -12 -43 -3 -81 -8 -85
-11 -11 -11 20 -26 55 -26 17 0 35 -4 38 -10 4 -6 -8 -10 -28 -10 -19 0 -48
-7 -63 -15 -16 -8 -39 -15 -50 -15 -12 0 -53 -28 -94 -65 -40 -36 -78 -65 -85
-65 -7 0 -24 -15 -39 -34 -14 -19 -41 -44 -60 -55 -19 -12 -37 -32 -40 -44 -3
-13 -21 -43 -39 -68 -19 -24 -37 -58 -41 -75 -4 -17 -27 -63 -51 -103 -25 -39
-45 -76 -45 -82 0 -6 -6 -23 -14 -37 -40 -76 -47 -114 -56 -346 -5 -127 -13
-263 -16 -303 -4 -46 -2 -83 5 -105 7 -18 16 -85 21 -148 5 -63 15 -134 24
-157 8 -23 19 -73 25 -110 5 -37 18 -85 29 -107 18 -37 19 -38 27 -15 8 26 11
35 15 47 2 4 4 18 5 32 8 91 16 175 23 240 5 41 6 102 3 135 -9 90 -2 442 9
505 12 62 29 89 30 44 0 -128 2 -160 12 -171 6 -8 7 -23 2 -40 -4 -16 -9 -57
-11 -93 -1 -36 -5 -107 -7 -157 -3 -59 -2 -93 5 -93 6 0 6 -7 1 -17 -4 -10 -7
-36 -6 -58 0 -22 -4 -48 -10 -58 -8 -13 -8 -20 3 -26 8 -5 15 -20 16 -33 1
-13 9 -24 20 -26 10 -2 15 0 11 7 -4 6 8 13 29 17 19 3 36 10 36 15 1 5 3 14
4 19 1 6 3 15 4 20 0 6 8 10 16 10 9 0 30 7 48 17 49 25 172 53 264 59 88 6
136 -1 112 -17 -8 -5 -22 -6 -31 -3 -10 3 -28 -2 -40 -10 -25 -18 -42 -21 -33
-6 3 6 2 10 -4 10 -5 0 -13 -5 -16 -10 -4 -6 -16 -10 -26 -8 -14 2 -26 -7 -37
-27 -9 -16 -20 -31 -24 -33 -4 -2 -5 -9 -2 -17 3 -7 -1 -13 -8 -12 -43 1 -50
-3 -46 -28 4 -17 1 -25 -8 -25 -8 0 -14 -7 -14 -16 0 -8 -4 -13 -9 -9 -6 3
-15 -4 -21 -15 -6 -11 -18 -20 -26 -20 -8 0 -12 -4 -9 -10 3 -5 0 -10 -8 -10
-8 0 -18 -7 -21 -16 -9 -22 -8 -23 17 -18 22 5 22 4 1 -5 -12 -5 -25 -14 -29
-20 -3 -6 -14 -11 -23 -11 -13 0 -13 2 4 15 18 14 18 14 -3 8 -13 -3 -23 -9
-23 -14 0 -5 -5 -8 -11 -7 -6 2 -16 -6 -22 -17 -7 -11 -13 -22 -15 -25 -2 -2
-6 1 -10 7 -5 8 -12 9 -22 2 -13 -8 -13 -10 0 -19 13 -8 12 -10 -5 -11 -12 0
-15 -3 -7 -6 10 -4 8 -8 -5 -18 -16 -12 -16 -14 -2 -20 19 -7 14 -44 -11 -90
-10 -18 -14 -38 -10 -50 8 -24 6 -67 -3 -82 -7 -10 0 -115 9 -142 2 -7 -1 -20
-7 -27 -6 -8 -9 -21 -5 -29 3 -8 1 -15 -5 -15 -6 0 -8 -4 -5 -9 4 -5 0 -12 -6
-15 -7 -3 5 -4 27 -1 36 5 38 4 22 -9 -14 -10 -15 -15 -5 -19 7 -3 2 -6 -11
-6 -24 -1 -24 -2 8 -25 l33 -24 -22 -22 c-12 -12 -20 -23 -18 -25 5 -5 75 19
84 28 10 9 34 9 33 0 -3 -20 4 -21 44 -3 54 25 66 25 60 0 -3 -11 -9 -20 -14
-20 -12 0 -81 -62 -75 -67 2 -3 15 1 27 8 13 7 36 14 51 15 22 3 26 0 21 -13
-4 -10 -2 -14 5 -9 6 3 13 2 17 -4 3 -5 1 -10 -4 -10 -6 0 -11 -5 -11 -11 0
-6 9 -8 21 -4 15 5 19 4 15 -4 -4 -6 -2 -11 3 -11 6 0 11 5 11 10 0 6 4 10 9
10 23 0 -5 -39 -37 -53 -79 -33 -142 -28 -102 8 11 10 20 23 20 29 -1 6 -14
-5 -30 -24 -25 -28 -27 -36 -15 -43 8 -4 15 -13 15 -18 0 -6 -5 -7 -12 -3 -7
5 -9 2 -5 -9 3 -9 0 -18 -9 -21 -8 -3 -14 -11 -14 -18 0 -6 -10 -22 -22 -35
-14 -15 -21 -34 -20 -58 1 -19 -2 -45 -7 -57 -11 -32 50 -254 138 -503 36
-100 58 -215 41 -215 -12 0 -50 -86 -55 -127 -6 -53 -43 -135 -58 -130 -11 3
-57 -83 -57 -108 0 -7 -9 -23 -20 -36 l-19 -24 -1 44 c0 28 14 79 40 144 22
55 39 102 37 103 -6 6 -55 -68 -80 -121 -13 -27 -29 -77 -36 -110 -7 -33 -19
-70 -27 -82 -12 -19 -10 -25 16 -62 18 -24 38 -41 50 -41 11 0 20 -4 20 -10 0
-5 -6 -10 -13 -10 -14 0 -55 -39 -56 -53 0 -4 -12 -20 -26 -35 l-25 -27 -6 22
c-4 13 -10 23 -15 23 -5 0 -12 15 -17 33 -10 38 -38 41 -65 5 -108 -140 -115
-153 -137 -271 -10 -56 -17 -70 -35 -77 -13 -5 -26 -14 -30 -20 -3 -5 -11 -8
-16 -5 -13 9 -11 45 3 45 6 0 8 3 5 7 -4 3 -28 -15 -53 -40 -25 -26 -50 -47
-54 -47 -5 0 -6 17 -3 37 l6 38 -42 -40 c-48 -46 -66 -74 -152 -243 -61 -119
-69 -153 -30 -118 19 17 41 15 41 -5 0 -5 -16 -26 -35 -48 -19 -21 -35 -46
-35 -55 0 -9 -11 -43 -25 -76 -15 -36 -28 -90 -32 -135 l-6 -75 2892 0 2891 0
0 183 c0 100 1 318 2 485 1 166 -1 304 -4 307 -5 6 -44 -31 -68 -64 -26 -35
-65 -34 -115 5 -25 19 -51 34 -58 34 -7 0 -23 9 -35 21 -12 11 -26 17 -31 14
-5 -3 -20 9 -32 27 -13 18 -26 35 -29 38 -35 31 -28 140 10 140 21 0 34 32 31
77 -3 42 21 44 45 5 9 -16 32 -37 52 -48 40 -22 122 -116 153 -175 19 -37 62
-70 75 -56 14 13 7 77 -10 96 -17 18 -17 19 0 23 15 3 17 13 15 78 -1 41 -7
78 -13 81 -7 4 -7 13 1 27 6 11 11 39 11 61 0 33 -3 41 -19 41 -10 0 -24 -7
-31 -15 -7 -8 -21 -15 -32 -15 -10 0 -21 -7 -24 -15 -9 -21 -24 -19 -24 4 0
10 -11 39 -25 62 -28 50 -30 59 -12 59 9 0 14 14 14 45 0 44 -1 45 -20 28 -20
-18 -89 -90 -137 -143 -20 -22 -31 -27 -57 -23 -22 4 -30 9 -26 19 3 9 -1 14
-13 12 -45 -4 -74 3 -74 16 0 23 -19 29 -36 12 -11 -12 -20 -13 -34 -6 -23 12
-48 92 -31 98 20 7 11 25 -29 59 -22 19 -38 39 -34 44 3 5 -1 9 -8 9 -9 0 -10
2 -1 8 6 4 14 19 18 33 10 39 -23 50 -145 50 -244 -1 -244 -1 -265 19 -11 10
-29 20 -40 22 -11 2 53 3 142 3 89 0 165 4 170 8 4 5 -5 19 -21 32 l-29 23 29
6 c16 3 57 11 92 17 37 7 61 16 59 23 -2 6 -23 21 -48 33 -53 27 -128 31 -252
13 -67 -10 -90 -11 -99 -2 -9 9 -8 12 5 12 22 0 94 47 101 66 3 9 20 14 46 14
47 0 46 11 -4 41 -35 21 -25 25 23 8 35 -12 191 6 191 22 0 5 -10 8 -21 6 -12
-1 -24 3 -26 9 -4 12 15 20 181 78 48 17 88 36 88 41 0 6 -11 19 -25 29 -25
18 -33 19 -142 7 -158 -17 -233 -33 -228 -48 3 -7 -7 -18 -21 -25 -23 -10 -29
-8 -51 12 -22 21 -37 25 -118 28 -93 3 -132 -7 -111 -28 17 -17 113 -40 166
-40 51 0 72 -14 35 -24 -43 -11 -85 -6 -140 18 l-55 25 7 -27 c4 -15 16 -29
27 -30 37 -7 40 -23 4 -20 -28 2 -34 0 -32 -13 2 -12 -5 -16 -27 -15 -16 1
-27 3 -25 5 2 2 -10 17 -26 33 -17 15 -30 34 -30 41 0 7 -7 22 -15 34 -10 15
-15 44 -14 96 1 52 -5 93 -19 133 -12 33 -28 88 -37 124 -9 36 -24 83 -34 105
-19 42 -59 157 -66 189 -3 11 -9 24 -15 30 -5 5 -10 17 -10 25 0 8 -8 23 -17
33 -13 15 -14 21 -5 27 10 6 9 11 -4 22 -9 7 -36 43 -60 78 l-43 64 -5 -34
c-3 -19 -8 -86 -10 -149 -9 -185 -21 -293 -38 -326 -9 -16 -62 -70 -117 -119
-117 -104 -115 -98 -156 -415 -19 -139 -35 -190 -62 -190 -14 0 -15 -2 -5 -9
11 -7 11 -9 -2 -14 -9 -4 -16 -14 -16 -23 0 -24 -42 -96 -67 -117 -13 -10 -23
-26 -23 -35 0 -10 -10 -23 -21 -31 -19 -11 -21 -11 -16 4 4 9 3 14 -3 10 -6
-3 -10 -12 -10 -20 0 -7 -9 -16 -20 -20 -22 -7 -80 -62 -73 -69 3 -2 -4 -11
-16 -18 -12 -7 -21 -18 -21 -25 0 -15 -16 -17 -25 -3 -3 6 -1 10 6 10 7 0 10
3 6 6 -3 3 -16 -1 -29 -10 -12 -9 -17 -16 -9 -16 7 0 11 -6 8 -12 -2 -7 -10
-12 -16 -10 -7 1 -22 -5 -34 -14 l-22 -16 23 7 c22 6 23 5 13 -14 -7 -12 -22
-21 -34 -21 -15 0 -18 -3 -9 -9 16 -10 -1 -27 -33 -33 -11 -2 -24 -12 -30 -23
-6 -12 -17 -19 -29 -17 -11 3 -16 0 -12 -7 4 -6 3 -11 -3 -11 -6 0 -25 -16
-42 -35 -18 -19 -37 -35 -44 -35 -6 0 -30 -18 -54 -40 -23 -22 -51 -40 -61
-40 -11 0 -41 -23 -67 -51 -27 -29 -59 -53 -75 -56 -16 -3 -33 -14 -39 -25 -7
-13 -16 -17 -30 -13 -21 7 -25 -5 -7 -23 9 -9 8 -12 -5 -12 -9 0 -17 4 -17 10
0 5 -11 -2 -25 -16 -14 -14 -30 -22 -37 -18 -6 4 -8 3 -4 -4 7 -11 -46 -72
-63 -72 -5 0 -11 -5 -13 -11 -2 -5 -21 -12 -42 -14 -33 -3 -37 -1 -33 16 4 16
0 18 -26 16 -26 -2 -31 1 -29 16 3 15 -1 17 -20 12 -13 -4 -26 -12 -29 -17 -4
-6 -16 -7 -28 -3 -15 5 -21 2 -21 -10 0 -23 -27 -30 -45 -11 -12 12 -27 14
-55 10 -34 -6 -43 -3 -68 22 -26 26 -32 28 -62 20 -25 -7 -35 -7 -38 2 -2 7
-8 10 -13 6 -14 -8 -11 9 6 33 14 20 14 21 -10 18 -14 -1 -25 2 -25 6 0 5 8 9
18 10 9 1 -1 5 -22 10 -46 11 -59 -1 -45 -39 8 -22 8 -23 -5 -13 -8 7 -20 10
-25 7 -5 -4 -12 -2 -16 4 -10 17 -25 11 -18 -8 7 -16 6 -16 -11 1 -9 9 -25 17
-34 17 -14 0 -14 2 -3 9 10 7 0 11 -33 16 -34 5 -50 4 -56 -5 -4 -6 -22 -10
-41 -8 -22 2 -33 -1 -32 -8 3 -16 -39 -6 -54 13 -7 9 -19 12 -32 8 -15 -5 -21
-2 -21 9 0 9 -4 16 -10 16 -14 0 -13 -13 2 -28 6 -6 8 -15 4 -19 -4 -5 -14 1
-22 11 -8 11 -14 14 -14 8 0 -7 -4 -12 -9 -12 -5 0 -7 10 -3 22 3 14 2 19 -6
14 -13 -8 -12 28 1 40 9 9 -12 34 -28 34 -7 0 -18 7 -25 15 -9 11 -16 13 -24
5 -23 -23 -28 -8 -5 18 13 15 18 22 11 16 -8 -7 -22 -9 -33 -7 -19 5 -18 6 2
24 22 19 17 24 -23 20 -10 -1 -18 3 -18 9 0 6 5 8 10 5 5 -3 15 -3 21 1 6 3
-2 14 -20 25 -17 10 -31 24 -31 29 0 6 4 8 10 5 5 -3 18 -1 27 4 10 6 14 11 9
11 -5 0 -3 7 4 15 10 12 15 13 20 4 4 -6 13 -8 19 -5 8 5 7 11 -3 22 -17 16
-36 19 -36 4 0 -5 -4 -10 -8 -10 -5 0 -9 7 -9 15 0 8 5 15 11 15 7 0 19 9 29
20 20 24 42 27 33 4 -4 -11 -1 -14 13 -9 12 3 21 0 25 -10 3 -8 14 -15 25 -15
28 0 52 -11 45 -21 -3 -5 4 -9 15 -9 13 0 21 -8 23 -22 2 -19 10 -24 42 -26
31 -3 36 -6 25 -14 -11 -7 -9 -8 6 -3 11 4 29 7 40 7 11 -1 23 4 27 11 5 8 8
6 8 -5 0 -20 15 -24 25 -8 3 6 11 10 16 10 6 0 7 -4 4 -10 -3 -5 -2 -10 4 -10
6 0 7 -8 4 -17 -4 -11 -8 -12 -11 -5 -2 7 -11 12 -20 12 -8 0 -12 -3 -9 -7 4
-3 2 -12 -4 -20 -9 -10 -6 -13 17 -14 37 -2 93 0 119 5 11 2 31 4 45 5 23 2
24 3 5 11 -12 4 -27 15 -34 24 -9 10 -21 14 -34 10 -12 -4 -17 -2 -13 4 3 6
46 9 103 7 63 -2 100 1 105 8 3 6 22 11 41 11 19 1 33 4 31 8 -2 4 0 9 6 13 6
4 8 11 5 16 -4 5 5 9 19 9 14 0 26 5 26 10 0 6 -4 10 -9 10 -11 0 -9 19 3 38
4 7 3 19 -3 26 -8 10 -6 18 9 31 11 10 20 22 20 27 0 13 -48 10 -52 -4 -3 -8
-9 -6 -19 4 -11 13 -30 15 -89 12 l-75 -5 60 24 c33 13 59 28 58 35 -2 7 1 12
5 12 5 0 9 7 9 15 0 8 -7 15 -15 15 -11 0 -12 3 -3 14 11 13 5 46 -8 46 -4 0
-12 -5 -19 -12 -9 -9 -13 -7 -18 5 -9 23 4 41 21 27 17 -14 40 -4 53 25 8 17
22 26 49 30 39 7 103 35 103 46 0 3 11 11 24 17 19 9 27 8 37 -4 7 -8 15 -11
18 -6 3 5 23 19 44 31 l37 21 -6 -24 c-5 -21 -3 -24 15 -19 11 3 18 10 15 15
-3 5 0 8 7 6 8 -1 27 10 43 25 16 14 32 24 36 22 5 -3 10 1 12 7 5 15 95 15
110 0 6 -6 22 -7 39 -2 26 8 28 7 19 -10 -7 -13 -6 -19 6 -24 11 -4 14 -18 13
-49 -2 -24 1 -50 6 -57 5 -8 9 -26 9 -40 0 -14 7 -28 15 -32 14 -6 13 -7 -1
-7 -18 -1 -25 -26 -10 -34 12 -8 62 41 62 60 0 10 7 28 15 39 8 12 12 24 9 27
-3 3 1 16 10 29 9 12 16 30 16 40 0 10 5 18 10 18 6 0 10 12 10 28 0 15 8 41
19 57 18 31 36 114 32 148 -1 9 2 17 6 17 5 0 10 11 11 25 1 16 -3 25 -13 25
-7 0 -17 5 -21 11 -4 8 1 9 16 4 15 -5 20 -4 16 4 -4 6 -15 11 -24 12 -10 0
-12 3 -5 6 10 3 10 10 2 25 -8 16 -8 23 2 29 11 7 10 13 -7 27 -13 9 -20 26
-18 37 1 11 -5 29 -15 40 -10 11 -17 28 -16 38 2 9 -3 17 -11 17 -19 0 -30 30
-15 40 8 4 0 10 -21 15 -18 4 -36 7 -40 6 -5 0 -8 4 -8 9 0 6 -11 16 -25 22
-15 7 -24 17 -21 25 3 7 2 12 -2 11 -4 -1 -22 1 -39 5 -33 6 -38 17 -36 75 1
6 -5 12 -12 12 -9 0 -12 -9 -9 -25 4 -21 1 -24 -18 -22 -12 2 -25 12 -29 23
-4 10 -8 13 -8 5 -1 -9 -5 -10 -13 -4 -7 6 -30 13 -50 17 -21 4 -38 11 -38 16
0 6 -7 10 -15 10 -8 0 -23 4 -33 9 -28 14 -85 33 -114 38 -16 3 -28 10 -28 15
0 13 -41 47 -57 48 -7 0 -10 7 -7 15 4 10 0 15 -11 15 -9 0 -14 -4 -11 -9 8
-12 -18 -21 -59 -21 -18 0 -35 -5 -37 -12 -5 -14 13 -69 28 -89 5 -8 25 -44
43 -81 27 -53 32 -74 27 -102 -8 -41 -51 -80 -80 -72 -51 13 -178 -35 -219
-84 -18 -21 -18 -22 1 -16 14 5 21 1 25 -13 6 -23 -26 -61 -51 -61 -9 0 -26
-7 -36 -15 -25 -19 -36 -19 -36 0 0 8 -4 15 -10 15 -5 0 -10 7 -10 15 0 8 -5
15 -11 15 -7 0 -8 7 -4 18 4 9 9 36 11 59 4 41 3 43 -23 43 -19 0 -24 3 -15 9
10 6 4 13 -22 25 -20 9 -36 21 -36 27 0 5 -15 3 -34 -5 -32 -13 -37 -13 -57 5
-28 25 -50 24 -56 -1 -3 -13 -14 -20 -29 -20 -12 0 -26 -5 -29 -10 -4 -6 -15
-8 -25 -5 -13 4 -24 -2 -36 -20 -46 -70 -46 12 1 120 38 90 57 205 33 205 -7
0 -20 5 -28 10 -13 8 -12 11 5 24 11 9 28 16 38 16 10 0 16 4 13 8 -3 5 4 15
15 22 10 8 19 20 19 26 0 7 5 14 11 16 7 2 13 17 15 33 1 17 5 41 8 54 3 14 1
30 -5 38 -9 10 -8 13 5 13 15 0 15 2 1 24 -11 17 -13 26 -5 31 6 4 10 17 9 28
-1 12 1 29 4 37 7 15 15 89 16 148 1 22 6 32 17 32 8 0 12 5 9 10 -3 6 4 10
17 11 15 0 18 3 8 6 -10 4 -4 10 20 19 19 7 27 13 17 13 -17 1 -17 2 0 28 10
15 17 28 16 30 -2 2 5 11 15 21 12 12 29 16 56 14 30 -3 36 -6 25 -14 -10 -7
-7 -8 13 -4 29 7 49 -10 21 -17 -10 -3 3 -5 28 -6 l47 -1 -8 -33 c-5 -23 -3
-37 7 -45 16 -16 17 -32 2 -32 -8 0 -8 -4 -1 -12 5 -7 16 -39 23 -71 7 -32 16
-60 21 -63 5 -3 28 -6 52 -6 42 0 63 -10 107 -50 11 -10 28 -18 38 -18 10 0
21 -7 25 -15 3 -9 18 -15 36 -15 16 0 30 -4 30 -10 0 -5 12 -10 26 -10 14 0
23 -4 19 -10 -4 -6 7 -10 25 -10 28 0 30 -2 20 -20 -14 -26 9 -27 46 -4 22 15
24 15 18 0 -7 -18 12 -21 36 -6 12 8 12 10 1 10 -8 0 -11 3 -8 7 4 4 21 -3 37
-15 34 -26 46 -27 84 -7 15 8 32 13 36 10 5 -3 12 0 16 6 4 8 3 9 -4 5 -7 -4
-12 -3 -12 3 0 5 18 12 40 16 22 4 38 11 34 16 -3 5 2 9 10 9 9 0 25 9 36 20
30 30 69 43 86 29 9 -8 14 -8 14 -1 0 6 19 15 43 21 38 9 33 10 -48 9 -129 -1
-136 1 -90 17 45 17 246 24 285 11 14 -5 22 -5 18 -1 -27 29 -197 34 -286 8
-30 -8 -65 -12 -80 -8 -26 6 -24 8 28 31 55 24 55 24 15 18 -78 -10 -166 26
-98 40 16 4 53 21 83 38 51 30 53 32 30 38 l-25 6 27 6 c15 3 30 3 33 0 3 -3
26 -6 53 -7 26 -1 74 -11 107 -22 34 -11 81 -23 105 -27 l45 -6 -47 16 c-27 9
-48 21 -48 25 0 5 26 9 58 9 31 0 67 3 80 6 25 7 30 24 6 24 -10 0 -14 6 -11
14 7 17 -49 49 -101 59 -42 8 -120 54 -132 77 -14 26 26 39 44 14 10 -13 15
-14 21 -4 6 10 9 10 15 0 12 -19 78 -40 83 -26 3 8 11 7 31 -2 15 -6 37 -12
49 -11 18 0 16 3 -11 15 -18 8 -31 18 -28 23 3 4 -6 13 -19 19 -14 7 -25 16
-25 22 0 5 -10 11 -22 11 -17 1 -19 2 -5 6 9 2 17 11 17 20 0 9 -6 13 -15 9
-8 -3 -36 6 -62 20 -46 25 -47 25 -14 20 19 -4 42 -13 52 -22 14 -13 17 -13
22 0 4 9 -3 16 -20 21 -16 4 -23 11 -19 20 3 9 -1 15 -9 15 -8 0 -15 5 -15 10
0 6 -6 10 -14 10 -8 0 -24 9 -37 21 l-24 20 25 -6 c14 -3 7 3 -17 16 -25 12
-47 33 -55 49 -7 16 -20 31 -30 33 -10 3 -18 12 -18 21 0 11 -12 19 -32 23
-32 7 -32 7 -8 14 20 6 16 7 -20 9 -25 1 -56 4 -70 7 -29 6 -81 7 -193 3 -71
-3 -78 -5 -74 -22 7 -24 -5 -23 -29 3 -10 12 -26 18 -37 15 -10 -2 -20 1 -23
8 -3 8 -19 12 -42 10 -25 -2 -32 0 -22 7 12 7 11 10 -7 15 -25 7 -30 19 -10
28 6 2 3 4 -8 4 -44 -2 -56 2 -53 20 2 9 8 20 13 24 6 4 0 8 -13 8 -16 0 -22
-5 -20 -16 2 -10 -3 -19 -11 -22 -8 -2 -11 0 -7 6 9 15 -21 23 -50 11 -30 -11
-46 -3 -24 11 12 8 12 10 -4 10 -12 0 -16 5 -12 15 3 9 0 15 -8 15 -20 0 -25
-22 -9 -38 19 -19 6 -34 -17 -20 -10 7 -17 15 -14 19 2 4 0 10 -6 14 -5 3 -10
1 -10 -4 0 -6 -9 -11 -21 -11 -11 0 -17 5 -14 10 3 6 -1 10 -10 10 -12 0 -15
7 -11 30 3 23 0 30 -12 30 -14 0 -9 15 6 15 4 0 39 10 77 22 39 12 97 29 130
38 33 9 84 23 114 32 30 8 113 25 185 37 107 18 125 24 97 29 -18 4 -37 4 -43
1 -5 -3 -15 2 -22 12 -10 13 -22 16 -49 11 -25 -4 -39 -1 -48 9 -13 16 -29 19
-29 4 0 -5 7 -10 16 -10 8 0 12 -4 9 -10 -3 -5 0 -11 7 -11 18 -2 19 -2 51 6
17 5 27 3 27 -4 0 -6 -13 -11 -29 -11 -16 0 -31 -6 -34 -12 -3 -10 -9 -10 -26
0 -25 14 -34 15 -27 3 7 -10 -52 -26 -61 -17 -4 3 3 6 15 6 25 0 37 16 17 23
-13 6 -25 5 -65 -5 -8 -1 -14 3 -13 10 2 6 -3 12 -9 12 -7 0 -3 7 9 15 21 15
21 17 5 35 -9 11 -22 20 -30 20 -7 0 -10 5 -7 11 4 6 19 7 36 4 22 -5 29 -3
29 9 0 10 8 16 23 15 12 0 16 -3 10 -6 -19 -7 -16 -20 7 -26 11 -3 18 -2 15 3
-3 4 4 10 15 13 11 3 23 1 26 -4 3 -5 10 -7 15 -3 19 11 70 15 82 6 7 -5 23
-6 37 -2 20 5 13 8 -33 14 -50 7 -56 10 -46 23 11 13 9 14 -17 12 -16 -1 -40
-1 -54 0 -19 1 -22 3 -10 10 8 6 18 7 24 4 5 -3 6 -1 2 5 -4 7 -16 12 -27 12
-10 0 -19 5 -19 11 0 6 7 9 15 5 9 -3 15 0 15 9 0 8 -6 15 -14 15 -8 0 -16 7
-20 15 -3 10 1 15 14 15 10 0 22 5 26 12 4 6 3 8 -3 5 -6 -4 -13 0 -17 8 -3 8
-15 15 -26 15 -11 0 -20 5 -20 10 0 6 7 10 16 10 8 0 12 5 9 10 -3 6 3 10 14
10 30 0 26 16 -8 30 -21 8 -27 17 -24 30 3 12 -3 22 -17 30 -17 9 -19 14 -9
26 9 11 9 14 0 14 -7 0 -9 5 -6 11 5 7 15 5 31 -5 19 -13 22 -13 18 -2 -8 20
-32 28 -54 16 -28 -15 -40 -12 -40 10 0 11 -4 20 -9 20 -19 0 -30 57 -16 84 8
14 12 35 10 46 -3 15 1 19 18 17 13 -1 21 3 20 11 -2 6 2 12 9 12 6 0 9 3 5 6
-3 4 1 13 9 21 8 9 13 22 9 31 -4 12 -3 13 9 3 18 -15 52 -6 60 14 3 8 12 15
20 15 7 0 28 13 46 30 18 16 36 28 40 25 4 -3 10 1 13 9 4 9 17 13 34 11 37
-4 53 4 53 26 0 10 4 19 9 19 5 0 7 9 4 19 -3 13 2 23 17 31 13 7 20 7 16 2
-3 -6 0 -12 6 -15 10 -3 10 -9 0 -27 -11 -18 -11 -21 -1 -18 7 2 17 18 21 34
6 23 13 30 30 30 14 -1 22 4 20 12 -1 8 3 12 10 9 7 -2 12 -11 10 -19 -2 -13
9 -16 54 -15 46 1 60 -3 74 -20 16 -20 92 -52 128 -54 10 0 12 -3 4 -6 -17 -7
-5 -23 19 -23 10 0 19 -5 19 -11 0 -6 20 -30 44 -53 34 -32 50 -58 70 -117 14
-41 25 -93 25 -115 -1 -21 4 -51 10 -66 6 -16 7 -28 2 -28 -11 0 -4 -35 12
-69 10 -19 9 -25 -1 -29 -10 -3 -10 -7 -1 -18 6 -7 9 -20 6 -28 -3 -8 1 -17
10 -20 11 -5 12 -10 4 -19 -8 -10 -6 -19 5 -35 8 -12 12 -22 9 -22 -4 0 1 -7
9 -16 20 -20 20 -34 1 -34 -8 0 -15 -4 -15 -10 0 -5 5 -10 10 -10 6 0 4 -11
-5 -23 -14 -22 -14 -26 6 -50 12 -16 16 -27 9 -27 -10 0 -9 -4 0 -15 10 -12
10 -15 0 -15 -10 0 -10 -3 0 -15 7 -8 9 -15 4 -15 -5 0 2 -7 14 -16 12 -8 20
-20 16 -25 -3 -5 0 -16 6 -24 10 -12 10 -15 0 -15 -9 0 -8 -5 3 -18 10 -10 17
-26 17 -35 0 -9 5 -19 10 -22 6 -4 8 -11 5 -16 -4 -5 2 -9 12 -9 14 0 15 -2 5
-9 -11 -7 -10 -9 3 -15 9 -3 13 -10 10 -16 -3 -5 -2 -10 4 -10 6 0 8 -7 4 -17
-5 -13 -2 -15 15 -11 14 4 20 2 16 -4 -4 -6 7 -22 23 -37 17 -14 38 -38 48
-53 14 -22 22 -26 46 -21 23 4 29 2 29 -11 0 -9 7 -19 16 -23 11 -4 13 -13 9
-34 -6 -25 -4 -28 11 -22 14 5 16 2 12 -15 -4 -14 -2 -19 7 -15 13 4 39 -30
29 -39 -2 -3 2 -11 11 -18 18 -15 20 -34 3 -25 -7 4 -3 -2 10 -13 20 -19 21
-21 5 -25 -15 -4 -15 -6 5 -12 23 -8 28 -20 12 -30 -5 -3 -1 -14 10 -25 31
-31 57 -102 59 -158 1 -13 5 -20 11 -17 6 3 10 -1 10 -9 0 -9 5 -16 11 -16 6
0 8 9 4 20 -3 11 -2 27 3 36 9 16 11 15 21 -4 8 -15 8 -22 1 -22 -12 0 -13
-50 -1 -69 5 -8 5 -26 -1 -43 -12 -33 -5 -46 14 -30 38 31 97 -104 84 -194 -3
-26 -10 -52 -15 -58 -5 -6 -11 -29 -13 -51 -3 -37 -1 -40 22 -40 19 0 29 9 43
40 l19 39 -26 23 c-31 26 -28 29 44 38 92 11 95 17 92 153 -4 152 -9 162 -97
185 -39 10 -74 23 -80 28 -5 6 -10 40 -10 76 0 54 2 61 9 40 13 -36 26 -34 26
3 0 22 -5 30 -17 30 -13 0 -14 3 -5 12 7 7 12 20 12 30 0 10 5 18 11 18 26 0
49 44 51 94 2 75 0 84 -24 116 -19 26 -22 43 -23 157 -1 71 -7 144 -13 163
-28 91 -40 164 -46 280 -3 47 -14 119 -26 160 -11 41 -25 92 -31 114 -5 21
-20 62 -33 90 -13 28 -26 58 -30 66 -10 22 -28 51 -53 87 -13 17 -23 36 -23
41 0 19 -32 23 -45 6 -11 -16 -12 -16 -18 0 -9 22 -1 36 19 36 11 0 12 4 4 19
-5 11 -10 34 -10 51 0 17 -8 39 -17 49 -25 25 -87 61 -106 61 -8 0 -27 14 -40
30 -19 22 -37 31 -67 35 -51 7 -79 29 -54 43 10 5 15 16 11 24 -6 16 -63 32
-78 22 -12 -7 -11 10 1 22 13 13 -4 30 -34 35 -11 2 -24 18 -30 35 -6 17 -16
29 -23 27 -6 -2 -14 0 -17 6 -4 6 -13 8 -22 4 -8 -3 -23 2 -34 12 -15 14 -25
15 -48 7 -30 -10 -64 -1 -43 12 6 4 15 5 20 1 5 -3 12 -1 16 4 3 6 12 8 19 5
24 -9 29 17 7 40 -12 12 -21 30 -21 40 0 15 -6 16 -32 11 -18 -4 -38 -14 -45
-22 -10 -13 -13 -12 -23 7 -9 17 -19 21 -41 18 -21 -3 -35 2 -51 19 -12 13
-33 23 -47 23 -21 0 -31 10 -50 50 -27 53 -31 56 -48 39 -9 -9 -14 -5 -19 15
-6 25 -8 26 -24 11 -15 -14 -19 -14 -43 5 -27 22 -37 25 -37 12z m-395 -212
c3 -5 2 -10 -4 -10 -5 0 -13 5 -16 10 -3 6 -2 10 4 10 5 0 13 -4 16 -10z
m-118 -6 c-3 -3 -12 -4 -19 -1 -8 3 -5 6 6 6 11 1 17 -2 13 -5z m213 -25 c84
-13 104 -31 30 -25 -74 5 -121 17 -114 27 6 11 5 11 84 -2z m-175 -28 c17 -3
26 -9 20 -12 -16 -9 -106 2 -99 12 6 10 33 10 79 0z m310 -11 c3 -5 2 -10 -4
-10 -5 0 -13 5 -16 10 -3 6 -2 10 4 10 5 0 13 -4 16 -10z m-200 -10 c3 -5 -1
-10 -9 -10 -8 0 -18 5 -21 10 -3 6 1 10 9 10 8 0 18 -4 21 -10z m308 -20 c21
-25 9 -25 -23 0 -17 13 -20 20 -10 20 9 0 23 -9 33 -20z m408 -57 c13 -16 12
-17 -3 -4 -10 7 -18 15 -18 17 0 8 8 3 21 -13z m-351 -24 c0 -14 -17 -10 -23
5 -4 10 -1 13 9 9 7 -3 14 -9 14 -14z m527 -5 c-3 -3 -12 -4 -19 -1 -8 3 -5 6
6 6 11 1 17 -2 13 -5z m102 -22 c-3 -6 -13 -6 -29 0 -24 10 -24 11 -5 18 21 8
40 -2 34 -18z m-599 -73 c0 -6 -4 -7 -10 -4 -5 3 -10 11 -10 16 0 6 5 7 10 4
6 -3 10 -11 10 -16z m-40 -24 c7 -9 8 -15 2 -15 -5 0 -12 7 -16 15 -3 8 -4 15
-2 15 2 0 9 -7 16 -15z m-13 -157 c-3 -8 -6 -5 -6 6 -1 11 2 17 5 13 3 -3 4
-12 1 -19z m1053 -190 c0 -5 -4 -8 -10 -8 -5 0 -10 10 -10 23 0 18 2 19 10 7
5 -8 10 -18 10 -22z m-2780 -175 c-1 -14 -27 -43 -39 -43 -14 0 -14 6 -1 31
10 18 40 27 40 12z m-40 -73 c0 -19 -29 -80 -37 -80 -14 0 -6 72 9 81 18 12
28 11 28 -1z m1579 -146 c2 -2 -5 -4 -17 -4 -12 0 -25 0 -29 -1 -4 0 -9 5 -11
11 -3 7 5 9 25 4 15 -4 30 -8 32 -10z m-140 -270 c-7 -9 -2 -15 18 -22 19 -7
22 -11 10 -11 -10 -1 -25 -8 -33 -16 -14 -13 -13 -15 6 -15 12 0 18 5 15 10
-4 6 7 10 25 10 43 0 30 -15 -24 -29 -58 -14 -78 -7 -66 24 5 13 6 26 3 29 -4
3 0 6 7 6 7 0 11 3 7 6 -3 3 2 14 11 25 12 13 18 15 23 7 5 -7 3 -18 -2 -24z
m-75 -33 c4 -5 -3 -7 -14 -4 -23 6 -26 13 -6 13 8 0 17 -4 20 -9z m-59 -71 c3
-5 -3 -10 -15 -10 -12 0 -18 5 -15 10 3 6 10 10 15 10 5 0 12 -4 15 -10z
m-596 -116 c7 -2 11 -10 8 -17 -6 -16 17 -62 32 -63 6 -1 17 -2 25 -3 9 -1 12
-8 9 -21 -3 -13 0 -20 8 -20 9 -1 7 -6 -5 -15 -25 -19 -36 -19 -36 0 0 8 -5
15 -11 15 -6 0 -8 7 -5 16 7 19 -20 50 -28 31 -2 -6 -4 -3 -4 8 3 52 -2 63
-22 58 -25 -7 -53 4 -45 17 6 9 33 7 74 -6z m-279 -58 c0 -11 -19 -15 -25 -6
-3 5 1 10 9 10 9 0 16 -2 16 -4z m953 -47 c7 0 -6 -6 -28 -13 -40 -13 -76 -9
-39 4 10 4 20 12 20 19 3 22 4 22 20 7 8 -9 21 -16 27 -17z m37 7 c0 -3 -4 -8
-10 -11 -5 -3 -10 -1 -10 4 0 6 5 11 10 11 6 0 10 -2 10 -4z m-850 -16 c-19
-13 -30 -13 -30 0 0 6 10 10 23 10 18 0 19 -2 7 -10z m147 -4 c-2 -5 -33 -11
-70 -13 -51 -2 -65 1 -61 11 6 16 136 18 131 2z m23 -26 c0 -5 -7 -10 -16 -10
-8 0 -12 5 -9 10 3 6 10 10 16 10 5 0 9 -4 9 -10z m750 0 c0 -5 -5 -10 -11
-10 -5 0 -7 5 -4 10 3 6 8 10 11 10 2 0 4 -4 4 -10z m-543 -16 c-3 -3 -12 -4
-19 -1 -8 3 -5 6 6 6 11 1 17 -2 13 -5z m693 -18 c0 -3 -4 -8 -10 -11 -5 -3
-10 -1 -10 4 0 6 5 11 10 11 6 0 10 -2 10 -4z m-1240 -16 c0 -5 -5 -10 -11
-10 -5 0 -7 5 -4 10 3 6 8 10 11 10 2 0 4 -4 4 -10z m570 -10 c0 -5 -5 -10
-11 -10 -5 0 -7 5 -4 10 3 6 8 10 11 10 2 0 4 -4 4 -10z m344 -36 c27 -10 19
-32 -9 -26 -25 4 -31 13 -18 25 8 8 8 8 27 1z m876 -140 c0 -2 -9 -4 -21 -4
-11 0 -18 4 -14 10 5 8 35 3 35 -6z m-3 -30 c-3 -3 -12 -4 -19 -1 -8 3 -5 6 6
6 11 1 17 -2 13 -5z m758 -114 c3 -5 1 -10 -4 -10 -6 0 -11 5 -11 10 0 6 2 10
4 10 3 0 8 -4 11 -10z m-913 -71 c10 -5 18 -17 18 -27 0 -13 2 -14 9 -3 7 11
14 10 40 -5 37 -22 40 -36 6 -29 -14 3 -37 8 -52 11 -39 8 -68 35 -51 46 8 6
5 7 -10 3 -14 -4 -28 0 -39 11 -17 16 -15 17 22 10 22 -4 48 -12 57 -17z
m-1321 -608 c-10 -7 -11 -13 -2 -30 10 -17 9 -21 -4 -21 -24 0 -18 -28 7 -32
26 -3 38 -38 14 -38 -9 0 -15 6 -13 13 1 7 -11 13 -28 15 -29 3 -29 3 -10 -12
16 -13 17 -15 2 -10 -13 5 -16 2 -10 -12 5 -14 3 -16 -12 -11 -10 4 -27 4 -39
0 -19 -6 -18 -8 9 -14 l30 -7 -28 -1 c-35 -1 -106 -32 -89 -38 22 -8 13 -23
-15 -23 -20 0 -24 -3 -14 -9 18 -12 -56 -20 -89 -10 -17 5 -19 8 -7 8 10 1 15
6 12 11 -10 15 -35 12 -35 -5 0 -8 -9 -15 -20 -15 -11 0 -20 -4 -20 -10 0 -12
-40 -34 -47 -26 -3 3 5 14 17 24 13 10 25 27 26 36 1 10 -1 15 -4 11 -4 -4 -7
-12 -7 -18 0 -7 -11 -14 -25 -15 -13 -2 -30 -11 -36 -20 -7 -10 -16 -14 -20
-10 -11 11 27 50 43 43 8 -2 11 0 8 5 -9 15 -48 12 -74 -6 -22 -16 -23 -16
-12 5 10 18 35 27 64 22 4 0 7 6 7 15 0 12 5 13 23 8 31 -11 56 -8 100 11 32
13 37 18 27 30 -7 8 -19 15 -26 15 -8 0 -11 6 -8 15 4 8 10 15 16 15 5 0 6 -4
3 -10 -3 -6 4 -10 17 -10 17 0 19 3 10 9 -10 6 -6 11 17 19 22 8 29 15 25 27
-5 13 -1 15 20 11 14 -3 26 0 26 5 0 5 21 9 46 9 29 0 43 4 39 11 -4 6 -14 8
-22 5 -8 -4 -11 -2 -7 5 4 7 21 9 40 6 19 -3 36 -1 39 4 4 5 16 9 28 9 16 0
18 -3 8 -9z m44 -24 c-1 -15 3 -27 7 -27 4 0 8 5 8 10 0 6 10 10 23 10 21 -1
21 -1 -5 -15 -30 -17 -62 -10 -54 12 3 8 1 11 -4 8 -12 -7 -12 -3 -4 20 10 24
29 12 29 -18z m-300 -26 c3 -5 1 -12 -4 -15 -5 -3 -11 1 -15 9 -6 16 9 21 19
6z m-92 -109 c-6 -24 -11 -26 -33 -12 -13 8 -11 11 8 16 12 4 22 11 22 17 0 6
2 8 5 6 2 -3 2 -15 -2 -27z m57 14 c0 -11 -19 -15 -25 -6 -3 5 1 10 9 10 9 0
16 -2 16 -4z m-342 -101 c1 -14 -2 -25 -6 -25 -4 0 -8 11 -8 25 -2 33 11 33
14 0z m57 5 c-3 -5 -12 -10 -18 -10 -7 0 -6 4 3 10 19 12 23 12 15 0z m98 -35
c4 -8 1 -17 -5 -21 -7 -4 -8 -3 -4 4 4 7 2 12 -3 12 -6 0 -11 5 -11 10 0 15
17 12 23 -5z m215 8 c-10 -2 -26 -2 -35 0 -10 3 -2 5 17 5 19 0 27 -2 18 -5z
m1171 -155 c10 3 12 0 8 -12 -4 -10 -7 -24 -7 -32 0 -8 -7 -14 -16 -14 -10 0
-14 6 -11 14 3 8 1 16 -5 18 -14 5 -19 36 -11 63 5 18 7 16 17 -11 7 -20 16
-29 25 -26z m-69 -4 c0 -8 -4 -12 -10 -9 -5 3 -10 10 -10 16 0 5 5 9 10 9 6 0
10 -7 10 -16z m-2 -23 c8 -4 13 -12 13 -17 -1 -5 11 -13 25 -18 22 -7 30 -5
45 15 18 23 24 17 20 -18 -1 -7 3 -13 9 -13 6 0 9 3 7 8 -3 4 -1 16 4 27 7 18
8 18 8 2 1 -14 6 -17 24 -11 l22 6 -23 -25 c-16 -17 -30 -23 -44 -19 -13 3
-19 1 -15 -5 4 -6 31 -11 61 -11 60 1 78 -6 70 -26 -4 -9 5 -16 25 -21 17 -4
29 -11 25 -16 -3 -5 2 -9 10 -9 9 0 16 -6 16 -14 0 -16 -57 -39 -72 -30 -6 4
-5 -3 1 -14 14 -27 14 -35 -1 -26 -6 4 -8 3 -5 -3 4 -6 21 -14 39 -18 24 -5
28 -9 15 -12 -11 -3 -16 -11 -13 -19 3 -8 -4 -19 -16 -25 -17 -9 -23 -9 -26 0
-2 6 -8 11 -13 11 -6 0 -7 -4 -4 -10 3 -5 -4 -11 -17 -11 -13 -1 -34 -3 -48
-4 -14 -2 -74 -8 -135 -14 -60 -7 -115 -14 -121 -15 -6 -2 -16 5 -24 17 -9 15
-10 22 -1 25 6 2 11 9 11 15 0 7 15 19 33 26 17 8 38 20 45 27 13 13 17 66 5
78 -4 3 -8 14 -9 22 -2 13 4 15 31 11 27 -4 33 -3 28 9 -4 12 0 14 23 9 28 -6
28 -6 9 10 -11 8 -25 13 -32 11 -7 -3 -13 -1 -13 4 0 6 5 10 11 10 8 0 8 5 -1
15 -7 8 -16 12 -21 9 -15 -9 -46 5 -46 21 0 8 5 15 10 15 5 0 7 7 3 15 -6 17
29 21 52 6z m-186 -39 c-12 -11 -19 -22 -15 -26 3 -3 1 -6 -5 -6 -7 0 -12 2
-12 4 0 2 -3 11 -6 20 -4 11 0 16 14 16 12 0 24 5 27 11 4 6 10 8 13 5 3 -3
-4 -14 -16 -24z m-55 -18 c-3 -3 -12 -4 -19 -1 -8 3 -5 6 6 6 11 1 17 -2 13
-5z m123 -19 c0 -14 7 -28 15 -31 8 -4 15 -12 15 -20 0 -10 -7 -7 -22 8 -22
22 -34 68 -17 68 5 0 9 -11 9 -25z m80 -15 c0 -12 7 -20 18 -21 9 0 12 -3 5
-5 -7 -3 -21 -1 -32 5 -14 8 -20 8 -23 -1 -3 -7 -7 -5 -11 6 -4 10 -3 15 3 11
6 -3 10 1 10 9 0 9 7 16 15 16 8 0 15 -9 15 -20z m-180 -30 c0 -5 -4 -10 -10
-10 -5 0 -10 5 -10 10 0 6 5 10 10 10 6 0 10 -4 10 -10z m105 -20 c3 -5 1 -10
-4 -10 -6 0 -11 5 -11 10 0 6 2 10 4 10 3 0 8 -4 11 -10z m65 -49 c0 -12 -20
-25 -27 -18 -7 7 6 27 18 27 5 0 9 -4 9 -9z m420 -5 c0 -3 -4 -8 -10 -11 -5
-3 -10 -1 -10 4 0 6 5 11 10 11 6 0 10 -2 10 -4z m-40 -68 c0 -14 -17 -8 -35
12 -10 11 -24 20 -32 20 -7 0 -13 7 -13 16 0 12 9 9 40 -13 22 -15 40 -31 40
-35z m2123 46 c8 -3 13 -13 10 -23 -6 -22 -59 -21 -113 2 l-35 16 50 3 c28 3
55 5 62 6 6 1 18 -1 26 -4z m-2513 -14 c0 -5 -4 -10 -9 -10 -6 0 -13 5 -16 10
-3 6 1 10 9 10 9 0 16 -4 16 -10z m2276 -31 c3 -5 0 -9 -6 -9 -7 0 -10 -7 -6
-15 3 -8 0 -15 -7 -15 -18 1 -48 26 -40 34 4 4 0 4 -10 0 -11 -4 -17 -1 -17 8
0 10 11 13 40 10 22 -2 43 -8 46 -13z m-2566 -29 c0 -5 -5 -10 -11 -10 -5 0
-7 5 -4 10 3 6 8 10 11 10 2 0 4 -4 4 -10z m694 1 c3 -5 -3 -11 -14 -14 -20
-5 -26 3 -13 16 9 10 21 9 27 -2z m1843 -52 c2 -16 -1 -19 -9 -11 -5 5 -7 15
-4 21 10 15 12 14 13 -10z m-1947 -23 c0 -8 -4 -18 -10 -21 -5 -3 -10 3 -10
14 0 12 5 21 10 21 6 0 10 -6 10 -14z m2064 5 c4 -5 -3 -7 -14 -4 -23 6 -26
13 -6 13 8 0 17 -4 20 -9z m-2152 -41 c-6 -66 -20 -88 -64 -95 -49 -9 -62 3
-53 44 8 37 71 93 100 89 16 -2 19 -9 17 -38z m2014 -2 c-4 -27 -4 -27 -35 -6
l-23 16 23 5 c13 2 27 5 31 6 5 0 6 -9 4 -21z m-2143 -5 c-8 -3 -13 -24 -13
-53 0 -53 -13 -70 -55 -73 -36 -3 -50 20 -41 67 6 29 14 40 39 51 18 8 43 14
57 14 14 0 19 -3 13 -6z m2280 -10 c-7 -2 -19 -2 -25 0 -7 3 -2 5 12 5 14 0
19 -2 13 -5z m-2425 -56 c16 -44 15 -62 -4 -81 -19 -20 -81 -21 -100 -2 -17
18 -19 87 -2 104 7 7 30 12 53 12 37 0 42 -3 53 -33z m-211 -36 c6 -17 7 -35
2 -42 -7 -11 -9 -11 -9 1 0 8 -7 27 -14 43 -11 20 -12 27 -3 27 7 0 18 -13 24
-29z m2631 -68 c-15 -2 -42 -2 -60 0 -18 2 -6 4 27 4 33 0 48 -2 33 -4z
m-3598 -48 c0 -5 -5 -3 -10 5 -5 8 -10 20 -10 25 0 6 5 3 10 -5 5 -8 10 -19
10 -25z m696 24 c24 -6 47 -15 49 -19 3 -5 -5 -6 -17 -2 -14 3 -19 2 -14 -6 4
-7 14 -12 22 -12 9 0 14 -6 11 -12 -2 -7 -11 -11 -18 -9 -8 3 -26 5 -41 5 -19
1 -29 7 -33 24 -3 12 -10 22 -15 22 -6 0 -10 5 -10 10 0 13 11 13 66 -1z
m3190 -33 c19 -17 23 -26 14 -31 -7 -4 -15 -4 -19 1 -3 5 -15 14 -25 20 -11 6
-22 16 -24 22 -7 21 28 13 54 -12z m61 13 c15 -6 30 -11 33 -12 15 -4 38 -32
34 -39 -6 -9 -78 28 -96 49 -13 16 -8 16 29 2z m-3161 -46 c12 -16 15 -16 25
-3 8 12 12 12 16 2 4 -10 9 -10 23 3 14 12 29 15 69 9 31 -4 51 -12 51 -19 0
-19 -19 -23 -97 -19 -71 3 -113 16 -113 34 0 15 11 12 26 -7z m304 -3 c0 -5
-4 -10 -10 -10 -5 0 -10 5 -10 10 0 6 5 10 10 10 6 0 10 -4 10 -10z m-536 -9
c3 -5 15 -7 26 -4 24 6 24 4 5 -33 -8 -16 -15 -23 -15 -16 0 6 -7 12 -16 12
-10 0 -14 6 -11 14 3 7 0 19 -6 25 -8 8 -8 11 0 11 7 0 14 -4 17 -9z m3507
-22 c24 -24 22 -30 -9 -22 -13 3 -22 13 -22 24 0 24 5 24 31 -2z m-486 -13
c28 -14 45 -25 38 -25 -6 -1 -35 10 -65 24 -29 14 -46 25 -38 25 8 0 38 -11
65 -24z m175 14 c3 -1 -4 -5 -15 -10 -30 -13 -89 -12 -109 3 -15 11 -7 12 51
11 37 -2 70 -3 73 -4z m-3093 -26 c-3 -3 -12 -4 -19 -1 -8 3 -5 6 6 6 11 1 17
-2 13 -5z m39 -13 c-3 -5 8 -11 25 -15 44 -9 26 -28 -19 -20 -46 8 -48 10 -32
29 13 16 35 21 26 6z m-57 -20 c9 -6 10 -11 2 -15 -6 -4 -18 0 -27 8 -12 12
-12 16 -2 16 7 0 19 -4 27 -9z m-646 -41 c-9 -16 -21 -30 -26 -30 -9 0 -1 17
21 43 23 26 25 21 5 -13z m-41 -62 c-7 -7 -12 -8 -12 -2 0 6 3 14 7 17 3 4 9
5 12 2 2 -3 -1 -11 -7 -17z m136 -30 c-9 -13 -32 -40 -52 -61 -40 -43 -46 -62
-16 -52 31 10 24 0 -20 -29 -30 -20 -49 -45 -72 -91 -17 -36 -35 -65 -40 -65
-24 0 39 156 68 167 8 3 14 12 14 21 0 9 28 45 62 79 61 62 85 75 56 31z
m4396 -15 c21 -27 56 -98 56 -114 0 -15 -62 -1 -76 18 -7 10 -14 20 -14 23
-10 50 -7 100 7 100 3 0 15 -12 27 -27z m-199 -24 c-8 -12 -35 -12 -35 0 0 11
22 20 33 14 4 -2 5 -9 2 -14z m-3065 -69 c0 -5 -7 -7 -15 -4 -8 4 -15 8 -15
10 0 2 7 4 15 4 8 0 15 -4 15 -10z m2195 0 c3 -5 2 -10 -4 -10 -5 0 -13 5 -16
10 -3 6 -2 10 4 10 5 0 13 -4 16 -10z m180 -8 c26 -7 75 -41 75 -52 0 -13 -26
-1 -84 38 -28 19 -42 31 -31 27 11 -4 29 -10 40 -13z m300 0 c-3 -3 -11 0 -18
7 -9 10 -8 11 6 5 10 -3 15 -9 12 -12z m192 -33 c34 -11 64 -23 67 -28 7 -11
-99 -34 -123 -26 -11 3 -23 16 -26 28 -18 62 -18 60 1 53 11 -4 47 -16 81 -27z
m-554 -37 c6 -8 -4 -6 -26 5 -20 10 -39 24 -42 31 -6 15 50 -15 68 -36z m217
28 c12 -8 12 -10 -5 -9 -11 0 -29 4 -40 9 -18 8 -18 9 5 9 14 0 32 -4 40 -9z
m100 -5 c16 -20 10 -26 -18 -18 -12 3 -22 12 -22 19 0 19 24 18 40 -1z m-1060
-35 c5 0 16 -13 25 -30 12 -23 12 -30 3 -30 -18 1 -49 26 -41 33 3 4 0 13 -6
21 -7 9 -9 21 -5 28 7 10 9 9 12 -4 2 -10 8 -18 12 -18z m-60 -50 c0 -11 7
-20 15 -20 8 0 15 -4 15 -10 0 -13 -36 -13 -61 1 -20 10 -20 11 -3 30 22 24
34 24 34 -1z m-2940 -41 c0 -6 -4 -7 -10 -4 -5 3 -10 11 -10 16 0 6 5 7 10 4
6 -3 10 -11 10 -16z m745 -27 c-2 -3 -12 -1 -22 2 -15 6 -15 9 -3 16 13 8 35
-8 25 -18z m2063 -16 c-13 -10 -18 -27 -18 -64 0 -60 -16 -77 -26 -27 -5 29
-9 33 -20 24 -8 -6 -14 -22 -14 -35 0 -26 -12 -31 -28 -11 -11 14 2 57 17 57
5 0 26 16 47 35 20 19 42 35 48 35 6 0 3 -7 -6 -14z m-2048 -6 c0 -5 -2 -10
-4 -10 -3 0 -8 5 -11 10 -3 6 -1 10 4 10 6 0 11 -4 11 -10z m-930 -4 c0 -3 -4
-8 -10 -11 -5 -3 -10 -1 -10 4 0 6 5 11 10 11 6 0 10 -2 10 -4z m2767 -62 c-3
-3 -12 -4 -19 -1 -8 3 -5 6 6 6 11 1 17 -2 13 -5z m-1473 -45 c-30 -12 -34
-10 -32 15 2 23 3 23 26 8 23 -15 23 -16 6 -23z m3516 -19 c0 -5 -2 -10 -4
-10 -3 0 -8 5 -11 10 -3 6 -1 10 4 10 6 0 11 -4 11 -10z m-3710 -127 c0 -5 17
-16 38 -26 32 -15 72 -65 91 -112 2 -5 7 -12 10 -15 15 -11 72 -90 66 -90 -3
0 -3 -6 2 -12 10 -17 13 -38 5 -38 -15 1 -52 39 -52 54 0 9 -7 16 -16 16 -8 0
-12 5 -9 10 3 6 -2 10 -13 10 -11 0 -27 15 -40 39 -13 22 -36 51 -53 65 -17
14 -28 26 -25 26 3 0 -3 16 -14 35 -24 43 -24 45 -5 45 8 0 15 -3 15 -7z
m-1199 -31 c-15 -28 -24 -56 -22 -69 1 -6 -11 -21 -25 -32 -36 -28 -57 -11
-27 21 11 13 30 42 43 65 13 23 27 40 31 37 5 -3 5 -13 0 -22z m-122 -467 c-1
-47 -6 -88 -11 -91 -4 -3 -6 -9 -3 -14 3 -4 -4 -6 -15 -3 -11 3 -27 0 -36 -7
-8 -8 -39 -14 -69 -15 -45 -2 -61 -8 -98 -39 -24 -20 -46 -33 -49 -30 -4 3 7
34 23 69 16 36 29 67 29 69 0 3 -15 -9 -32 -25 -25 -22 -34 -26 -36 -15 -2 8
2 24 7 35 18 33 14 44 -14 37 -14 -4 -25 -2 -25 3 0 9 42 76 56 91 5 5 126 15
227 18 l48 2 -2 -85z"/>
<path d="M2440 2750 c0 -5 4 -10 9 -10 6 0 13 5 16 10 3 6 -1 10 -9 10 -9 0
-16 -4 -16 -10z"/>
<path d="M2310 2700 c-13 -9 -13 -10 0 -9 8 0 24 4 35 9 l20 9 -20 0 c-11 0
-27 -4 -35 -9z"/>
<path d="M2286 2662 c-3 -5 1 -9 9 -9 8 0 12 4 9 9 -3 4 -7 8 -9 8 -2 0 -6 -4
-9 -8z"/>
<path d="M2338 2643 c7 -3 16 -2 19 1 4 3 -2 6 -13 5 -11 0 -14 -3 -6 -6z"/>
<path d="M2240 2619 c-31 -9 -27 -11 28 -14 28 -2 42 1 39 8 -4 13 -33 16 -67
6z"/>
<path d="M2240 2580 c0 -5 7 -10 15 -10 8 0 15 5 15 10 0 6 -7 10 -15 10 -8 0
-15 -4 -15 -10z"/>
<path d="M3463 2243 c-20 -7 -15 -20 10 -27 18 -5 19 -8 7 -15 -8 -6 -11 -13
-8 -17 9 -9 33 17 34 38 2 17 -22 28 -43 21z"/>
<path d="M3403 2220 c-22 -9 -36 -38 -38 -76 -1 -14 4 -20 12 -17 9 3 10 10 4
22 -14 25 0 39 36 36 18 -1 30 2 27 7 -3 5 -15 6 -27 2 -22 -7 -22 -6 -3 15
21 23 21 24 -11 11z"/>
<path d="M3526 2211 c5 -5 25 -12 44 -15 33 -7 34 -6 16 9 -21 16 -77 22 -60
6z"/>
<path d="M3305 2190 c3 -5 16 -10 28 -10 18 0 19 2 7 10 -20 13 -43 13 -35 0z"/>
<path d="M3498 2123 c6 -2 18 -2 25 0 6 3 1 5 -13 5 -14 0 -19 -2 -12 -5z"/>
<path d="M3270 2049 c0 -5 5 -7 10 -4 6 3 10 8 10 11 0 2 -4 4 -10 4 -5 0 -10
-5 -10 -11z"/>
<path d="M3030 5590 c8 -5 22 -9 30 -9 10 0 8 3 -5 9 -27 12 -43 12 -25 0z"/>
<path d="M3378 4523 c7 -3 16 -2 19 1 4 3 -2 6 -13 5 -11 0 -14 -3 -6 -6z"/>
<path d="M3438 4523 c7 -3 16 -2 19 1 4 3 -2 6 -13 5 -11 0 -14 -3 -6 -6z"/>
<path d="M3463 4383 c9 -2 25 -2 35 0 9 3 1 5 -18 5 -19 0 -27 -2 -17 -5z"/>
<path d="M3456 4301 c-18 -7 -18 -8 -2 -14 10 -4 29 -7 42 -7 14 0 24 -6 24
-14 0 -7 6 -19 14 -25 10 -9 15 -8 20 4 3 8 0 15 -7 15 -7 1 -1 7 13 15 23 13
23 14 5 16 -11 1 -35 1 -54 0 -22 -2 -31 1 -27 8 8 12 0 13 -28 2z"/>
<path d="M3300 4290 c0 -6 7 -10 15 -10 8 0 15 2 15 4 0 2 -7 6 -15 10 -8 3
-15 1 -15 -4z"/>
<path d="M3430 4271 c0 -5 7 -11 15 -15 9 -3 15 0 15 9 0 8 -7 15 -15 15 -8 0
-15 -4 -15 -9z"/>
<path d="M3738 4213 c7 -3 16 -2 19 1 4 3 -2 6 -13 5 -11 0 -14 -3 -6 -6z"/>
<path d="M3011 4029 c7 -14 14 -18 21 -11 13 13 2 32 -18 32 -12 0 -13 -4 -3
-21z"/>
<path d="M1888 3803 c7 -3 16 -2 19 1 4 3 -2 6 -13 5 -11 0 -14 -3 -6 -6z"/>
<path d="M1800 3725 c-8 -9 -8 -15 -2 -15 12 0 26 19 19 26 -2 2 -10 -2 -17
-11z"/>
<path d="M5022 3690 c-10 -11 -31 -47 -47 -80 l-29 -60 24 -47 c13 -27 40 -74
60 -105 43 -65 56 -123 66 -284 5 -93 4 -116 -11 -143 -17 -34 -13 -53 7 -33
16 16 26 104 27 242 1 79 7 138 21 190 24 92 25 135 4 208 -24 82 -58 132 -91
132 -7 0 -21 -9 -31 -20z"/>
<path d="M4755 3240 c-3 -5 -2 -10 4 -10 5 0 13 5 16 10 3 6 2 10 -4 10 -5 0
-13 -4 -16 -10z"/>
<path d="M5150 3238 c0 -7 12 -21 28 -30 15 -10 35 -23 44 -30 24 -17 30 -7
16 30 -9 24 -17 30 -30 26 -9 -3 -26 0 -38 6 -15 8 -20 8 -20 -2z"/>
<path d="M5266 3227 c-16 -12 -16 -14 -2 -26 18 -15 22 -41 6 -41 -5 0 -10 -5
-10 -11 0 -16 62 -2 77 17 10 14 14 14 37 -1 14 -10 26 -13 26 -7 0 12 -67 72
-80 72 -4 0 -14 2 -22 5 -7 3 -22 -1 -32 -8z"/>
<path d="M3918 3183 c7 -3 16 -2 19 1 4 3 -2 6 -13 5 -11 0 -14 -3 -6 -6z"/>
<path d="M5303 3132 l-43 -3 30 -53 c17 -29 30 -60 30 -68 0 -9 7 -21 14 -28
8 -6 22 -33 32 -58 9 -26 20 -56 24 -67 5 -11 14 -37 20 -59 7 -21 15 -33 19
-27 5 7 26 3 66 -14 94 -38 173 -29 120 15 -33 28 -133 68 -157 63 -14 -3 -29
0 -32 6 -5 7 4 11 23 11 38 0 40 16 4 33 -16 6 -32 17 -36 24 -4 7 -15 13 -22
13 -8 0 -15 5 -15 10 0 16 37 11 44 -6 4 -12 13 -14 32 -10 16 4 32 2 42 -6
11 -10 16 -10 19 -1 3 7 12 9 21 6 12 -5 8 4 -11 28 -15 19 -32 46 -38 62 -12
30 -53 38 -63 12 -3 -10 -18 -15 -43 -14 -31 1 -34 2 -14 8 40 11 36 30 -11
51 l-43 20 40 0 c22 0 47 5 55 10 13 8 13 11 0 23 -19 18 -53 24 -107 19z"/>
<path d="M3117 3093 c-2 -4 -1 -16 2 -26 6 -16 9 -17 19 -4 10 11 9 17 -2 26
-8 7 -16 8 -19 4z"/>
<path d="M5405 3060 c4 -6 11 -8 16 -5 14 9 11 15 -7 15 -8 0 -12 -5 -9 -10z"/>
<path d="M1750 2910 c0 -5 7 -7 15 -4 8 4 15 8 15 10 0 2 -7 4 -15 4 -8 0 -15
-4 -15 -10z"/>
<path d="M1830 2850 c-14 -10 -22 -21 -19 -24 2 -3 18 6 34 19 35 29 22 33
-15 5z"/>
<path d="M1790 2810 c0 -6 7 -10 15 -10 8 0 15 2 15 4 0 2 -7 6 -15 10 -8 3
-15 1 -15 -4z"/>
<path d="M1756 2794 c-8 -21 -3 -27 22 -22 18 3 18 4 2 21 -16 17 -18 17 -24
1z"/>
<path d="M5434 2734 c3 -9 6 -19 6 -24 0 -5 23 -25 50 -45 54 -39 60 -54 16
-34 -20 10 -29 10 -38 1 -9 -9 -8 -12 4 -12 9 0 20 -5 24 -11 4 -8 0 -9 -15
-4 -17 5 -20 3 -14 -12 4 -10 15 -24 25 -31 10 -7 18 -21 18 -30 1 -21 16 -40
54 -70 26 -20 27 -22 7 -22 -25 0 -26 -8 -6 -34 11 -15 12 -22 3 -27 -9 -6 -8
-12 2 -24 10 -12 23 -15 48 -10 23 4 32 3 27 -4 -3 -6 -16 -11 -29 -11 -29 0
-35 -6 -29 -30 4 -14 10 -17 22 -11 9 4 38 13 65 20 49 12 140 57 185 92 l24
19 -37 15 c-30 13 -45 13 -79 4 -23 -6 -62 -12 -87 -13 -25 -1 -53 -6 -62 -10
-13 -6 -18 -4 -18 6 0 10 24 21 78 33 42 10 84 22 92 27 10 7 7 7 -10 3 -14
-4 -59 -9 -100 -10 -69 -3 -70 -3 -17 4 32 3 61 11 65 17 12 17 121 54 160 54
28 0 33 3 24 12 -16 16 -15 21 11 50 12 14 29 34 38 45 9 12 23 23 30 25 17 6
11 13 -17 22 -22 7 -66 -23 -139 -93 -68 -64 -117 -87 -171 -76 l-34 6 29 24
c16 14 35 25 42 25 11 0 11 -2 -1 -10 -21 -13 -5 -23 25 -16 18 5 25 12 21 21
-3 8 0 17 5 21 6 3 8 17 4 31 -5 23 -4 25 18 20 18 -5 27 0 40 22 21 36 21 41
-1 41 -10 0 -27 7 -38 15 -18 12 -26 12 -47 2 -15 -7 -28 -21 -29 -32 -2 -11
-15 -26 -30 -33 -27 -13 -38 -32 -18 -32 6 0 10 -4 10 -10 0 -24 -36 -7 -75
35 -54 60 -146 108 -131 69z"/>
<path d="M3808 2578 c-8 -19 15 -42 34 -35 9 4 7 6 -4 6 -9 1 -18 11 -20 24
-3 18 -4 19 -10 5z"/>
<path d="M5890 2510 c0 -12 107 -66 115 -58 12 11 -15 56 -37 61 -36 10 -78 8
-78 -3z"/>
<path d="M6048 2503 c-24 -6 -23 -34 3 -66 13 -18 45 -34 97 -51 42 -13 79
-23 81 -21 5 5 -61 85 -71 85 -4 0 -17 9 -27 19 -19 19 -56 42 -63 40 -2 -1
-11 -3 -20 -6z"/>
<path d="M2770 2461 c0 -5 9 -7 20 -4 11 3 20 7 20 9 0 2 -9 4 -20 4 -11 0
-20 -4 -20 -9z"/>
<path d="M2616 2436 c3 -9 11 -16 16 -16 13 0 5 23 -10 28 -7 2 -10 -2 -6 -12z"/>
<path d="M4250 1931 c0 -5 5 -13 10 -16 6 -3 10 -2 10 4 0 5 -4 13 -10 16 -5
3 -10 2 -10 -4z"/>
<path d="M4245 1890 c-3 -5 1 -10 10 -10 9 0 13 5 10 10 -3 6 -8 10 -10 10 -2
0 -7 -4 -10 -10z"/>
<path d="M4275 1870 c-8 -12 2 -30 17 -30 7 0 7 5 -1 14 -9 11 -9 15 1 19 9 4
9 6 1 6 -6 1 -15 -3 -18 -9z"/>
<path d="M4162 1583 c2 -9 10 -19 18 -21 12 -4 13 -3 3 10 -7 8 -10 18 -6 21
3 4 1 7 -6 7 -7 0 -11 -8 -9 -17z"/>
<path d="M3347 1505 c-5 -11 0 -15 16 -15 12 0 18 4 12 8 -5 4 -13 11 -16 15
-4 4 -9 1 -12 -8z"/>
<path d="M3090 1282 c0 -4 5 -13 12 -20 9 -9 9 -15 0 -24 -17 -17 -15 -38 3
-38 22 0 18 -11 -10 -36 l-25 -22 24 -4 c17 -4 23 -1 19 9 -3 7 0 13 6 13 6 0
11 7 11 16 0 8 5 12 10 9 6 -3 10 0 10 9 0 8 -6 17 -12 19 -7 3 2 6 20 6 29 1
32 3 22 20 -15 29 -90 64 -90 43z"/>
<path d="M2835 1270 c3 -5 8 -10 11 -10 2 0 4 5 4 10 0 6 -5 10 -11 10 -5 0
-7 -4 -4 -10z"/>
<path d="M1607 1249 c-20 -12 -52 -69 -38 -69 11 0 61 58 61 71 0 11 -1 11
-23 -2z"/>
<path d="M2933 1223 c-7 -2 -13 -11 -13 -18 0 -8 -7 -11 -20 -8 -11 3 -20 0
-20 -6 0 -6 7 -11 16 -11 8 0 13 -4 10 -9 -8 -12 47 -22 59 -10 5 6 5 9 -3 9
-7 0 -12 4 -12 8 0 5 7 9 14 9 10 0 14 -10 13 -29 -2 -27 -4 -29 -35 -23 -19
3 -39 2 -46 -4 -7 -6 -17 -6 -26 -1 -13 8 -13 10 -1 10 8 0 12 2 9 5 -3 3 -18
-1 -34 -10 l-29 -15 25 -1 c14 -1 40 -3 57 -5 18 -2 56 2 85 10 46 11 49 14
29 21 l-24 7 32 20 c18 11 30 23 27 25 -2 3 -26 5 -53 5 -26 0 -42 3 -35 5 6
3 12 9 12 14 0 10 -17 11 -37 2z"/>
<path d="M1680 1160 c0 -23 15 -27 23 -6 3 8 -1 17 -9 20 -9 4 -14 -1 -14 -14z"/>
<path d="M3850 1170 c0 -5 4 -10 9 -10 6 0 13 5 16 10 3 6 -1 10 -9 10 -9 0
-16 -4 -16 -10z"/>
<path d="M3152 1128 c3 -7 13 -15 22 -16 12 -3 17 1 14 10 -3 7 -13 15 -22 16
-12 3 -17 -1 -14 -10z"/>
<path d="M3030 1109 c0 -5 5 -7 10 -4 6 3 10 8 10 11 0 2 -4 4 -10 4 -5 0 -10
-5 -10 -11z"/>
<path d="M2780 1080 c0 -5 7 -10 15 -10 8 0 15 5 15 10 0 6 -7 10 -15 10 -8 0
-15 -4 -15 -10z"/>
<path d="M2920 1086 c0 -2 7 -7 16 -10 8 -3 12 -2 9 4 -6 10 -25 14 -25 6z"/>
<path d="M3028 1063 c7 -3 16 -2 19 1 4 3 -2 6 -13 5 -11 0 -14 -3 -6 -6z"/>
<path d="M6620 1062 c0 -10 33 -42 44 -42 9 0 -27 49 -36 50 -5 0 -8 -4 -8 -8z"/>
<path d="M3185 1040 c-3 -5 1 -10 10 -10 9 0 13 5 10 10 -3 6 -8 10 -10 10 -2
0 -7 -4 -10 -10z"/>
<path d="M3325 1000 c-3 -5 -2 -10 4 -10 5 0 13 5 16 10 3 6 2 10 -4 10 -5 0
-13 -4 -16 -10z"/>
</g>
</svg>
