<?xml version="1.0" standalone="no"?>
<!DOCTYPE svg PUBLIC "-//W3C//DTD SVG 20010904//EN"
 "http://www.w3.org/TR/2001/REC-SVG-20010904/DTD/svg10.dtd">
<svg version="1.0" xmlns="http://www.w3.org/2000/svg"
 width="1024.000000pt" height="1024.000000pt" viewBox="0 0 1024.000000 1024.000000"
 preserveAspectRatio="xMidYMid meet">

<g transform="translate(0.000000,1024.000000) scale(0.100000,-0.100000)"
fill="#000000" stroke="none">
<path d="M0 5120 l0 -5120 5120 0 5120 0 0 5120 0 5120 -1345 0 c-1069 0
-1345 -3 -1345 -12 0 -10 -2 -10 -8 0 -6 8 -33 12 -85 11 -69 -1 -76 -3 -80
-23 -4 -20 -4 -20 -6 2 -1 17 -7 22 -31 22 -17 0 -34 -7 -40 -17 -9 -15 -11
-15 -7 -2 5 14 -4 16 -54 16 -44 0 -59 -4 -59 -14 0 -8 -5 -11 -12 -7 -7 5 -9
2 -5 -8 4 -11 -2 -18 -19 -22 -14 -4 -28 -5 -32 -3 -4 3 -15 -3 -25 -13 -16
-15 -16 -18 -2 -23 9 -4 15 -1 15 8 0 8 6 15 14 15 8 0 22 3 32 7 13 5 16 3
11 -10 -3 -9 -2 -17 4 -17 5 0 13 8 17 18 5 14 14 16 37 11 l30 -7 -29 -1
c-21 -1 -27 -5 -22 -16 7 -20 -3 -47 -16 -39 -5 3 -4 12 4 21 7 9 -3 7 -27 -7
-54 -30 -85 -41 -85 -30 0 5 10 10 22 12 12 2 22 11 24 23 3 20 3 20 -12 1
-10 -14 -14 -16 -14 -5 -1 10 -5 9 -15 -5 -8 -11 -12 -29 -9 -43 4 -14 2 -23
-5 -23 -6 0 -11 17 -11 39 0 22 -5 43 -10 46 -7 4 -9 -10 -8 -39 2 -25 6 -46
11 -46 4 0 7 -5 7 -11 0 -8 -14 -10 -40 -6 -27 3 -43 1 -51 -9 -9 -11 -6 -14
17 -15 l29 -1 -30 -7 c-24 -5 -31 -3 -33 11 -2 10 -7 16 -12 13 -5 -3 -7 -12
-3 -20 3 -8 0 -15 -6 -15 -6 0 -11 5 -11 10 0 6 -5 10 -11 10 -6 0 -9 -9 -6
-20 4 -16 0 -20 -18 -20 -34 0 -55 -10 -55 -27 0 -8 5 -11 10 -8 6 3 10 1 10
-4 0 -19 -22 -12 -27 9 -6 23 -31 27 -39 6 -3 -8 -1 -24 6 -35 8 -16 8 -26 0
-39 -10 -15 -10 -14 -5 4 6 25 -17 54 -43 54 -15 -1 -15 -3 2 -15 11 -8 16
-18 12 -22 -4 -4 -11 -1 -17 7 -8 13 -10 13 -18 0 -16 -23 -25 -3 -13 26 9 18
9 30 2 42 -9 14 -10 14 -5 -4 3 -13 -1 -28 -10 -38 -9 -9 -14 -20 -11 -25 4
-5 -2 -12 -11 -14 -17 -4 -17 -5 0 -6 10 -1 17 -9 17 -21 0 -21 -16 -26 -40
-10 -9 6 -19 5 -28 -2 -10 -9 -16 -8 -23 3 -9 15 -11 11 -13 -33 -1 -15 2 -24
6 -21 5 2 6 14 3 26 -5 19 -5 20 5 5 6 -10 17 -18 25 -18 8 0 16 -4 19 -9 4
-5 -3 -7 -14 -4 -12 3 -22 -1 -26 -11 -3 -9 -15 -16 -26 -16 -15 0 -19 -5 -15
-20 3 -11 1 -20 -4 -20 -5 0 -9 5 -9 10 0 6 -8 10 -17 10 -16 0 -16 -2 -3 -11
13 -9 13 -10 0 -6 -9 2 -14 14 -13 28 1 23 1 23 -10 -3 -14 -36 -30 -41 -55
-17 -25 23 -32 24 -32 4 0 -8 7 -15 16 -15 13 0 14 -3 5 -14 -11 -13 -15 -12
-31 1 -11 9 -17 20 -15 23 2 4 -2 7 -10 7 -12 0 -12 -3 -2 -16 10 -12 9 -14
-5 -8 -20 7 -25 -8 -7 -19 6 -3 15 -1 19 6 5 9 9 9 14 1 4 -6 1 -11 -6 -12 -7
0 -4 -4 7 -9 16 -7 14 -8 -12 -7 -18 1 -33 6 -33 10 0 10 -68 3 -78 -8 -4 -4
2 -5 13 -3 16 2 20 -3 20 -25 1 -18 -6 -32 -17 -38 -21 -12 -58 -3 -58 13 0 6
-3 9 -6 6 -11 -12 16 -47 31 -42 8 4 15 1 15 -4 0 -6 10 -13 23 -15 14 -3 10
-5 -13 -6 -66 -2 -85 -5 -98 -18 -16 -15 -42 -17 -42 -3 0 15 -50 10 -105 -11
-44 -16 -46 -18 -15 -14 l35 5 -30 -15 c-16 -8 -49 -14 -73 -13 -42 1 -61 -6
-49 -18 4 -4 12 -2 19 3 8 6 22 7 33 2 11 -4 16 -8 10 -9 -34 -5 -52 -10 -73
-22 -20 -10 -28 -10 -53 4 -16 10 -31 13 -34 7 -4 -5 0 -9 7 -9 9 0 9 -3 -2
-10 -8 -5 -26 -6 -40 -3 -22 6 -24 5 -11 -10 7 -10 9 -17 3 -17 -6 0 -12 5
-14 12 -5 14 -99 19 -115 6 -15 -12 -36 -1 -27 14 5 8 1 9 -10 5 -10 -4 -27
-2 -39 5 -19 9 -20 9 -11 -3 6 -8 7 -27 3 -44 l-7 -30 -2 35 c-1 19 -4 30 -6
24 -3 -7 -14 -10 -25 -7 -11 3 -28 -2 -39 -12 -16 -15 -22 -16 -35 -5 -9 8
-13 21 -10 34 5 17 2 16 -15 -7 -20 -25 -40 -28 -40 -6 0 6 4 8 8 5 5 -3 9 1
9 9 0 8 -4 15 -8 15 -12 0 -17 -25 -12 -53 3 -15 1 -27 -5 -27 -5 0 -12 14
-16 31 -4 23 -10 30 -22 25 -9 -3 -24 -6 -35 -6 -29 0 -23 -18 9 -23 21 -3 18
-4 -12 -6 -36 -1 -38 1 -33 24 2 14 2 23 -1 21 -2 -3 -12 -1 -21 4 -10 5 -23
5 -32 -1 -10 -6 -7 -9 14 -9 27 0 36 -13 17 -25 -5 -3 -10 -1 -10 4 0 6 -7 11
-15 11 -8 0 -23 10 -35 22 -16 17 -20 19 -20 6 0 -9 5 -18 11 -20 19 -6 -3
-38 -27 -38 -13 0 -34 -6 -45 -12 -17 -10 -23 -10 -26 0 -3 6 -11 12 -19 12
-8 0 -11 6 -8 15 4 8 10 15 15 15 5 0 9 -7 9 -15 0 -22 27 -18 33 5 4 17 2 20
-14 15 -11 -4 -19 -2 -19 4 0 19 -28 12 -35 -9 -5 -15 -16 -20 -48 -21 l-42
-2 38 -6 c21 -3 38 -9 37 -13 0 -5 0 -12 0 -18 0 -5 -4 -10 -10 -10 -5 0 -10
7 -10 15 0 8 -4 15 -8 15 -5 0 -7 -15 -6 -32 2 -18 1 -25 -2 -15 -3 9 -13 17
-22 18 -11 0 -12 2 -5 6 18 7 16 23 -2 23 -8 0 -15 -7 -15 -15 0 -8 -4 -15
-10 -15 -14 0 -12 38 2 42 7 3 6 7 -5 11 -11 4 -17 1 -17 -8 0 -8 -4 -15 -9
-15 -17 0 1 38 22 47 19 9 19 10 3 16 -11 5 -15 3 -10 -5 5 -8 2 -9 -10 -5 -9
4 -15 3 -12 -2 3 -5 -7 -11 -22 -14 -28 -5 -47 2 -24 10 10 4 10 8 1 19 -9 11
-8 14 5 14 9 0 16 5 16 10 0 7 -6 7 -17 2 -10 -5 -23 -7 -29 -5 -6 2 -14 -4
-18 -13 -8 -22 2 -33 14 -14 7 11 10 3 10 -27 0 -32 -4 -43 -15 -43 -8 0 -15
9 -15 21 0 11 5 17 10 14 6 -3 10 -1 10 5 0 6 -6 10 -12 9 -7 -1 -27 2 -45 6
-32 7 -32 7 -17 37 9 16 13 32 11 35 -3 2 -8 -5 -12 -16 -3 -12 -10 -21 -15
-21 -13 0 -20 -43 -8 -57 8 -10 8 -17 0 -25 -9 -9 -12 -8 -12 5 0 13 -9 17
-40 17 -22 0 -40 5 -40 11 0 5 6 7 13 3 9 -6 9 -5 0 7 -10 12 -10 18 -1 27 9
9 9 12 0 12 -7 0 -12 -5 -12 -11 0 -8 -5 -7 -16 1 -8 8 -14 9 -13 4 4 -21 -2
-34 -16 -34 -8 0 -15 -4 -15 -10 0 -18 29 -10 35 10 4 11 10 18 15 15 5 -3 7
-11 5 -18 -7 -18 7 -34 35 -40 20 -3 -30 -7 -97 -7 -5 0 -8 8 -8 18 0 21 -38
44 -59 36 -19 -7 -21 -21 -4 -27 7 -2 9 -8 5 -13 -5 -5 -13 -1 -18 8 -5 9 -16
24 -24 32 -26 26 -18 45 22 48 22 2 38 9 40 18 3 10 2 11 -4 4 -11 -16 -113
-28 -113 -14 0 7 -9 5 -22 -4 -12 -9 -32 -16 -43 -16 -19 -1 -19 -1 3 -19 25
-22 28 -37 8 -44 -10 -4 -12 0 -8 16 5 19 3 20 -10 9 -9 -7 -27 -10 -47 -6
-23 5 -29 9 -19 15 10 7 10 9 -2 10 -8 1 -21 1 -27 0 -7 -1 -13 3 -13 10 0 7
9 9 27 4 l28 -7 -24 21 c-24 21 -47 29 -37 12 3 -5 -8 -11 -24 -13 -28 -4 -43
6 -20 14 5 2 7 13 4 24 -4 15 -11 20 -25 17 -15 -4 -19 0 -19 21 0 27 -1 27
-62 25 -35 -2 -71 -7 -82 -12 -12 -6 -16 -5 -12 1 3 5 -3 12 -14 15 -23 6 -26
-3 -8 -21 9 -9 9 -15 -1 -24 -11 -11 -13 -10 -9 2 6 16 -16 43 -26 33 -3 -4
-6 -1 -6 6 0 9 -5 9 -21 1 -14 -8 -24 -8 -33 -1 -7 6 -17 7 -21 3 -5 -4 -5 -1
0 7 6 10 2 12 -16 7 -20 -6 -21 -5 -6 4 9 6 21 9 26 6 5 -3 15 2 22 11 13 14
11 16 -19 11 -25 -3 -32 -1 -28 9 3 7 -1 13 -9 13 -20 0 -19 26 0 34 21 8 19
22 -4 22 -10 0 -17 -6 -14 -12 2 -7 -1 -15 -8 -19 -17 -11 -79 -13 -79 -3 0 4
5 8 11 8 6 0 4 7 -5 15 -8 9 -20 14 -27 13 -6 -2 -13 2 -16 8 -2 7 8 9 27 6
16 -2 30 0 30 4 0 5 -18 10 -39 11 -34 2 -40 -1 -44 -20 -4 -20 -4 -20 -6 3
-1 20 -3 22 -11 10 -9 -13 -11 -13 -19 -1 -8 12 -13 11 -29 -9 -13 -16 -21
-20 -26 -11 -4 7 -2 10 5 9 6 -2 14 3 16 10 3 7 -4 12 -19 12 l-23 1 25 14 25
15 -29 -6 c-19 -5 -27 -3 -23 3 9 14 -15 23 -61 24 -32 0 -34 1 -14 9 12 5 22
12 22 15 0 4 -4 4 -9 1 -5 -4 -12 0 -14 6 -4 10 -8 9 -16 -2 -9 -12 -11 -10
-9 10 3 22 0 25 -29 23 -36 -2 -42 7 -18 27 12 10 15 10 15 0 0 -8 2 -11 5 -8
3 3 3 12 -1 21 -5 13 -9 14 -25 4 -16 -10 -23 -8 -44 15 -14 15 -25 33 -25 40
0 9 -3 9 -12 0 -10 -10 -10 -15 2 -22 17 -10 8 -23 -18 -25 -26 -2 -43 -15
-36 -27 4 -7 2 -8 -4 -4 -6 4 -9 13 -6 20 3 7 -3 19 -12 27 -16 12 -17 12 -11
-3 3 -10 2 -18 -4 -18 -6 0 -13 9 -16 20 -6 24 -29 21 -25 -4 2 -9 -2 -16 -8
-16 -6 0 -8 5 -5 10 3 6 2 10 -2 10 -5 0 -9 12 -8 28 0 25 -4 27 -44 32 -25 3
-46 11 -49 18 -2 6 1 12 8 12 6 0 8 5 4 11 -4 8 -12 3 -20 -12 -7 -13 -13 -20
-14 -16 0 5 4 17 10 27 12 22 3 50 -16 50 -17 0 -18 -17 -2 -22 9 -3 8 -9 -4
-21 -14 -15 -17 -15 -28 -1 -11 12 -10 13 4 8 9 -3 16 -2 16 4 0 6 -6 12 -12
14 -9 3 -8 9 4 21 22 23 35 21 43 -4 6 -17 9 -19 16 -8 5 8 9 10 10 4 5 -54
16 -67 15 -17 -1 25 -5 38 -12 35 -6 -2 -19 3 -28 12 -9 9 -20 13 -26 10 -9
-6 -15 27 -12 68 1 9 -2 17 -7 17 -5 0 -7 -22 -4 -49 3 -33 0 -51 -8 -57 -9
-5 -10 -2 -6 9 3 10 2 17 -3 17 -5 0 -8 21 -7 46 2 27 -2 49 -10 55 -9 8 -11
5 -8 -14 3 -14 -1 -30 -10 -37 -12 -10 -15 -10 -15 4 0 9 4 16 9 16 5 0 7 8 4
19 -4 15 -15 18 -66 19 -34 1 -67 -4 -74 -10 -9 -7 -13 -7 -13 0 0 8 -410 11
-1385 12 l-1385 0 0 -5120z m2860 5100 c0 -5 -7 -10 -15 -10 -8 0 -15 5 -15
10 0 6 7 10 15 10 8 0 15 -4 15 -10z m4377 -16 c-3 -3 -12 -4 -19 -1 -8 3 -5
6 6 6 11 1 17 -2 13 -5z m-4347 -25 c0 -5 -7 -9 -15 -9 -15 0 -20 12 -9 23 8
8 24 -1 24 -14z m-80 1 c0 -5 -4 -10 -10 -10 -5 0 -10 5 -10 10 0 6 5 10 10
10 6 0 10 -4 10 -10z m7 -42 c-3 -8 -6 -5 -6 6 -1 11 2 17 5 13 3 -3 4 -12 1
-19z m87 -8 c-6 -6 -10 -3 -10 10 0 13 4 16 10 10 7 -7 7 -13 0 -20z m41 -18
c-3 -3 -5 0 -5 7 0 7 -4 10 -9 7 -5 -4 -7 4 -3 16 l5 22 9 -24 c5 -12 6 -25 3
-28z m4225 -12 c0 -5 -7 -10 -15 -10 -8 0 -15 5 -15 10 0 6 7 10 15 10 8 0 15
-4 15 -10z m-50 -14 c0 -3 -4 -8 -10 -11 -5 -3 -10 -1 -10 4 0 6 5 11 10 11 6
0 10 -2 10 -4z m-4085 -106 c3 -5 13 -7 23 -4 15 5 15 4 -1 -6 -13 -9 -21 -8
-33 4 -8 9 -11 16 -5 16 5 0 12 -4 16 -10z m275 -60 c0 -5 -2 -10 -4 -10 -2 0
-12 -3 -22 -7 -16 -6 -17 -5 -4 10 17 19 30 22 30 7z m-110 -22 c0 -4 -4 -8
-9 -8 -6 0 -12 4 -15 8 -3 5 1 9 9 9 8 0 15 -4 15 -9z m-12 -43 c-3 -3 -9 2
-12 12 -6 14 -5 15 5 6 7 -7 10 -15 7 -18z m162 -19 c0 -5 -7 -1 -15 10 -8 10
-14 24 -14 29 0 6 6 1 14 -9 8 -11 15 -24 15 -30z m3362 25 c8 12 9 12 6 0 -6
-22 -28 -25 -27 -4 0 12 2 14 6 4 5 -11 7 -11 15 0z m-81 -24 c-13 -13 -26 -3
-16 12 3 6 11 8 17 5 6 -4 6 -10 -1 -17z m-3221 -22 c0 -2 -14 -3 -31 -3 -17
1 -25 4 -18 8 10 7 49 2 49 -5z m-63 -47 c-3 -7 -5 -2 -5 12 0 14 2 19 5 13 2
-7 2 -19 0 -25z m138 -27 c-6 -5 -25 10 -25 20 0 5 6 4 14 -3 8 -7 12 -15 11
-17z m3120 19 c3 -5 1 -10 -4 -10 -6 0 -11 5 -11 10 0 6 2 10 4 10 3 0 8 -4
11 -10z m-3003 -101 c5 -3 -5 -6 -22 -7 -30 -1 -31 1 -16 17 9 9 13 27 11 41
-3 14 1 9 7 -10 6 -19 16 -38 20 -41z m83 40 c-4 -5 -12 -9 -20 -9 -7 0 -15
-3 -18 -7 -2 -5 -2 -2 0 6 2 9 -3 12 -18 8 -12 -3 -18 -2 -13 3 10 9 55 18 67
12 4 -2 5 -8 2 -13z m2655 -10 c12 -9 13 -12 1 -16 -11 -5 -11 -7 0 -15 11 -8
11 -9 -1 -5 -8 2 -14 10 -12 17 2 7 -3 17 -10 21 -7 5 -8 9 -3 9 6 0 17 -5 25
-11z m60 -29 c-14 -9 -40 -3 -40 9 0 16 14 20 33 10 15 -9 17 -13 7 -19z m115
0 c3 -6 -1 -7 -9 -4 -18 7 -21 14 -7 14 6 0 13 -4 16 -10z m-2732 -7 c-7 -2
-19 -2 -25 0 -7 3 -2 5 12 5 14 0 19 -2 13 -5z m2537 -33 c-24 -15 -36 -11
-14 4 10 8 21 12 24 10 2 -3 -2 -9 -10 -14z m-2700 0 c8 -5 11 -10 5 -10 -5 0
-17 5 -25 10 -8 5 -10 10 -5 10 6 0 17 -5 25 -10z m53 -33 c3 -8 -1 -14 -8
-14 -7 0 -11 6 -8 14 3 7 6 13 8 13 2 0 5 -6 8 -13z m137 -2 c0 -2 -6 -5 -13
-8 -8 -3 -14 1 -14 8 0 7 6 11 14 8 7 -3 13 -6 13 -8z m228 -7 c-10 -6 -10 -8
2 -8 11 -1 8 -6 -9 -20 -25 -22 -71 -27 -71 -9 0 7 10 9 25 7 15 -3 30 1 37
10 11 13 9 14 -12 9 -14 -4 -19 -4 -11 -1 9 5 10 8 2 14 -7 3 2 7 19 7 20 0
26 -3 18 -9z m-170 -5 c-10 -2 -26 -2 -35 0 -10 3 -2 5 17 5 19 0 27 -2 18 -5z
m232 -18 c0 -14 -4 -25 -9 -25 -4 0 -6 11 -3 25 2 14 6 25 8 25 2 0 4 -11 4
-25z m-38 -12 c-6 -3 -9 -10 -6 -15 4 -7 2 -8 -5 -4 -9 6 -9 11 0 22 6 8 15
12 18 8 3 -4 0 -9 -7 -11z m2100 -28 c4 -16 1 -22 -9 -18 -7 3 -13 14 -13 24
0 16 -8 19 -42 20 -35 1 -38 2 -18 8 36 11 77 -6 82 -34z m-2245 29 c-3 -3
-12 -4 -19 -1 -8 3 -5 6 6 6 11 1 17 -2 13 -5z m2283 1 c0 -2 -6 -8 -13 -14
-10 -8 -14 -7 -14 2 0 8 6 14 14 14 7 0 13 -1 13 -2z m70 -5 c0 -5 -15 -9 -32
-9 l-33 1 30 8 c17 4 31 8 33 9 1 0 2 -3 2 -9z m-2130 -20 c0 -5 -4 -10 -10
-10 -5 0 -10 5 -10 10 0 6 5 10 10 10 6 0 10 -4 10 -10z m1990 0 c0 -5 -7 -7
-15 -4 -8 4 -15 8 -15 10 0 2 7 4 15 4 8 0 15 -4 15 -10z m-2020 -20 c8 -5 11
-10 5 -10 -5 0 -17 5 -25 10 -8 5 -10 10 -5 10 6 0 17 -5 25 -10z m1957 -5 c0
-8 -4 -12 -9 -9 -5 3 -6 10 -3 15 9 13 12 11 12 -6z m-1663 -11 c18 -17 19
-24 8 -42 -10 -15 -42 -5 -42 13 0 7 -6 16 -12 18 -10 4 -9 8 2 16 20 14 26
14 44 -5z m1719 9 c-7 -2 -21 -2 -30 0 -10 3 -4 5 12 5 17 0 24 -2 18 -5z
m-2097 -18 c-3 -23 -12 -26 -13 -5 -1 11 2 20 7 20 4 0 7 -7 6 -15z m2064 -10
c0 -7 -30 -13 -34 -7 -3 4 4 9 15 9 10 1 19 0 19 -2z m-1880 -19 c0 -3 -4 -8
-10 -11 -5 -3 -10 -1 -10 4 0 6 5 11 10 11 6 0 10 -2 10 -4z m1379 -51 c0 -5
-4 -3 -9 5 -5 8 -9 22 -9 30 0 16 17 -16 18 -35z m-1139 25 c0 -5 -5 -10 -11
-10 -5 0 -7 5 -4 10 3 6 8 10 11 10 2 0 4 -4 4 -10z m417 4 c-3 -3 -12 -4 -19
-1 -8 3 -5 6 6 6 11 1 17 -2 13 -5z m351 -16 c3 -17 -23 -48 -40 -48 -6 0 -1
8 10 19 26 22 28 31 6 31 -8 0 -12 5 -9 11 9 14 29 6 33 -13z m212 12 c0 -5
-5 -10 -11 -10 -5 0 -7 -5 -3 -12 4 -7 3 -8 -4 -4 -6 4 -9 13 -5 21 6 17 23
20 23 5z m84 -6 c9 -24 7 -31 -5 -14 -8 11 -12 12 -16 2 -2 -6 -9 -10 -14 -7
-5 4 -3 12 4 20 16 19 24 18 31 -1z m-639 -14 c3 -5 1 -10 -4 -10 -6 0 -11 5
-11 10 0 6 2 10 4 10 3 0 8 -4 11 -10z m942 -12 c-3 -8 -6 -5 -6 6 -1 11 2 17
5 13 3 -3 4 -12 1 -19z m-667 -31 c0 -10 -4 -16 -10 -12 -5 3 -7 12 -3 20 3
10 -1 15 -13 15 -16 0 -16 2 -4 10 16 10 30 -4 30 -33z m-523 -22 c-15 -16
-22 -11 -13 10 3 9 10 13 16 10 6 -4 5 -11 -3 -20z m493 5 c0 -5 -9 -10 -21
-10 -11 0 -17 5 -14 10 3 6 13 10 21 10 8 0 14 -4 14 -10z m267 -22 c-3 -7 -5
-2 -5 12 0 14 2 19 5 13 2 -7 2 -19 0 -25z m-357 2 c0 -5 -5 -10 -11 -10 -5 0
-7 5 -4 10 3 6 8 10 11 10 2 0 4 -4 4 -10z m-369 -17 c13 -16 12 -17 -3 -4
-10 7 -18 15 -18 17 0 8 8 3 21 -13z m207 -10 c-10 -2 -26 -2 -35 0 -10 3 -2
5 17 5 19 0 27 -2 18 -5z m2534 -1640 c125 -47 237 -147 288 -254 54 -116 54
-87 41 -1584 -7 -759 -14 -1381 -16 -1383 -8 -8 -16 218 -23 678 l-7 495 -55
11 c-30 6 -74 14 -97 17 l-43 7 -2 -217 c-1 -120 -3 -202 -5 -183 -2 19 -7
460 -11 980 l-7 945 -28 57 c-33 67 -99 129 -165 155 -45 17 -139 18 -2052 21
-1267 2 -2035 -1 -2087 -7 -142 -17 -232 -79 -273 -187 -19 -52 -20 -76 -20
-452 0 -623 -12 -1552 -21 -1552 -4 0 -8 97 -8 216 0 119 -2 218 -4 220 -4 4
-151 -14 -178 -22 -14 -4 -16 -65 -22 -579 -3 -336 -9 -581 -15 -591 -11 -20
-19 497 -28 1856 -5 801 -4 914 10 980 42 200 192 350 391 390 22 4 1017 7
2210 6 l2170 -1 57 -22z m-3922 -758 l0 -145 -160 0 -160 0 0 138 c0 76 3 142
7 145 3 4 75 7 160 7 l153 0 0 -145z m760 -1180 c0 -1169 -2 -1335 -16 -1403
-32 -157 -105 -284 -229 -400 -140 -131 -339 -190 -545 -162 -97 13 -220 51
-262 81 l-28 20 0 155 c0 85 2 154 4 154 3 0 35 -7 73 -16 87 -20 254 -20 309
-1 102 37 181 99 229 182 57 96 55 49 55 1437 l0 1278 205 0 205 0 0 -1325z
m720 638 c1 -532 3 -683 12 -668 7 11 78 169 159 350 l148 330 79 3 79 3 56
-123 c30 -68 121 -278 202 -468 311 -729 395 -919 406 -926 5 -3 9 482 9 1090
l0 1096 195 0 195 0 0 -1276 c0 -1160 -1 -1276 -16 -1270 -9 3 -161 6 -339 6
l-322 0 -130 303 c-72 166 -175 407 -229 535 -55 127 -102 232 -105 232 -6 0
-8 -3 -152 -330 -52 -118 -115 -260 -139 -315 -25 -55 -65 -145 -88 -200 -23
-55 -58 -131 -77 -168 l-34 -68 -152 3 -152 3 -3 1273 -2 1272 200 0 200 0 0
-687z m824 380 c-4 -170 -7 -309 -8 -310 -1 -1 -33 71 -72 160 l-71 162 -172
3 -171 2 0 145 0 145 250 0 250 0 -6 -307z m1362 291 c-3 -9 -6 -74 -6 -145
l0 -129 -155 0 -155 0 0 145 0 145 161 0 c143 0 160 -2 155 -16z m-3666 -1191
c0 -289 -2 -524 -5 -521 -3 2 -6 230 -7 506 l-3 502 -142 0 -143 0 -1 -267
c-1 -148 -3 -257 -5 -243 -2 14 -5 143 -6 288 l-3 262 158 0 157 0 0 -527z
m3658 85 l-2 -443 -7 375 c-3 206 -7 396 -8 423 l-1 47 -135 0 -135 0 0 -132
c0 -72 -2 -129 -4 -127 -7 7 -15 287 -8 293 3 3 72 6 154 6 l148 0 -2 -442z
m-1731 -1254 c-2 -2 -12 14 -22 36 -10 22 -24 40 -32 40 -15 0 -15 2 -6 26 5
13 13 3 35 -41 16 -31 27 -59 25 -61z m1737 100 c3 -9 6 -227 6 -485 l0 -469
-590 0 -589 0 -74 148 -74 147 -642 -2 c-352 -1 -641 0 -641 2 0 30 9 31 483
27 259 -1 717 1 1017 5 l545 8 56 26 c71 33 124 87 158 158 25 54 26 65 29
254 l4 197 153 0 c130 0 154 -2 159 -16z m-2722 -1826 c64 -123 126 -194 205
-233 l58 -30 463 -3 463 -3 59 25 c33 13 77 39 99 57 49 43 125 157 154 232
l22 57 1028 0 1029 0 -7 -32 c-19 -88 -60 -126 -175 -164 -51 -17 -115 -19
-990 -22 l-934 -3 -67 -64 c-70 -68 -133 -102 -209 -113 -25 -4 -248 -7 -495
-7 l-450 0 -67 33 c-44 22 -84 52 -122 92 l-55 60 -924 0 c-625 0 -942 4 -982
11 -105 19 -184 74 -204 139 -7 23 -15 48 -18 56 -4 12 148 14 1030 14 l1036
0 53 -102z"/>
<path d="M4370 9484 c0 -10 31 -36 37 -31 3 3 -2 13 -10 22 -16 15 -27 19 -27
9z"/>
<path d="M7113 10233 c-18 -2 -33 -8 -33 -14 0 -15 50 -10 66 6 9 8 12 14 7
13 -4 0 -23 -3 -40 -5z"/>
<path d="M3038 10153 c6 -2 10 -9 7 -13 -3 -5 0 -12 6 -16 8 -5 9 -3 4 6 -5 9
-1 10 16 6 24 -7 24 -7 -1 8 -14 9 -29 15 -35 15 -5 0 -4 -3 3 -6z"/>
<path d="M6975 10150 c3 -5 11 -10 16 -10 6 0 7 5 4 10 -3 6 -11 10 -16 10 -6
0 -7 -4 -4 -10z"/>
<path d="M3110 10135 c0 -8 4 -15 8 -15 5 0 9 7 9 15 0 8 -4 15 -9 15 -4 0 -8
-7 -8 -15z"/>
<path d="M6980 10110 c0 -5 5 -10 11 -10 5 0 7 5 4 10 -3 6 -8 10 -11 10 -2 0
-4 -4 -4 -10z"/>
<path d="M7012 10100 c0 -14 2 -19 5 -12 2 6 2 18 0 25 -3 6 -5 1 -5 -13z"/>
<path d="M3086 10085 c4 -8 8 -15 10 -15 2 0 4 7 4 15 0 8 -4 15 -10 15 -5 0
-7 -7 -4 -15z"/>
<path d="M3110 10091 c0 -6 5 -13 10 -16 6 -3 10 1 10 9 0 9 -4 16 -10 16 -5
0 -10 -4 -10 -9z"/>
<path d="M6976 10073 c10 -7 22 -13 26 -13 5 0 3 6 -4 13 -7 8 -19 14 -26 14
-11 0 -10 -4 4 -14z"/>
<path d="M3150 10062 c0 -5 7 -13 16 -16 10 -4 14 -1 12 6 -5 15 -28 23 -28
10z"/>
<path d="M6858 10053 c7 -3 16 -2 19 1 4 3 -2 6 -13 5 -11 0 -14 -3 -6 -6z"/>
<path d="M3080 10044 c0 -6 27 -34 33 -34 3 0 7 9 10 20 4 16 0 20 -19 20 -13
0 -24 -3 -24 -6z"/>
<path d="M6751 10027 c-8 -10 -7 -14 2 -14 8 0 14 6 14 14 0 7 -1 13 -2 13 -2
0 -8 -6 -14 -13z"/>
<path d="M6810 10020 c0 -5 5 -10 10 -10 6 0 10 5 10 10 0 6 -4 10 -10 10 -5
0 -10 -4 -10 -10z"/>
<path d="M6795 9990 c3 -5 11 -10 16 -10 6 0 7 5 4 10 -3 6 -11 10 -16 10 -6
0 -7 -4 -4 -10z"/>
<path d="M3203 9974 c-8 -4 -5 -12 8 -25 20 -20 39 -18 39 6 0 10 -25 28 -33
24 -1 0 -7 -3 -14 -5z m27 -14 c0 -5 -2 -10 -4 -10 -3 0 -8 5 -11 10 -3 6 -1
10 4 10 6 0 11 -4 11 -10z"/>
<path d="M6580 9900 c-8 -5 -10 -10 -5 -10 6 0 17 5 25 10 8 5 11 10 5 10 -5
0 -17 -5 -25 -10z"/>
<path d="M3483 9823 c9 -2 25 -2 35 0 9 3 1 5 -18 5 -19 0 -27 -2 -17 -5z"/>
<path d="M6457 9807 c3 -15 9 -27 14 -27 13 0 11 13 -5 35 -13 18 -14 18 -9
-8z"/>
<path d="M3610 9796 c0 -2 8 -10 18 -17 15 -13 16 -12 3 4 -13 16 -21 21 -21
13z"/>
<path d="M6467 9763 c-4 -3 -7 -11 -7 -17 0 -6 5 -5 12 2 6 6 9 14 7 17 -3 3
-9 2 -12 -2z"/>
<path d="M3770 9750 c-12 -8 -10 -10 8 -10 13 0 20 4 17 10 -7 12 -6 12 -25 0z"/>
<path d="M3740 9715 c-10 -12 -10 -15 4 -15 9 0 16 7 16 15 0 8 -2 15 -4 15
-2 0 -9 -7 -16 -15z"/>
<path d="M3900 9660 c-9 -6 -10 -10 -3 -10 6 0 15 5 18 10 8 12 4 12 -15 0z"/>
<path d="M3950 9666 c0 -2 7 -7 16 -10 8 -3 12 -2 9 4 -6 10 -25 14 -25 6z"/>
<path d="M6180 9641 c0 -6 -8 -7 -17 -4 -15 6 -16 5 -3 -9 8 -9 16 -12 18 -7
4 11 32 -15 32 -30 0 -6 5 -11 10 -11 17 0 11 20 -15 46 -14 14 -25 20 -25 15z"/>
<path d="M6250 9640 c0 -5 5 -10 10 -10 6 0 10 5 10 10 0 6 -4 10 -10 10 -5 0
-10 -4 -10 -10z"/>
<path d="M4380 9609 c0 -5 5 -7 10 -4 6 3 10 8 10 11 0 2 -4 4 -10 4 -5 0 -10
-5 -10 -11z"/>
<path d="M6041 9604 c0 -11 3 -14 6 -6 3 7 2 16 -1 19 -3 4 -6 -2 -5 -13z"/>
<path d="M5937 9551 c2 -9 -2 -11 -13 -7 -21 8 -54 -2 -54 -16 0 -6 6 -6 15 2
10 8 19 9 28 3 6 -6 20 -9 30 -7 22 3 36 14 18 14 -7 0 -9 5 -5 12 4 6 3 8 -4
4 -5 -3 -12 -3 -15 1 -2 5 -2 2 0 -6z"/>
<path d="M4350 9550 c0 -7 -7 -10 -16 -6 -8 3 -12 2 -9 -3 3 -5 -6 -11 -20
-13 -19 -2 -22 -6 -15 -18 7 -10 12 -12 18 -4 11 17 51 36 62 29 5 -3 12 0 16
7 4 7 4 10 -1 6 -4 -4 -14 -3 -22 3 -10 9 -13 8 -13 -1z"/>
<path d="M5811 9555 c1 -19 18 -51 18 -35 0 8 -4 22 -9 30 -5 8 -9 11 -9 5z"/>
<path d="M5766 9542 c-2 -4 4 -8 14 -8 10 0 16 4 14 8 -3 4 -9 8 -14 8 -5 0
-11 -4 -14 -8z"/>
<path d="M4950 9520 c0 -5 5 -10 10 -10 6 0 10 5 10 10 0 6 -4 10 -10 10 -5 0
-10 -4 -10 -10z"/>
<path d="M5844 9518 c3 -10 1 -18 -5 -18 -17 0 14 -26 33 -27 12 -1 18 5 18
18 0 22 -10 24 -29 7 -8 -7 -11 -8 -8 -3 3 6 1 17 -5 25 -8 12 -9 12 -4 -2z"/>
<path d="M4990 9506 l-25 -14 26 1 c14 1 26 8 26 15 0 6 -1 12 -1 12 -1 -1
-12 -7 -26 -14z"/>
<path d="M5114 9504 c3 -8 1 -14 -4 -14 -6 0 -10 -4 -10 -10 0 -18 18 -10 25
10 4 12 11 17 18 14 7 -4 8 -3 4 1 -14 15 -39 15 -33 -1z"/>
<path d="M5460 9490 c-7 -17 -10 -33 -7 -37 4 -3 9 3 12 13 4 10 11 27 16 37
5 9 5 17 0 17 -5 0 -14 -14 -21 -30z"/>
<path d="M5683 9513 c9 -2 23 -2 30 0 6 3 -1 5 -18 5 -16 0 -22 -2 -12 -5z"/>
<path d="M5747 9508 c2 -5 13 -6 24 -3 10 4 19 2 19 -3 0 -6 -5 -12 -12 -14
-13 -5 -2 -28 13 -28 6 0 7 5 4 10 -4 6 -1 17 5 25 13 16 12 17 -32 19 -15 1
-24 -2 -21 -6z"/>
<path d="M4925 9501 c-3 -5 -1 -12 5 -16 5 -3 10 1 10 9 0 18 -6 21 -15 7z"/>
<path d="M5526 9498 c3 -5 10 -6 15 -3 13 9 11 12 -6 12 -8 0 -12 -4 -9 -9z"/>
<path d="M4766 9488 c3 -5 10 -6 15 -3 13 9 11 12 -6 12 -8 0 -12 -4 -9 -9z"/>
<path d="M4282 9470 c12 -19 28 -27 28 -14 0 7 -27 34 -34 34 -4 0 -1 -9 6
-20z"/>
<path d="M4454 9479 c-3 -6 -2 -15 3 -20 5 -5 9 -1 10 11 2 22 -2 25 -13 9z"/>
<path d="M4488 9473 c-9 -11 -9 -14 -1 -9 7 4 21 2 31 -3 13 -7 22 -7 30 1 16
16 15 25 -2 25 -8 0 -12 -6 -9 -14 7 -17 -2 -17 -20 2 -13 13 -17 12 -29 -2z"/>
<path d="M4571 9474 c0 -11 3 -14 6 -6 3 7 2 16 -1 19 -3 4 -6 -2 -5 -13z"/>
<path d="M4950 9480 c0 -5 5 -10 11 -10 5 0 7 5 4 10 -3 6 -8 10 -11 10 -2 0
-4 -4 -4 -10z"/>
<path d="M5505 9480 c-3 -5 1 -10 10 -10 9 0 13 5 10 10 -3 6 -8 10 -10 10 -2
0 -7 -4 -10 -10z"/>
<path d="M5686 9475 c-3 -10 1 -15 13 -15 10 0 21 7 25 15 3 10 -1 15 -13 15
-10 0 -21 -7 -25 -15z"/>
</g>
</svg>
