<svg width="86" height="151" viewBox="0 0 86 151" fill="none" xmlns="http://www.w3.org/2000/svg">
<path d="M34.0176 115.115C29.0249 113.693 24.634 111.076 20.8004 107.421C19.5968 107.849 18.3709 108.278 17.1227 108.684C16.5432 108.865 15.9637 108.797 15.3619 108.571C14.292 108.165 13.6456 107.375 13.1776 106.405C12.5312 105.119 11.7065 103.946 11.0601 102.66C10.4806 101.464 9.63366 100.426 9.14331 99.185C8.89813 98.5758 8.25176 98.1697 8.25176 97.4025C7.67225 96.4549 8.22947 95.62 8.5638 94.7852C8.65296 94.5596 8.7644 94.2662 8.965 94.176C9.7674 93.815 10.1686 93.0027 10.8373 92.5063C11.1493 92.2807 11.4836 92.0325 11.8403 91.7617C11.3276 89.167 10.8818 86.5722 10.8818 83.9097C10.8818 81.2699 11.3499 78.7202 11.8403 76.1931C10.971 75.3809 10.1686 74.5912 9.32162 73.8466C8.45236 73.0794 7.93972 72.1318 8.05116 71.139C8.11803 70.5975 8.27405 70.0108 8.54151 69.5596C9.3662 68.2283 10.124 66.8294 10.9264 65.4756C11.5728 64.3926 12.13 63.2644 12.8433 62.204C13.2222 61.6625 13.4451 61.0307 13.824 60.4666C14.5595 59.4061 16.0306 58.8872 17.2341 59.2482C18.304 59.5641 19.307 60.0379 20.3992 60.241C20.5106 60.2635 20.5998 60.4215 20.7112 60.5343C24.5672 56.9016 28.9581 54.3069 33.9953 52.7951C34.1959 52.1859 34.2405 51.5316 34.4857 50.8998C34.664 50.426 34.6194 49.8394 34.7086 49.3204C34.9537 47.9666 35.7784 47.1769 36.9597 46.7708C37.3832 46.6354 37.8067 46.5 38.3194 46.5C41.4398 46.5451 44.5602 46.5451 47.6807 46.5C48.5722 46.5 49.33 46.861 50.0433 47.2671C50.6896 47.6056 51.0463 48.3276 51.2246 49.0045C51.5366 50.2455 51.7149 51.509 51.9601 52.8177C56.9751 54.2617 61.366 56.8565 65.1997 60.5117C66.4032 60.083 67.6291 59.6543 68.8773 59.2482C69.4568 59.0677 70.0363 59.1354 70.6381 59.361C71.708 59.7671 72.3544 60.5569 72.8224 61.5271C73.4688 62.8132 74.2935 63.9865 74.9399 65.2726C75.5194 66.4684 76.3663 67.5063 76.8567 68.7473C77.1019 69.3565 77.7482 69.7626 77.7482 70.5298C78.3278 71.4774 77.7705 72.3123 77.4362 73.1471C77.347 73.3727 77.2356 73.6661 77.035 73.7563C76.2326 74.1173 75.8314 74.9296 75.1627 75.426C74.8507 75.6516 74.5164 75.8998 74.1597 76.1706C74.6724 78.7653 75.1182 81.3601 75.1182 84.0226C75.1182 86.6625 74.717 89.2121 74.1597 91.7392C75.029 92.5514 75.8314 93.3412 76.6784 94.0857C77.5476 94.8529 78.0603 95.8005 77.9488 96.7933C77.882 97.3348 77.7482 97.9215 77.4585 98.3727C76.6561 99.6814 75.8983 101.035 75.1182 102.366C74.1375 104.014 73.3351 105.796 72.1983 107.353C71.9977 108.21 71.1953 108.278 70.6158 108.594C69.9917 108.932 69.3677 108.842 68.6767 108.639C67.6514 108.346 66.6707 107.827 65.6008 107.691C65.4894 107.669 65.4002 107.511 65.2888 107.398C61.4328 111.076 57.0642 113.693 51.9601 115.16C51.7149 116.378 51.492 117.642 51.2246 118.883C50.9571 120.101 50.1547 120.868 49.018 121.229C48.5945 121.365 48.1487 121.5 47.6584 121.5C44.5379 121.455 41.4175 121.455 38.2971 121.5C37.4055 121.5 36.6477 121.139 35.9345 120.733C35.2881 120.394 34.9092 119.672 34.7754 118.995C34.5303 117.664 34.2851 116.423 34.0176 115.115ZM35.4664 95.2365C35.9122 94.9883 36.4248 94.8303 36.4471 94.2888C36.4917 93.4765 36.6031 92.6417 36.4248 91.8745C36.1128 90.5659 35.5555 89.3023 35.2212 87.9937C34.9983 87.1588 34.508 86.3691 34.5303 85.4666C33.817 83.6841 33.3712 81.8114 32.7694 80.0063C32.2791 78.5171 31.9225 76.9829 31.3875 75.5162C31.0978 74.704 31.0309 73.8014 30.496 73.0794C30.4514 73.0117 30.4291 72.9666 30.4291 72.9666C29.8273 72.5605 29.2032 72.6958 28.6683 72.6958C28.3563 72.9892 28.0888 73.2374 27.8436 73.463C27.8213 74.185 27.3087 74.7491 27.3978 75.4486C26.6177 77.2085 26.2834 79.1038 25.637 80.9088C25.3027 81.8339 25.1021 82.7816 24.8346 83.7292C24.5895 84.6769 24.0545 85.5343 24.0545 86.5496C23.2075 88.4675 22.7841 90.5208 22.16 92.5289C22.0039 93.0253 21.9148 93.4991 22.2268 93.9729C22.316 94.1083 22.2714 94.3114 22.2714 94.2888C22.628 94.6724 22.8955 94.9431 23.1184 95.2139C23.5419 95.2139 23.9877 95.2139 24.4557 95.2139C24.7678 94.8078 25.0798 94.4242 25.3696 94.0406C25.3027 92.7545 25.5702 91.8971 26.1497 90.5208C28.334 90.5208 30.5183 90.5208 32.7026 90.5208C32.8809 91.2428 32.97 91.9422 33.2152 92.5966C33.3267 92.8673 33.4381 93.1381 33.3935 93.4088C33.3267 94.2437 33.5941 94.898 34.5303 95.2139C34.7531 95.2365 35.0875 95.2365 35.4664 95.2365ZM40.682 95.2365C41.2838 95.1913 41.9747 95.3718 42.4651 94.8755C42.6434 94.6498 42.7994 94.4242 43.0223 94.1083C43.0223 91.852 43.0223 89.4829 43.0223 87.1137C44.6494 87.1137 46.2542 87.046 47.8367 87.1363C48.7951 87.1814 49.5752 86.8881 50.333 86.4143C50.6896 86.1886 51.0017 85.8502 51.3137 85.5343C52.1384 84.722 52.5396 83.7292 52.5619 82.556C52.5619 80.7058 52.5619 78.8782 52.5619 77.028C52.5619 76.7572 52.495 76.4639 52.4282 76.1931C52.183 75.2229 51.6703 74.5009 50.9794 73.8691C50.177 73.1245 49.2409 72.6733 48.1264 72.6733C45.6301 72.6733 43.156 72.6733 40.6374 72.6733C40.3922 72.944 40.147 73.2148 39.8573 73.4856C39.8573 80.435 39.8573 87.4296 39.8573 94.4468C40.147 94.6949 40.4145 94.9657 40.682 95.2365ZM56.7299 95.2365C58.2678 95.2365 59.828 95.2365 61.366 95.2365C61.6334 94.9657 61.9009 94.6949 62.1684 94.4468C62.1684 94.0181 62.1684 93.6119 62.1684 93.1832C62.1684 93.1381 62.1684 93.1155 62.1684 93.093C61.834 92.4612 61.3214 92.0776 60.6527 92.0099C60.6527 86.6173 60.6527 81.2473 60.6527 75.9901C61.1431 75.7419 61.5666 75.5162 62.0569 75.2455C62.1238 74.6588 62.1684 74.0496 62.213 73.6209C61.8563 73.2148 61.6112 72.9215 61.4106 72.6958C59.8058 72.6958 58.2455 72.6958 56.8636 72.6958C56.4847 73.0343 56.2173 73.2825 55.8829 73.5984C55.9498 74.1399 56.039 74.7491 56.1058 75.2681C56.6407 75.5388 57.0642 75.7644 57.4431 75.9675C57.4431 81.3375 57.4431 86.7076 57.4431 92.0325C57.2203 92.0776 56.9751 92.0325 56.8859 92.1453C56.5739 92.4612 56.039 92.5514 55.9275 93.0704C55.9275 93.5217 55.9275 93.9729 55.9275 94.4242C56.195 94.6949 56.4624 94.9657 56.7299 95.2365Z" fill="white"/>
<path d="M31.5213 87.0683C30.2063 87.1134 28.8243 87.136 27.4424 87.1811C27.3979 87.1811 27.331 87.2714 27.1973 87.3842C27.2196 85.9853 27.9997 84.8571 28.0888 83.571C28.7575 82.4428 28.8243 81.1116 29.2701 79.8481C29.4039 79.9835 29.6045 80.1188 29.6045 80.2317C29.6267 81.2019 30.184 82.0367 30.3623 82.9618C30.496 83.5936 30.8526 84.2028 30.9418 84.8345C31.0309 85.6468 31.5659 86.256 31.5213 87.0683Z" fill="white"/>
<path d="M49.4641 82.6917C49.3081 82.9399 49.1743 83.1881 48.996 83.4138C48.684 83.7748 48.2828 83.9778 47.7701 83.9553C46.2099 83.9327 44.6497 83.9553 43.0449 83.9553C43.0449 81.2703 43.0449 78.5852 43.0449 75.8325C44.672 75.8325 46.3437 75.81 47.993 75.8325C48.7731 75.8551 49.4418 76.6674 49.4641 77.5248C49.4641 78.9463 49.4641 80.3677 49.4641 81.7892C49.4641 82.1051 49.4641 82.3984 49.4641 82.6917Z" fill="white"/>
<path d="M10.824 146.5V135.3H15.016C15.9653 135.3 16.7813 135.455 17.464 135.764C18.1467 136.063 18.6693 136.5 19.032 137.076C19.4053 137.641 19.592 138.329 19.592 139.14C19.592 139.929 19.4053 140.612 19.032 141.188C18.6693 141.753 18.1467 142.191 17.464 142.5C16.7813 142.799 15.9653 142.948 15.016 142.948H11.48L12.008 142.404V146.5H10.824ZM18.472 146.5L15.592 142.436H16.872L19.768 146.5H18.472ZM12.008 142.5L11.48 141.94H14.984C16.104 141.94 16.952 141.695 17.528 141.204C18.1147 140.713 18.408 140.025 18.408 139.14C18.408 138.244 18.1147 137.551 17.528 137.06C16.952 136.569 16.104 136.324 14.984 136.324H11.48L12.008 135.764V142.5ZM25.7145 146.58C24.8398 146.58 24.0718 146.399 23.4105 146.036C22.7492 145.663 22.2318 145.156 21.8585 144.516C21.4852 143.865 21.2985 143.124 21.2985 142.292C21.2985 141.46 21.4745 140.724 21.8265 140.084C22.1892 139.444 22.6798 138.943 23.2985 138.58C23.9278 138.207 24.6318 138.02 25.4105 138.02C26.1998 138.02 26.8985 138.201 27.5065 138.564C28.1252 138.916 28.6105 139.417 28.9625 140.068C29.3145 140.708 29.4905 141.449 29.4905 142.292C29.4905 142.345 29.4852 142.404 29.4745 142.468C29.4745 142.521 29.4745 142.58 29.4745 142.644H22.1625V141.796H28.8665L28.4185 142.132C28.4185 141.524 28.2852 140.985 28.0185 140.516C27.7625 140.036 27.4105 139.663 26.9625 139.396C26.5145 139.129 25.9972 138.996 25.4105 138.996C24.8345 138.996 24.3172 139.129 23.8585 139.396C23.3998 139.663 23.0425 140.036 22.7865 140.516C22.5305 140.996 22.4025 141.545 22.4025 142.164V142.34C22.4025 142.98 22.5412 143.545 22.8185 144.036C23.1065 144.516 23.5012 144.895 24.0025 145.172C24.5145 145.439 25.0958 145.572 25.7465 145.572C26.2585 145.572 26.7332 145.481 27.1705 145.3C27.6185 145.119 28.0025 144.841 28.3225 144.468L28.9625 145.204C28.5892 145.652 28.1198 145.993 27.5545 146.228C26.9998 146.463 26.3865 146.58 25.7145 146.58ZM34.0588 146.58C33.3654 146.58 32.7094 146.484 32.0908 146.292C31.4721 146.089 30.9868 145.839 30.6348 145.54L31.1468 144.644C31.4881 144.9 31.9254 145.124 32.4588 145.316C32.9921 145.497 33.5521 145.588 34.1388 145.588C34.9388 145.588 35.5148 145.465 35.8668 145.22C36.2188 144.964 36.3948 144.628 36.3948 144.212C36.3948 143.903 36.2934 143.663 36.0908 143.492C35.8988 143.311 35.6428 143.177 35.3228 143.092C35.0028 142.996 34.6454 142.916 34.2508 142.852C33.8561 142.788 33.4614 142.713 33.0668 142.628C32.6828 142.543 32.3308 142.42 32.0108 142.26C31.6908 142.089 31.4294 141.86 31.2268 141.572C31.0348 141.284 30.9388 140.9 30.9388 140.42C30.9388 139.961 31.0668 139.551 31.3228 139.188C31.5788 138.825 31.9521 138.543 32.4428 138.34C32.9441 138.127 33.5521 138.02 34.2668 138.02C34.8108 138.02 35.3548 138.095 35.8988 138.244C36.4428 138.383 36.8908 138.569 37.2428 138.804L36.7468 139.716C36.3734 139.46 35.9734 139.279 35.5468 139.172C35.1201 139.055 34.6934 138.996 34.2668 138.996C33.5094 138.996 32.9494 139.129 32.5868 139.396C32.2348 139.652 32.0588 139.983 32.0588 140.388C32.0588 140.708 32.1548 140.959 32.3468 141.14C32.5494 141.321 32.8108 141.465 33.1308 141.572C33.4614 141.668 33.8188 141.748 34.2028 141.812C34.5974 141.876 34.9868 141.956 35.3708 142.052C35.7654 142.137 36.1228 142.26 36.4428 142.42C36.7734 142.569 37.0348 142.788 37.2268 143.076C37.4294 143.353 37.5308 143.721 37.5308 144.18C37.5308 144.671 37.3921 145.097 37.1148 145.46C36.8481 145.812 36.4534 146.089 35.9308 146.292C35.4188 146.484 34.7948 146.58 34.0588 146.58ZM42.2713 146.58C41.4819 146.58 40.8739 146.367 40.4473 145.94C40.0206 145.513 39.8073 144.911 39.8073 144.132V136.244H40.9433V144.068C40.9433 144.559 41.0659 144.937 41.3113 145.204C41.5673 145.471 41.9299 145.604 42.3993 145.604C42.9006 145.604 43.3166 145.46 43.6473 145.172L44.0473 145.988C43.8233 146.191 43.5513 146.34 43.2313 146.436C42.9219 146.532 42.6019 146.58 42.2713 146.58ZM38.3033 139.044V138.1H43.5033V139.044H38.3033ZM45.335 142.66V141.668H49.527V142.66H45.335ZM50.282 146.5L55.402 135.3H56.57L61.69 146.5H60.442L55.738 135.988H56.218L51.514 146.5H50.282ZM52.298 143.508L52.65 142.548H59.162L59.514 143.508H52.298ZM67.6388 146.58C66.9134 146.58 66.2574 146.415 65.6708 146.084C65.0841 145.743 64.6148 145.257 64.2628 144.628C63.9214 143.988 63.7508 143.209 63.7508 142.292C63.7508 141.375 63.9214 140.601 64.2628 139.972C64.6041 139.332 65.0681 138.847 65.6548 138.516C66.2414 138.185 66.9028 138.02 67.6388 138.02C68.4388 138.02 69.1534 138.201 69.7828 138.564C70.4228 138.916 70.9241 139.417 71.2868 140.068C71.6494 140.708 71.8308 141.449 71.8308 142.292C71.8308 143.145 71.6494 143.892 71.2868 144.532C70.9241 145.172 70.4228 145.673 69.7828 146.036C69.1534 146.399 68.4388 146.58 67.6388 146.58ZM63.3028 149.604V138.1H64.3908V140.628L64.2788 142.308L64.4388 144.004V149.604H63.3028ZM67.5588 145.572C68.1561 145.572 68.6894 145.439 69.1588 145.172C69.6281 144.895 70.0014 144.511 70.2788 144.02C70.5561 143.519 70.6948 142.943 70.6948 142.292C70.6948 141.641 70.5561 141.071 70.2788 140.58C70.0014 140.089 69.6281 139.705 69.1588 139.428C68.6894 139.151 68.1561 139.012 67.5588 139.012C66.9614 139.012 66.4228 139.151 65.9427 139.428C65.4734 139.705 65.1001 140.089 64.8228 140.58C64.5561 141.071 64.4228 141.641 64.4228 142.292C64.4228 142.943 64.5561 143.519 64.8228 144.02C65.1001 144.511 65.4734 144.895 65.9427 145.172C66.4228 145.439 66.9614 145.572 67.5588 145.572ZM74.1465 146.5V138.1H75.2825V146.5H74.1465ZM74.7225 136.244C74.4878 136.244 74.2905 136.164 74.1305 136.004C73.9705 135.844 73.8905 135.652 73.8905 135.428C73.8905 135.204 73.9705 135.017 74.1305 134.868C74.2905 134.708 74.4878 134.628 74.7225 134.628C74.9572 134.628 75.1545 134.703 75.3145 134.852C75.4745 135.001 75.5545 135.188 75.5545 135.412C75.5545 135.647 75.4745 135.844 75.3145 136.004C75.1652 136.164 74.9678 136.244 74.7225 136.244Z" fill="white"/>
</svg>
