<svg width="86" height="151" viewBox="0 0 86 151" fill="none" xmlns="http://www.w3.org/2000/svg">
<path d="M8.00621 46.5132C8.00621 46.804 7.99223 47.0022 8.00621 47.2004C8.53742 52.6982 9.06863 58.1959 9.58586 63.7069C10.3128 71.5041 11.0257 79.3014 11.7526 87.0855C12.5774 95.8343 13.4162 104.57 14.213 113.319C14.2689 113.953 14.5065 114.231 15.1356 114.389C24.0823 116.715 33.001 119.054 41.9477 121.367C42.5488 121.526 43.2757 121.552 43.8768 121.393C52.8514 119.067 61.8121 116.702 70.7867 114.363C71.4717 114.178 71.7094 113.887 71.7653 113.226C72.0449 109.922 72.3804 106.605 72.6879 103.301C73.2051 97.8298 73.7084 92.3585 74.2256 86.8872C74.8267 80.4644 75.4418 74.0548 76.0429 67.6319C76.4902 62.8478 76.9655 58.077 77.4129 53.2929C77.6226 51.0462 77.8043 48.7995 78 46.5H8.00621V46.5132ZM64.4961 65.5967C64.0348 70.4337 63.5735 75.2838 63.1122 80.1208C62.581 85.6846 62.0497 91.2484 61.5185 96.799C61.3648 98.3981 61.1411 99.9972 61.0992 101.61C61.0712 102.469 60.6798 102.693 59.9249 102.891C54.5289 104.266 49.147 105.68 43.765 107.081C43.5273 107.147 43.3037 107.226 43.066 107.292C42.9821 107.253 42.8983 107.226 42.8004 107.187C37.041 105.706 31.2816 104.213 25.5221 102.706C25.2845 102.64 24.9769 102.284 24.949 102.032C24.5436 97.9091 24.1801 93.7858 23.7887 89.5832H32.5816C32.7354 91.2352 32.9031 92.9136 33.0429 94.6052C33.1687 96.1647 33.1548 96.1647 34.7065 96.5611C37.4883 97.2616 40.2842 97.9488 43.066 98.636L43.0381 98.5699C46.0855 97.8034 49.133 97.0501 52.1804 96.2307C52.46 96.1514 52.7815 95.7285 52.8235 95.4378C53.0052 94.1691 53.1031 92.8872 53.2149 91.6185C53.3966 89.57 53.5784 87.5216 53.7741 85.3806H43.0381L43.066 85.3278C42.9961 85.3278 42.9122 85.3278 42.8423 85.3278H23.3833C23.1177 82.5921 22.8661 79.8829 22.6005 77.0944H42.8563C42.9262 77.0944 43.0101 77.0944 43.08 77.0944L43.052 77.0415H54.5569C54.8225 74.2001 55.0881 71.4248 55.3537 68.5967H43.0381L43.066 68.5438C42.9961 68.5438 42.9122 68.5438 42.8423 68.5438C35.9506 68.557 29.0589 68.557 22.1671 68.5702C22.0693 68.5702 21.9714 68.5306 21.7897 68.4777C21.5381 65.7817 21.2725 63.0857 21.0208 60.3104H42.8423C42.9122 60.3104 42.9961 60.3104 43.066 60.3104L43.0381 60.2576H64.9574C64.8036 62.1078 64.6499 63.8522 64.4961 65.5967Z" fill="white"/>
<path d="M33.688 146.596C32.8453 146.596 32.0667 146.457 31.352 146.18C30.6373 145.892 30.0187 145.492 29.496 144.98C28.9733 144.468 28.5627 143.865 28.264 143.172C27.976 142.479 27.832 141.721 27.832 140.9C27.832 140.079 27.976 139.321 28.264 138.628C28.5627 137.935 28.9733 137.332 29.496 136.82C30.0293 136.308 30.6533 135.913 31.368 135.636C32.0827 135.348 32.8613 135.204 33.704 135.204C34.5147 135.204 35.2773 135.343 35.992 135.62C36.7067 135.887 37.3093 136.292 37.8 136.836L37.048 137.588C36.5893 137.119 36.0827 136.783 35.528 136.58C34.9733 136.367 34.376 136.26 33.736 136.26C33.064 136.26 32.44 136.377 31.864 136.612C31.288 136.836 30.7867 137.161 30.36 137.588C29.9333 138.004 29.5973 138.495 29.352 139.06C29.1173 139.615 29 140.228 29 140.9C29 141.572 29.1173 142.191 29.352 142.756C29.5973 143.311 29.9333 143.801 30.36 144.228C30.7867 144.644 31.288 144.969 31.864 145.204C32.44 145.428 33.064 145.54 33.736 145.54C34.376 145.54 34.9733 145.433 35.528 145.22C36.0827 145.007 36.5893 144.665 37.048 144.196L37.8 144.948C37.3093 145.492 36.7067 145.903 35.992 146.18C35.2773 146.457 34.5093 146.596 33.688 146.596ZM43.3808 146.596C42.5488 146.596 41.7488 146.463 40.9808 146.196C40.2234 145.919 39.6368 145.567 39.2208 145.14L39.6848 144.228C40.0794 144.612 40.6074 144.937 41.2688 145.204C41.9408 145.46 42.6448 145.588 43.3808 145.588C44.0848 145.588 44.6554 145.503 45.0928 145.332C45.5408 145.151 45.8661 144.911 46.0688 144.612C46.2821 144.313 46.3888 143.983 46.3888 143.62C46.3888 143.183 46.2608 142.831 46.0048 142.564C45.7594 142.297 45.4341 142.089 45.0288 141.94C44.6234 141.78 44.1754 141.641 43.6848 141.524C43.1941 141.407 42.7034 141.284 42.2128 141.156C41.7221 141.017 41.2688 140.836 40.8528 140.612C40.4474 140.388 40.1168 140.095 39.8608 139.732C39.6154 139.359 39.4928 138.873 39.4928 138.276C39.4928 137.721 39.6368 137.215 39.9248 136.756C40.2234 136.287 40.6768 135.913 41.2848 135.636C41.8928 135.348 42.6714 135.204 43.6208 135.204C44.2501 135.204 44.8741 135.295 45.4928 135.476C46.1114 135.647 46.6448 135.887 47.0928 136.196L46.6927 137.14C46.2128 136.82 45.7008 136.585 45.1568 136.436C44.6234 136.287 44.1061 136.212 43.6048 136.212C42.9328 136.212 42.3781 136.303 41.9408 136.484C41.5034 136.665 41.1781 136.911 40.9648 137.22C40.7621 137.519 40.6608 137.86 40.6608 138.244C40.6608 138.681 40.7834 139.033 41.0288 139.3C41.2848 139.567 41.6154 139.775 42.0208 139.924C42.4368 140.073 42.8901 140.207 43.3808 140.324C43.8714 140.441 44.3568 140.569 44.8368 140.708C45.3274 140.847 45.7754 141.028 46.1808 141.252C46.5968 141.465 46.9274 141.753 47.1728 142.116C47.4288 142.479 47.5568 142.953 47.5568 143.54C47.5568 144.084 47.4074 144.591 47.1088 145.06C46.8101 145.519 46.3514 145.892 45.7328 146.18C45.1248 146.457 44.3408 146.596 43.3808 146.596ZM53.2245 146.596C52.3925 146.596 51.5925 146.463 50.8245 146.196C50.0672 145.919 49.4805 145.567 49.0645 145.14L49.5285 144.228C49.9232 144.612 50.4512 144.937 51.1125 145.204C51.7845 145.46 52.4885 145.588 53.2245 145.588C53.9285 145.588 54.4992 145.503 54.9365 145.332C55.3845 145.151 55.7098 144.911 55.9125 144.612C56.1258 144.313 56.2325 143.983 56.2325 143.62C56.2325 143.183 56.1045 142.831 55.8485 142.564C55.6032 142.297 55.2778 142.089 54.8725 141.94C54.4672 141.78 54.0192 141.641 53.5285 141.524C53.0378 141.407 52.5472 141.284 52.0565 141.156C51.5658 141.017 51.1125 140.836 50.6965 140.612C50.2912 140.388 49.9605 140.095 49.7045 139.732C49.4592 139.359 49.3365 138.873 49.3365 138.276C49.3365 137.721 49.4805 137.215 49.7685 136.756C50.0672 136.287 50.5205 135.913 51.1285 135.636C51.7365 135.348 52.5152 135.204 53.4645 135.204C54.0938 135.204 54.7178 135.295 55.3365 135.476C55.9552 135.647 56.4885 135.887 56.9365 136.196L56.5365 137.14C56.0565 136.82 55.5445 136.585 55.0005 136.436C54.4672 136.287 53.9498 136.212 53.4485 136.212C52.7765 136.212 52.2218 136.303 51.7845 136.484C51.3472 136.665 51.0218 136.911 50.8085 137.22C50.6058 137.519 50.5045 137.86 50.5045 138.244C50.5045 138.681 50.6272 139.033 50.8725 139.3C51.1285 139.567 51.4592 139.775 51.8645 139.924C52.2805 140.073 52.7338 140.207 53.2245 140.324C53.7152 140.441 54.2005 140.569 54.6805 140.708C55.1712 140.847 55.6192 141.028 56.0245 141.252C56.4405 141.465 56.7712 141.753 57.0165 142.116C57.2725 142.479 57.4005 142.953 57.4005 143.54C57.4005 144.084 57.2512 144.591 56.9525 145.06C56.6538 145.519 56.1952 145.892 55.5765 146.18C54.9685 146.457 54.1845 146.596 53.2245 146.596Z" fill="white"/>
</svg>
