<svg width="86" height="151" viewBox="0 0 86 151" fill="none" xmlns="http://www.w3.org/2000/svg">
<path d="M17.3477 95.4649L24.8242 47.954C25.082 46.3348 27.2734 45.9513 28.0469 47.4001L36.082 62.3138L17.3477 95.4649ZM70.5 107.012L63.3672 63.2513C63.1523 61.8877 61.4336 61.3338 60.4453 62.3138L15.5 107.012L40.3789 120.861C41.9258 121.713 43.8594 121.713 45.4062 120.861L70.5 107.012ZM50.3047 68.8333L44.5469 57.9675C43.9023 56.7318 42.1406 56.7318 41.4961 57.9675L16.1875 102.709L50.3047 68.8333Z" fill="white"/>
<path d="M11.88 140.724H17.8V141.748H11.88V140.724ZM12.008 146.5H10.824V135.3H18.504V136.324H12.008V146.5ZM20.709 146.5V138.1H21.845V146.5H20.709ZM21.285 136.244C21.0503 136.244 20.853 136.164 20.693 136.004C20.533 135.844 20.453 135.652 20.453 135.428C20.453 135.204 20.533 135.017 20.693 134.868C20.853 134.708 21.0503 134.628 21.285 134.628C21.5197 134.628 21.717 134.703 21.877 134.852C22.037 135.001 22.117 135.188 22.117 135.412C22.117 135.647 22.037 135.844 21.877 136.004C21.7277 136.164 21.5303 136.244 21.285 136.244ZM25.0059 146.5V138.1H26.0939V140.388L25.9819 139.988C26.2165 139.348 26.6112 138.863 27.1659 138.532C27.7205 138.191 28.4085 138.02 29.2299 138.02V139.124C29.1872 139.124 29.1445 139.124 29.1019 139.124C29.0592 139.113 29.0165 139.108 28.9739 139.108C28.0885 139.108 27.3952 139.38 26.8939 139.924C26.3925 140.457 26.1419 141.22 26.1419 142.212V146.5H25.0059ZM34.7926 146.58C33.918 146.58 33.15 146.399 32.4886 146.036C31.8273 145.663 31.31 145.156 30.9366 144.516C30.5633 143.865 30.3766 143.124 30.3766 142.292C30.3766 141.46 30.5526 140.724 30.9046 140.084C31.2673 139.444 31.758 138.943 32.3766 138.58C33.006 138.207 33.71 138.02 34.4886 138.02C35.278 138.02 35.9766 138.201 36.5846 138.564C37.2033 138.916 37.6886 139.417 38.0406 140.068C38.3926 140.708 38.5686 141.449 38.5686 142.292C38.5686 142.345 38.5633 142.404 38.5526 142.468C38.5526 142.521 38.5526 142.58 38.5526 142.644H31.2406V141.796H37.9446L37.4966 142.132C37.4966 141.524 37.3633 140.985 37.0966 140.516C36.8406 140.036 36.4886 139.663 36.0406 139.396C35.5926 139.129 35.0753 138.996 34.4886 138.996C33.9126 138.996 33.3953 139.129 32.9366 139.396C32.478 139.663 32.1206 140.036 31.8646 140.516C31.6086 140.996 31.4806 141.545 31.4806 142.164V142.34C31.4806 142.98 31.6193 143.545 31.8966 144.036C32.1846 144.516 32.5793 144.895 33.0806 145.172C33.5926 145.439 34.174 145.572 34.8246 145.572C35.3366 145.572 35.8113 145.481 36.2486 145.3C36.6966 145.119 37.0806 144.841 37.4006 144.468L38.0406 145.204C37.6673 145.652 37.198 145.993 36.6326 146.228C36.078 146.463 35.4646 146.58 34.7926 146.58ZM45.2169 146.58C44.4809 146.58 43.8195 146.415 43.2329 146.084C42.6462 145.743 42.1822 145.252 41.8409 144.612C41.4995 143.972 41.3289 143.199 41.3289 142.292C41.3289 141.375 41.4995 140.601 41.8409 139.972C42.1929 139.332 42.6622 138.847 43.2489 138.516C43.8355 138.185 44.4915 138.02 45.2169 138.02C46.0169 138.02 46.7315 138.201 47.3609 138.564C48.0009 138.916 48.5022 139.412 48.8649 140.052C49.2275 140.692 49.4089 141.439 49.4089 142.292C49.4089 143.135 49.2275 143.881 48.8649 144.532C48.5022 145.172 48.0009 145.673 47.3609 146.036C46.7315 146.399 46.0169 146.58 45.2169 146.58ZM40.8809 146.5V134.628H42.0169V140.58L41.8569 142.276L41.9689 143.972V146.5H40.8809ZM45.1369 145.572C45.7342 145.572 46.2675 145.439 46.7369 145.172C47.2062 144.895 47.5795 144.511 47.8569 144.02C48.1342 143.519 48.2729 142.943 48.2729 142.292C48.2729 141.631 48.1342 141.055 47.8569 140.564C47.5795 140.073 47.2062 139.695 46.7369 139.428C46.2675 139.151 45.7342 139.012 45.1369 139.012C44.5395 139.012 44.0009 139.151 43.5209 139.428C43.0515 139.695 42.6782 140.073 42.4009 140.564C42.1342 141.055 42.0009 141.631 42.0009 142.292C42.0009 142.943 42.1342 143.519 42.4009 144.02C42.6782 144.511 43.0515 144.895 43.5209 145.172C44.0009 145.439 44.5395 145.572 45.1369 145.572ZM56.9418 146.5V144.644L56.8938 144.34V141.236C56.8938 140.521 56.6911 139.972 56.2858 139.588C55.8911 139.204 55.2991 139.012 54.5098 139.012C53.9658 139.012 53.4484 139.103 52.9578 139.284C52.4671 139.465 52.0511 139.705 51.7098 140.004L51.1978 139.156C51.6244 138.793 52.1364 138.516 52.7338 138.324C53.3311 138.121 53.9604 138.02 54.6218 138.02C55.7098 138.02 56.5471 138.292 57.1338 138.836C57.7311 139.369 58.0298 140.185 58.0298 141.284V146.5H56.9418ZM54.0458 146.58C53.4164 146.58 52.8671 146.479 52.3978 146.276C51.9391 146.063 51.5871 145.775 51.3418 145.412C51.0964 145.039 50.9738 144.612 50.9738 144.132C50.9738 143.695 51.0751 143.3 51.2778 142.948C51.4911 142.585 51.8324 142.297 52.3018 142.084C52.7818 141.86 53.4218 141.748 54.2218 141.748H57.1178V142.596H54.2538C53.4431 142.596 52.8778 142.74 52.5578 143.028C52.2484 143.316 52.0938 143.673 52.0938 144.1C52.0938 144.58 52.2804 144.964 52.6538 145.252C53.0271 145.54 53.5498 145.684 54.2218 145.684C54.8618 145.684 55.4111 145.54 55.8698 145.252C56.3391 144.953 56.6804 144.527 56.8938 143.972L57.1498 144.756C56.9364 145.311 56.5631 145.753 56.0298 146.084C55.5071 146.415 54.8458 146.58 54.0458 146.58ZM63.3713 146.58C62.6779 146.58 62.0219 146.484 61.4033 146.292C60.7846 146.089 60.2993 145.839 59.9473 145.54L60.4593 144.644C60.8006 144.9 61.2379 145.124 61.7713 145.316C62.3046 145.497 62.8646 145.588 63.4513 145.588C64.2513 145.588 64.8273 145.465 65.1793 145.22C65.5313 144.964 65.7073 144.628 65.7073 144.212C65.7073 143.903 65.6059 143.663 65.4033 143.492C65.2113 143.311 64.9553 143.177 64.6353 143.092C64.3153 142.996 63.9579 142.916 63.5633 142.852C63.1686 142.788 62.7739 142.713 62.3793 142.628C61.9953 142.543 61.6433 142.42 61.3233 142.26C61.0033 142.089 60.7419 141.86 60.5393 141.572C60.3473 141.284 60.2513 140.9 60.2513 140.42C60.2513 139.961 60.3793 139.551 60.6353 139.188C60.8913 138.825 61.2646 138.543 61.7553 138.34C62.2566 138.127 62.8646 138.02 63.5793 138.02C64.1233 138.02 64.6673 138.095 65.2113 138.244C65.7553 138.383 66.2033 138.569 66.5553 138.804L66.0593 139.716C65.6859 139.46 65.2859 139.279 64.8593 139.172C64.4326 139.055 64.0059 138.996 63.5793 138.996C62.8219 138.996 62.2619 139.129 61.8993 139.396C61.5473 139.652 61.3713 139.983 61.3713 140.388C61.3713 140.708 61.4673 140.959 61.6593 141.14C61.8619 141.321 62.1233 141.465 62.4433 141.572C62.7739 141.668 63.1313 141.748 63.5153 141.812C63.9099 141.876 64.2993 141.956 64.6833 142.052C65.0779 142.137 65.4353 142.26 65.7553 142.42C66.0859 142.569 66.3473 142.788 66.5393 143.076C66.7419 143.353 66.8433 143.721 66.8433 144.18C66.8433 144.671 66.7046 145.097 66.4273 145.46C66.1606 145.812 65.7659 146.089 65.2433 146.292C64.7313 146.484 64.1073 146.58 63.3713 146.58ZM72.4958 146.58C71.6211 146.58 70.8531 146.399 70.1918 146.036C69.5304 145.663 69.0131 145.156 68.6398 144.516C68.2664 143.865 68.0798 143.124 68.0798 142.292C68.0798 141.46 68.2558 140.724 68.6078 140.084C68.9704 139.444 69.4611 138.943 70.0798 138.58C70.7091 138.207 71.4131 138.02 72.1918 138.02C72.9811 138.02 73.6798 138.201 74.2878 138.564C74.9064 138.916 75.3918 139.417 75.7438 140.068C76.0958 140.708 76.2718 141.449 76.2718 142.292C76.2718 142.345 76.2664 142.404 76.2558 142.468C76.2558 142.521 76.2558 142.58 76.2558 142.644H68.9438V141.796H75.6478L75.1998 142.132C75.1998 141.524 75.0664 140.985 74.7998 140.516C74.5438 140.036 74.1918 139.663 73.7438 139.396C73.2958 139.129 72.7784 138.996 72.1918 138.996C71.6158 138.996 71.0984 139.129 70.6398 139.396C70.1811 139.663 69.8238 140.036 69.5678 140.516C69.3118 140.996 69.1838 141.545 69.1838 142.164V142.34C69.1838 142.98 69.3224 143.545 69.5998 144.036C69.8878 144.516 70.2824 144.895 70.7838 145.172C71.2958 145.439 71.8771 145.572 72.5278 145.572C73.0398 145.572 73.5144 145.481 73.9518 145.3C74.3998 145.119 74.7838 144.841 75.1038 144.468L75.7438 145.204C75.3704 145.652 74.9011 145.993 74.3358 146.228C73.7811 146.463 73.1678 146.58 72.4958 146.58Z" fill="white"/>
</svg>
