<svg width="86" height="151" viewBox="0 0 86 151" fill="none" xmlns="http://www.w3.org/2000/svg">
<path d="M76.696 80.6966L46.0883 47.907C44.3371 46.031 41.4438 46.031 39.6927 47.907L33.3732 54.677L41.4438 63.323C43.3473 62.6705 45.4792 63.0783 46.9258 64.7096C48.4486 66.3409 48.8293 68.6248 48.2202 70.6639L55.9863 78.9837C57.8898 78.3312 60.0216 78.739 61.5444 80.3703C63.6763 82.5726 63.6763 86.2431 61.5444 88.5269C59.4125 90.8108 56.0624 90.8108 53.9306 88.5269C52.3316 86.814 51.951 84.3671 52.7885 82.2463L45.5553 74.4976V94.8891C46.0883 95.1338 46.5451 95.5416 47.002 95.9494C49.1338 98.1517 49.1338 101.822 47.002 104.106C44.8701 106.308 41.52 106.308 39.3881 104.106C37.2562 101.822 37.2562 98.2333 39.3881 95.9494C39.9211 95.3785 40.5302 94.9706 41.1393 94.7259V74.0897C40.5302 73.845 39.9211 73.3556 39.3881 72.8662C37.7892 71.1533 37.4085 68.7064 38.246 66.5856L30.2515 58.1028L9.31339 80.5334C7.5622 82.4095 7.5622 85.509 9.31339 87.385L39.8449 120.093C41.5961 121.969 44.4894 121.969 46.2406 120.093L76.6198 87.5481C78.4472 85.5905 78.4472 82.5726 76.696 80.6966Z" fill="white"/>
<path d="M36.236 146.596C35.3827 146.596 34.5933 146.457 33.868 146.18C33.1533 145.892 32.5293 145.492 31.996 144.98C31.4733 144.468 31.0627 143.865 30.764 143.172C30.476 142.479 30.332 141.721 30.332 140.9C30.332 140.079 30.476 139.321 30.764 138.628C31.0627 137.935 31.4787 137.332 32.012 136.82C32.5453 136.308 33.1693 135.913 33.884 135.636C34.6093 135.348 35.3987 135.204 36.252 135.204C37.1053 135.204 37.884 135.337 38.588 135.604C39.3027 135.871 39.9107 136.276 40.412 136.82L39.676 137.572C39.2067 137.103 38.6893 136.767 38.124 136.564C37.5587 136.361 36.9507 136.26 36.3 136.26C35.6067 136.26 34.9667 136.377 34.38 136.612C33.804 136.836 33.2973 137.161 32.86 137.588C32.4333 138.004 32.0973 138.495 31.852 139.06C31.6173 139.615 31.5 140.228 31.5 140.9C31.5 141.561 31.6173 142.175 31.852 142.74C32.0973 143.305 32.4333 143.801 32.86 144.228C33.2973 144.644 33.804 144.969 34.38 145.204C34.9667 145.428 35.6013 145.54 36.284 145.54C36.924 145.54 37.5267 145.444 38.092 145.252C38.668 145.06 39.196 144.735 39.676 144.276L40.348 145.172C39.8147 145.641 39.1907 145.999 38.476 146.244C37.7613 146.479 37.0147 146.596 36.236 146.596ZM39.212 145.028V140.9H40.348V145.172L39.212 145.028ZM43.699 146.5V135.3H44.883V146.5H43.699ZM50.7031 146.5V136.324H46.7671V135.3H55.8231V136.324H51.8871V146.5H50.7031Z" fill="white"/>
</svg>
