<svg width="86" height="150" viewBox="0 0 86 150" fill="none" xmlns="http://www.w3.org/2000/svg">
<path d="M43 106.667L60.9667 101.958L63.3894 76.54H31.4344L30.6411 68.0875H64.1867L65.0694 59.7962H20.9306L23.4039 84.8388H53.815L52.8 95.5863L43 98.0875L33.2 95.5863L32.5856 88.6712H23.7578L25.0372 101.961L43 106.667ZM8 46H78L71.6883 113.5L43 121L14.3117 113.5L8 46Z" fill="white"/>
<path d="M29.516 134.8H30.684V146H29.516V134.8ZM22.508 146H21.324V134.8H22.508V146ZM29.628 140.832H22.38V139.792H29.628V140.832ZM36.5156 146V135.824H32.5796V134.8H41.6356V135.824H37.6996V146H36.5156ZM43.5271 146V134.8H44.5031L49.6231 143.536H49.1111L54.1831 134.8H55.1591V146H54.0231V136.576H54.2951L49.6231 144.576H49.0631L44.3591 136.576H44.6631V146H43.5271ZM58.8084 146V134.8H59.9924V144.976H66.2644V146H58.8084Z" fill="white"/>
</svg>
