<svg width="86" height="150" viewBox="0 0 86 150" fill="none" xmlns="http://www.w3.org/2000/svg">
<path d="M8 46C31.3491 46 54.6509 46 78 46C78 71.0169 78 96.0338 78 121C54.6982 121 31.3491 121 8 121C8 95.9325 8 70.9662 8 46ZM70.6266 85.7029C69.2086 82.9683 67.2708 81.0945 64.4821 80.4362C62.497 79.9298 60.5118 79.9298 58.5267 80.3856C52.0986 81.8035 49.3572 90.1087 53.5165 95.6286C54.9818 97.553 56.9196 98.7178 58.9521 99.7306C60.7481 100.642 62.5915 101.503 64.3876 102.465C65.6165 103.124 66.1364 104.339 65.9946 105.808C65.8528 107.276 64.9075 108.086 63.7259 108.542C61.079 109.555 58.0068 108.643 56.2107 106.263C55.8325 105.757 55.4544 105.2 55.0763 104.643C53.2802 105.757 51.5314 106.82 49.7826 107.935C50.8697 110.213 52.3822 112.036 54.4618 113.252C58.0068 115.328 61.7407 115.632 65.5692 114.619C68.0743 113.961 70.2012 112.594 71.5246 110.112C73.9824 105.402 72.5645 99.528 68.2161 96.6415C66.2782 95.3754 64.104 94.5145 62.0716 93.4004C61.079 92.8433 60.0392 92.3369 59.1884 91.628C57.6759 90.3113 57.9595 87.6779 59.661 86.6651C61.3153 85.6523 63.6313 86.26 64.9075 88.0324C65.1911 88.3869 65.3801 88.792 65.6637 89.1972C67.2708 88.0324 68.9251 86.8677 70.6266 85.7029ZM26.4335 108.694C27.3788 110.872 28.7495 112.594 30.6874 113.708C33.1924 115.176 35.9338 115.429 38.7225 114.974C41.2276 114.569 43.3072 113.353 44.6779 110.922C45.8123 108.897 46.1431 106.668 46.1431 104.288C46.1431 96.5908 46.1431 88.8933 46.1431 81.1958C46.1431 80.9932 46.1431 80.74 46.1431 80.4868C43.9217 80.4868 41.7947 80.4868 39.5733 80.4868C39.5733 80.7907 39.5733 81.0439 39.5733 81.3477C39.5733 88.944 39.5733 96.4895 39.5733 104.086C39.5733 104.795 39.526 105.554 39.4315 106.263C39.2424 107.428 38.6752 108.289 37.5881 108.643C35.5557 109.302 33.9014 108.643 32.7198 106.77C32.4362 106.263 32.1526 105.757 31.8217 105.251C29.9784 106.415 28.2296 107.529 26.4335 108.694Z" fill="white"/>
<path d="M5.024 146.096C4.39467 146.096 3.80267 145.957 3.248 145.68C2.704 145.403 2.26667 145.008 1.936 144.496L2.624 143.696C2.93333 144.144 3.29067 144.485 3.696 144.72C4.10133 144.955 4.54933 145.072 5.04 145.072C6.42667 145.072 7.12 144.251 7.12 142.608V135.824H3.024V134.8H8.288V142.56C8.288 143.744 8.01067 144.629 7.456 145.216C6.912 145.803 6.10133 146.096 5.024 146.096ZM16.8636 146V144.144L16.8156 143.84V140.736C16.8156 140.021 16.613 139.472 16.2076 139.088C15.813 138.704 15.221 138.512 14.4316 138.512C13.8876 138.512 13.3703 138.603 12.8796 138.784C12.389 138.965 11.973 139.205 11.6316 139.504L11.1196 138.656C11.5463 138.293 12.0583 138.016 12.6556 137.824C13.253 137.621 13.8823 137.52 14.5436 137.52C15.6316 137.52 16.469 137.792 17.0556 138.336C17.653 138.869 17.9516 139.685 17.9516 140.784V146H16.8636ZM13.9676 146.08C13.3383 146.08 12.789 145.979 12.3196 145.776C11.861 145.563 11.509 145.275 11.2636 144.912C11.0183 144.539 10.8956 144.112 10.8956 143.632C10.8956 143.195 10.997 142.8 11.1996 142.448C11.413 142.085 11.7543 141.797 12.2236 141.584C12.7036 141.36 13.3436 141.248 14.1436 141.248H17.0396V142.096H14.1756C13.365 142.096 12.7996 142.24 12.4796 142.528C12.1703 142.816 12.0156 143.173 12.0156 143.6C12.0156 144.08 12.2023 144.464 12.5756 144.752C12.949 145.04 13.4716 145.184 14.1436 145.184C14.7836 145.184 15.333 145.04 15.7916 144.752C16.261 144.453 16.6023 144.027 16.8156 143.472L17.0716 144.256C16.8583 144.811 16.485 145.253 15.9516 145.584C15.429 145.915 14.7676 146.08 13.9676 146.08ZM23.0409 146L19.3129 137.6H20.4969L23.9209 145.392H23.3609L26.8329 137.6H27.9529L24.2089 146H23.0409ZM34.5668 146V144.144L34.5188 143.84V140.736C34.5188 140.021 34.3161 139.472 33.9108 139.088C33.5161 138.704 32.9241 138.512 32.1348 138.512C31.5908 138.512 31.0734 138.603 30.5828 138.784C30.0921 138.965 29.6761 139.205 29.3348 139.504L28.8228 138.656C29.2494 138.293 29.7614 138.016 30.3588 137.824C30.9561 137.621 31.5854 137.52 32.2468 137.52C33.3348 137.52 34.1721 137.792 34.7588 138.336C35.3561 138.869 35.6548 139.685 35.6548 140.784V146H34.5668ZM31.6708 146.08C31.0414 146.08 30.4921 145.979 30.0228 145.776C29.5641 145.563 29.2121 145.275 28.9668 144.912C28.7214 144.539 28.5988 144.112 28.5988 143.632C28.5988 143.195 28.7001 142.8 28.9028 142.448C29.1161 142.085 29.4574 141.797 29.9268 141.584C30.4068 141.36 31.0468 141.248 31.8468 141.248H34.7428V142.096H31.8788C31.0681 142.096 30.5028 142.24 30.1828 142.528C29.8734 142.816 29.7188 143.173 29.7188 143.6C29.7188 144.08 29.9054 144.464 30.2788 144.752C30.6521 145.04 31.1748 145.184 31.8468 145.184C32.4868 145.184 33.0361 145.04 33.4948 144.752C33.9641 144.453 34.3054 144.027 34.5188 143.472L34.7748 144.256C34.5614 144.811 34.1881 145.253 33.6548 145.584C33.1321 145.915 32.4708 146.08 31.6708 146.08ZM42.0683 146.096C41.2363 146.096 40.4363 145.963 39.6683 145.696C38.9109 145.419 38.3243 145.067 37.9083 144.64L38.3723 143.728C38.7669 144.112 39.2949 144.437 39.9563 144.704C40.6283 144.96 41.3323 145.088 42.0683 145.088C42.7723 145.088 43.3429 145.003 43.7803 144.832C44.2283 144.651 44.5536 144.411 44.7563 144.112C44.9696 143.813 45.0763 143.483 45.0763 143.12C45.0763 142.683 44.9483 142.331 44.6923 142.064C44.4469 141.797 44.1216 141.589 43.7163 141.44C43.3109 141.28 42.8629 141.141 42.3723 141.024C41.8816 140.907 41.3909 140.784 40.9003 140.656C40.4096 140.517 39.9563 140.336 39.5403 140.112C39.1349 139.888 38.8043 139.595 38.5483 139.232C38.3029 138.859 38.1803 138.373 38.1803 137.776C38.1803 137.221 38.3243 136.715 38.6123 136.256C38.9109 135.787 39.3643 135.413 39.9723 135.136C40.5803 134.848 41.3589 134.704 42.3083 134.704C42.9376 134.704 43.5616 134.795 44.1803 134.976C44.7989 135.147 45.3323 135.387 45.7803 135.696L45.3802 136.64C44.9003 136.32 44.3883 136.085 43.8443 135.936C43.3109 135.787 42.7936 135.712 42.2923 135.712C41.6203 135.712 41.0656 135.803 40.6283 135.984C40.1909 136.165 39.8656 136.411 39.6523 136.72C39.4496 137.019 39.3483 137.36 39.3483 137.744C39.3483 138.181 39.4709 138.533 39.7163 138.8C39.9723 139.067 40.3029 139.275 40.7083 139.424C41.1243 139.573 41.5776 139.707 42.0683 139.824C42.5589 139.941 43.0443 140.069 43.5243 140.208C44.0149 140.347 44.4629 140.528 44.8683 140.752C45.2843 140.965 45.6149 141.253 45.8603 141.616C46.1163 141.979 46.2443 142.453 46.2443 143.04C46.2443 143.584 46.0949 144.091 45.7963 144.56C45.4976 145.019 45.0389 145.392 44.4203 145.68C43.8123 145.957 43.0283 146.096 42.0683 146.096ZM52.072 146.08C51.24 146.08 50.4933 145.899 49.832 145.536C49.1813 145.163 48.6693 144.656 48.296 144.016C47.9227 143.365 47.736 142.624 47.736 141.792C47.736 140.949 47.9227 140.208 48.296 139.568C48.6693 138.928 49.1813 138.427 49.832 138.064C50.4933 137.701 51.24 137.52 52.072 137.52C52.7867 137.52 53.432 137.659 54.008 137.936C54.584 138.213 55.0373 138.629 55.368 139.184L54.52 139.76C54.232 139.333 53.8747 139.019 53.448 138.816C53.0213 138.613 52.5573 138.512 52.056 138.512C51.4587 138.512 50.92 138.651 50.44 138.928C49.96 139.195 49.5813 139.573 49.304 140.064C49.0267 140.555 48.888 141.131 48.888 141.792C48.888 142.453 49.0267 143.029 49.304 143.52C49.5813 144.011 49.96 144.395 50.44 144.672C50.92 144.939 51.4587 145.072 52.056 145.072C52.5573 145.072 53.0213 144.971 53.448 144.768C53.8747 144.565 54.232 144.256 54.52 143.84L55.368 144.416C55.0373 144.96 54.584 145.376 54.008 145.664C53.432 145.941 52.7867 146.08 52.072 146.08ZM57.5996 146V137.6H58.6876V139.888L58.5756 139.488C58.8103 138.848 59.205 138.363 59.7596 138.032C60.3143 137.691 61.0023 137.52 61.8236 137.52V138.624C61.781 138.624 61.7383 138.624 61.6956 138.624C61.653 138.613 61.6103 138.608 61.5676 138.608C60.6823 138.608 59.989 138.88 59.4876 139.424C58.9863 139.957 58.7356 140.72 58.7356 141.712V146H57.5996ZM63.8965 146V137.6H65.0325V146H63.8965ZM64.4725 135.744C64.2378 135.744 64.0405 135.664 63.8805 135.504C63.7205 135.344 63.6405 135.152 63.6405 134.928C63.6405 134.704 63.7205 134.517 63.8805 134.368C64.0405 134.208 64.2378 134.128 64.4725 134.128C64.7072 134.128 64.9045 134.203 65.0645 134.352C65.2245 134.501 65.3045 134.688 65.3045 134.912C65.3045 135.147 65.2245 135.344 65.0645 135.504C64.9152 135.664 64.7178 135.744 64.4725 135.744ZM72.5294 146.08C71.804 146.08 71.148 145.915 70.5614 145.584C69.9747 145.243 69.5054 144.757 69.1534 144.128C68.812 143.488 68.6414 142.709 68.6414 141.792C68.6414 140.875 68.812 140.101 69.1534 139.472C69.4947 138.832 69.9587 138.347 70.5454 138.016C71.132 137.685 71.7934 137.52 72.5294 137.52C73.3294 137.52 74.044 137.701 74.6734 138.064C75.3134 138.416 75.8147 138.917 76.1774 139.568C76.54 140.208 76.7214 140.949 76.7214 141.792C76.7214 142.645 76.54 143.392 76.1774 144.032C75.8147 144.672 75.3134 145.173 74.6734 145.536C74.044 145.899 73.3294 146.08 72.5294 146.08ZM68.1934 149.104V137.6H69.2814V140.128L69.1694 141.808L69.3294 143.504V149.104H68.1934ZM72.4494 145.072C73.0467 145.072 73.58 144.939 74.0494 144.672C74.5187 144.395 74.892 144.011 75.1694 143.52C75.4467 143.019 75.5854 142.443 75.5854 141.792C75.5854 141.141 75.4467 140.571 75.1694 140.08C74.892 139.589 74.5187 139.205 74.0494 138.928C73.58 138.651 73.0467 138.512 72.4494 138.512C71.852 138.512 71.3134 138.651 70.8334 138.928C70.364 139.205 69.9907 139.589 69.7134 140.08C69.4467 140.571 69.3134 141.141 69.3134 141.792C69.3134 142.443 69.4467 143.019 69.7134 143.52C69.9907 144.011 70.364 144.395 70.8334 144.672C71.3134 144.939 71.852 145.072 72.4494 145.072ZM81.6931 146.08C80.9038 146.08 80.2958 145.867 79.8691 145.44C79.4425 145.013 79.2291 144.411 79.2291 143.632V135.744H80.3651V143.568C80.3651 144.059 80.4878 144.437 80.7331 144.704C80.9891 144.971 81.3518 145.104 81.8211 145.104C82.3225 145.104 82.7385 144.96 83.0691 144.672L83.4691 145.488C83.2451 145.691 82.9731 145.84 82.6531 145.936C82.3438 146.032 82.0238 146.08 81.6931 146.08ZM77.7251 138.544V137.6H82.9251V138.544H77.7251Z" fill="white"/>
</svg>
