<svg width="86" height="151" viewBox="0 0 86 151" fill="none" xmlns="http://www.w3.org/2000/svg">
<path d="M15.375 39.75V90.375C9.25 83.625 5.5 74.75 5.5 65C5.5 55.25 9.25 46.375 15.375 39.75Z" fill="white"/>
<path d="M19.375 45.25L41 88.625H19.375V45.25Z" fill="white"/>
<path d="M43 83.75L21.75 41.375H64.25L43 83.75Z" fill="white"/>
<path d="M43 27.5C52.75 27.5 61.625 31.25 68.25 37.375H17.75C24.375 31.25 33.25 27.5 43 27.5Z" fill="white"/>
<path d="M66.625 88.625H45L66.625 45.25V88.625Z" fill="white"/>
<path d="M68.25 92.625C61.625 98.75 52.75 102.5 43 102.5C33.25 102.5 24.375 98.75 17.75 92.625H68.25Z" fill="white"/>
<path d="M70.625 90.25V39.75C76.75 46.375 80.5 55.25 80.5 65C80.5 74.75 76.75 83.625 70.625 90.25Z" fill="white"/>
<path d="M19.375 45.25L41 88.625H19.375V45.25Z" fill="white"/>
<path d="M43 83.75L21.75 41.375H64.25L43 83.75Z" fill="white"/>
<path d="M45 88.625L66.625 45.25V88.625H45Z" fill="white"/>
<path d="M21.75 41.375H64.25L43 83.75L21.75 41.375Z" fill="white"/>
<path d="M12.3709 127.5V116.3H13.3469L18.4669 125.036H17.9549L23.0269 116.3H24.0029V127.5H22.8669V118.076H23.1389L18.4669 126.076H17.9069L13.2029 118.076H13.5069V127.5H12.3709ZM32.6761 127.5V125.644L32.6281 125.34V122.236C32.6281 121.521 32.4255 120.972 32.0201 120.588C31.6255 120.204 31.0335 120.012 30.2441 120.012C29.7001 120.012 29.1828 120.103 28.6921 120.284C28.2015 120.465 27.7855 120.705 27.4441 121.004L26.9321 120.156C27.3588 119.793 27.8708 119.516 28.4681 119.324C29.0655 119.121 29.6948 119.02 30.3561 119.02C31.4441 119.02 32.2815 119.292 32.8681 119.836C33.4655 120.369 33.7641 121.185 33.7641 122.284V127.5H32.6761ZM29.7801 127.58C29.1508 127.58 28.6015 127.479 28.1321 127.276C27.6735 127.063 27.3215 126.775 27.0761 126.412C26.8308 126.039 26.7081 125.612 26.7081 125.132C26.7081 124.695 26.8095 124.3 27.0121 123.948C27.2255 123.585 27.5668 123.297 28.0361 123.084C28.5161 122.86 29.1561 122.748 29.9561 122.748H32.8521V123.596H29.9881C29.1775 123.596 28.6121 123.74 28.2921 124.028C27.9828 124.316 27.8281 124.673 27.8281 125.1C27.8281 125.58 28.0148 125.964 28.3881 126.252C28.7615 126.54 29.2841 126.684 29.9561 126.684C30.5961 126.684 31.1455 126.54 31.6041 126.252C32.0735 125.953 32.4148 125.527 32.6281 124.972L32.8841 125.756C32.6708 126.311 32.2975 126.753 31.7641 127.084C31.2415 127.415 30.5801 127.58 29.7801 127.58ZM39.5056 127.58C38.7163 127.58 38.1083 127.367 37.6816 126.94C37.255 126.513 37.0416 125.911 37.0416 125.132V117.244H38.1776V125.068C38.1776 125.559 38.3003 125.937 38.5456 126.204C38.8016 126.471 39.1643 126.604 39.6336 126.604C40.135 126.604 40.551 126.46 40.8816 126.172L41.2816 126.988C41.0576 127.191 40.7856 127.34 40.4656 127.436C40.1563 127.532 39.8363 127.58 39.5056 127.58ZM35.5376 120.044V119.1H40.7376V120.044H35.5376ZM46.6208 127.58C45.7461 127.58 44.9781 127.399 44.3168 127.036C43.6554 126.663 43.1381 126.156 42.7648 125.516C42.3914 124.865 42.2048 124.124 42.2048 123.292C42.2048 122.46 42.3808 121.724 42.7328 121.084C43.0954 120.444 43.5861 119.943 44.2048 119.58C44.8341 119.207 45.5381 119.02 46.3168 119.02C47.1061 119.02 47.8048 119.201 48.4128 119.564C49.0314 119.916 49.5168 120.417 49.8688 121.068C50.2208 121.708 50.3968 122.449 50.3968 123.292C50.3968 123.345 50.3914 123.404 50.3808 123.468C50.3808 123.521 50.3808 123.58 50.3808 123.644H43.0688V122.796H49.7728L49.3248 123.132C49.3248 122.524 49.1914 121.985 48.9248 121.516C48.6688 121.036 48.3168 120.663 47.8688 120.396C47.4208 120.129 46.9034 119.996 46.3168 119.996C45.7408 119.996 45.2234 120.129 44.7648 120.396C44.3061 120.663 43.9488 121.036 43.6928 121.516C43.4368 121.996 43.3088 122.545 43.3088 123.164V123.34C43.3088 123.98 43.4474 124.545 43.7248 125.036C44.0128 125.516 44.4074 125.895 44.9088 126.172C45.4208 126.439 46.0021 126.572 46.6528 126.572C47.1648 126.572 47.6394 126.481 48.0768 126.3C48.5248 126.119 48.9088 125.841 49.2288 125.468L49.8688 126.204C49.4954 126.652 49.0261 126.993 48.4608 127.228C47.9061 127.463 47.2928 127.58 46.6208 127.58ZM52.709 127.5V119.1H53.797V121.388L53.685 120.988C53.9197 120.348 54.3143 119.863 54.869 119.532C55.4237 119.191 56.1117 119.02 56.933 119.02V120.124C56.8903 120.124 56.8477 120.124 56.805 120.124C56.7623 120.113 56.7197 120.108 56.677 120.108C55.7917 120.108 55.0983 120.38 54.597 120.924C54.0957 121.457 53.845 122.22 53.845 123.212V127.5H52.709ZM59.0059 127.5V119.1H60.1419V127.5H59.0059ZM59.5819 117.244C59.3472 117.244 59.1499 117.164 58.9899 117.004C58.8299 116.844 58.7499 116.652 58.7499 116.428C58.7499 116.204 58.8299 116.017 58.9899 115.868C59.1499 115.708 59.3472 115.628 59.5819 115.628C59.8165 115.628 60.0139 115.703 60.1739 115.852C60.3339 116.001 60.4139 116.188 60.4139 116.412C60.4139 116.647 60.3339 116.844 60.1739 117.004C60.0245 117.164 59.8272 117.244 59.5819 117.244ZM68.5668 127.5V125.644L68.5188 125.34V122.236C68.5188 121.521 68.3161 120.972 67.9108 120.588C67.5161 120.204 66.9241 120.012 66.1348 120.012C65.5908 120.012 65.0734 120.103 64.5828 120.284C64.0921 120.465 63.6761 120.705 63.3348 121.004L62.8228 120.156C63.2494 119.793 63.7614 119.516 64.3588 119.324C64.9561 119.121 65.5854 119.02 66.2468 119.02C67.3348 119.02 68.1721 119.292 68.7588 119.836C69.3561 120.369 69.6548 121.185 69.6548 122.284V127.5H68.5668ZM65.6708 127.58C65.0414 127.58 64.4921 127.479 64.0228 127.276C63.5641 127.063 63.2121 126.775 62.9668 126.412C62.7214 126.039 62.5988 125.612 62.5988 125.132C62.5988 124.695 62.7001 124.3 62.9028 123.948C63.1161 123.585 63.4574 123.297 63.9268 123.084C64.4068 122.86 65.0468 122.748 65.8468 122.748H68.7428V123.596H65.8788C65.0681 123.596 64.5028 123.74 64.1828 124.028C63.8734 124.316 63.7188 124.673 63.7188 125.1C63.7188 125.58 63.9054 125.964 64.2788 126.252C64.6521 126.54 65.1748 126.684 65.8468 126.684C66.4868 126.684 67.0361 126.54 67.4948 126.252C67.9641 125.953 68.3054 125.527 68.5188 124.972L68.7748 125.756C68.5614 126.311 68.1881 126.753 67.6548 127.084C67.1321 127.415 66.4708 127.58 65.6708 127.58ZM72.7403 127.5V115.628H73.8763V127.5H72.7403ZM16.449 146.5V135.3H21.009C22.2037 135.3 23.249 135.54 24.145 136.02C25.0517 136.489 25.7557 137.145 26.257 137.988C26.7583 138.831 27.009 139.801 27.009 140.9C27.009 141.999 26.7583 142.969 26.257 143.812C25.7557 144.655 25.0517 145.316 24.145 145.796C23.249 146.265 22.2037 146.5 21.009 146.5H16.449ZM17.633 145.476H20.945C21.937 145.476 22.7957 145.284 23.521 144.9C24.257 144.505 24.8277 143.967 25.233 143.284C25.6383 142.591 25.841 141.796 25.841 140.9C25.841 139.993 25.6383 139.199 25.233 138.516C24.8277 137.833 24.257 137.3 23.521 136.916C22.7957 136.521 21.937 136.324 20.945 136.324H17.633V145.476ZM32.9958 146.58C32.1211 146.58 31.3531 146.399 30.6918 146.036C30.0304 145.663 29.5131 145.156 29.1398 144.516C28.7664 143.865 28.5798 143.124 28.5798 142.292C28.5798 141.46 28.7558 140.724 29.1078 140.084C29.4704 139.444 29.9611 138.943 30.5798 138.58C31.2091 138.207 31.9131 138.02 32.6918 138.02C33.4811 138.02 34.1798 138.201 34.7878 138.564C35.4064 138.916 35.8918 139.417 36.2438 140.068C36.5958 140.708 36.7718 141.449 36.7718 142.292C36.7718 142.345 36.7664 142.404 36.7558 142.468C36.7558 142.521 36.7558 142.58 36.7558 142.644H29.4438V141.796H36.1478L35.6998 142.132C35.6998 141.524 35.5664 140.985 35.2998 140.516C35.0438 140.036 34.6918 139.663 34.2438 139.396C33.7958 139.129 33.2784 138.996 32.6918 138.996C32.1158 138.996 31.5984 139.129 31.1398 139.396C30.6811 139.663 30.3238 140.036 30.0678 140.516C29.8118 140.996 29.6838 141.545 29.6838 142.164V142.34C29.6838 142.98 29.8224 143.545 30.0998 144.036C30.3878 144.516 30.7824 144.895 31.2838 145.172C31.7958 145.439 32.3771 145.572 33.0278 145.572C33.5398 145.572 34.0144 145.481 34.4518 145.3C34.8998 145.119 35.2838 144.841 35.6038 144.468L36.2438 145.204C35.8704 145.652 35.4011 145.993 34.8358 146.228C34.2811 146.463 33.6678 146.58 32.9958 146.58ZM41.34 146.58C40.6467 146.58 39.9907 146.484 39.372 146.292C38.7533 146.089 38.268 145.839 37.916 145.54L38.428 144.644C38.7693 144.9 39.2067 145.124 39.74 145.316C40.2733 145.497 40.8333 145.588 41.42 145.588C42.22 145.588 42.796 145.465 43.148 145.22C43.5 144.964 43.676 144.628 43.676 144.212C43.676 143.903 43.5747 143.663 43.372 143.492C43.18 143.311 42.924 143.177 42.604 143.092C42.284 142.996 41.9267 142.916 41.532 142.852C41.1373 142.788 40.7427 142.713 40.348 142.628C39.964 142.543 39.612 142.42 39.292 142.26C38.972 142.089 38.7107 141.86 38.508 141.572C38.316 141.284 38.22 140.9 38.22 140.42C38.22 139.961 38.348 139.551 38.604 139.188C38.86 138.825 39.2333 138.543 39.724 138.34C40.2253 138.127 40.8333 138.02 41.548 138.02C42.092 138.02 42.636 138.095 43.18 138.244C43.724 138.383 44.172 138.569 44.524 138.804L44.028 139.716C43.6547 139.46 43.2547 139.279 42.828 139.172C42.4013 139.055 41.9747 138.996 41.548 138.996C40.7907 138.996 40.2307 139.129 39.868 139.396C39.516 139.652 39.34 139.983 39.34 140.388C39.34 140.708 39.436 140.959 39.628 141.14C39.8307 141.321 40.092 141.465 40.412 141.572C40.7427 141.668 41.1 141.748 41.484 141.812C41.8787 141.876 42.268 141.956 42.652 142.052C43.0467 142.137 43.404 142.26 43.724 142.42C44.0547 142.569 44.316 142.788 44.508 143.076C44.7107 143.353 44.812 143.721 44.812 144.18C44.812 144.671 44.6733 145.097 44.396 145.46C44.1293 145.812 43.7347 146.089 43.212 146.292C42.7 146.484 42.076 146.58 41.34 146.58ZM46.8965 146.5V138.1H48.0325V146.5H46.8965ZM47.4725 136.244C47.2378 136.244 47.0405 136.164 46.8805 136.004C46.7205 135.844 46.6405 135.652 46.6405 135.428C46.6405 135.204 46.7205 135.017 46.8805 134.868C47.0405 134.708 47.2378 134.628 47.4725 134.628C47.7072 134.628 47.9045 134.703 48.0645 134.852C48.2245 135.001 48.3045 135.188 48.3045 135.412C48.3045 135.647 48.2245 135.844 48.0645 136.004C47.9152 136.164 47.7178 136.244 47.4725 136.244ZM54.7774 149.684C54.0094 149.684 53.2734 149.572 52.5694 149.348C51.8654 149.124 51.2947 148.804 50.8574 148.388L51.4334 147.524C51.828 147.876 52.3134 148.153 52.8894 148.356C53.476 148.569 54.0947 148.676 54.7454 148.676C55.812 148.676 56.596 148.425 57.0974 147.924C57.5987 147.433 57.8494 146.665 57.8494 145.62V143.524L58.0094 142.084L57.8974 140.644V138.1H58.9854V145.476C58.9854 146.927 58.628 147.988 57.9134 148.66C57.2094 149.343 56.164 149.684 54.7774 149.684ZM54.5694 146.18C53.7694 146.18 53.0494 146.009 52.4094 145.668C51.7694 145.316 51.2627 144.831 50.8894 144.212C50.5267 143.593 50.3454 142.884 50.3454 142.084C50.3454 141.284 50.5267 140.58 50.8894 139.972C51.2627 139.353 51.7694 138.873 52.4094 138.532C53.0494 138.191 53.7694 138.02 54.5694 138.02C55.316 138.02 55.988 138.175 56.5854 138.484C57.1827 138.793 57.6574 139.252 58.0094 139.86C58.3614 140.468 58.5374 141.209 58.5374 142.084C58.5374 142.959 58.3614 143.7 58.0094 144.308C57.6574 144.916 57.1827 145.38 56.5854 145.7C55.988 146.02 55.316 146.18 54.5694 146.18ZM54.6814 145.172C55.3 145.172 55.8494 145.044 56.3294 144.788C56.8094 144.521 57.188 144.159 57.4654 143.7C57.7427 143.231 57.8814 142.692 57.8814 142.084C57.8814 141.476 57.7427 140.943 57.4654 140.484C57.188 140.025 56.8094 139.668 56.3294 139.412C55.8494 139.145 55.3 139.012 54.6814 139.012C54.0734 139.012 53.524 139.145 53.0334 139.412C52.5534 139.668 52.1747 140.025 51.8974 140.484C51.6307 140.943 51.4974 141.476 51.4974 142.084C51.4974 142.692 51.6307 143.231 51.8974 143.7C52.1747 144.159 52.5534 144.521 53.0334 144.788C53.524 145.044 54.0734 145.172 54.6814 145.172ZM66.4345 138.02C67.1172 138.02 67.7145 138.153 68.2265 138.42C68.7492 138.676 69.1545 139.071 69.4425 139.604C69.7412 140.137 69.8905 140.809 69.8905 141.62V146.5H68.7545V141.732C68.7545 140.847 68.5305 140.18 68.0825 139.732C67.6452 139.273 67.0265 139.044 66.2265 139.044C65.6292 139.044 65.1065 139.167 64.6585 139.412C64.2212 139.647 63.8798 139.993 63.6345 140.452C63.3998 140.9 63.2825 141.444 63.2825 142.084V146.5H62.1465V138.1H63.2345V140.404L63.0585 139.972C63.3252 139.364 63.7518 138.889 64.3385 138.548C64.9252 138.196 65.6238 138.02 66.4345 138.02Z" fill="white"/>
</svg>
