<svg width="86" height="150" viewBox="0 0 86 150" fill="none" xmlns="http://www.w3.org/2000/svg">
<path fill-rule="evenodd" clip-rule="evenodd" d="M81.3013 65.7049L74.2114 75.6354L67.1215 65.7049H70.9871C70.6924 58.3264 64.6079 52.4236 57.1713 52.4236C50.8961 52.4236 45.5743 56.6424 43.8929 62.3889C41.8474 61.7292 39.7325 61.3125 37.583 61.1215C37.8257 60.2014 38.1377 59.2812 38.5191 58.3958C39.5418 55.9826 40.998 53.8125 42.8528 51.9549C44.7076 50.0972 46.8744 48.6215 49.284 47.6146C51.7802 46.5382 54.4324 46 57.1713 46C59.9102 46 62.5624 46.5382 65.0586 47.5972C67.4682 48.6215 69.635 50.0799 71.4898 51.9375C73.3447 53.7951 74.8008 55.9653 75.8235 58.3785C76.8116 60.7049 77.349 63.1701 77.401 65.7049H81.3013Z" fill="white"/>
<path fill-rule="evenodd" clip-rule="evenodd" d="M71.3859 121V116.729H46.9438C47.1172 116.642 47.2905 116.573 47.4639 116.486C50.1161 115.219 52.5603 113.569 54.7445 111.555C55.0392 111.278 55.3165 111.017 55.5766 110.757C55.8713 110.462 56.1833 110.149 56.478 109.819C56.8247 109.437 57.1714 109.038 57.4834 108.639H71.3859V104.368L83.0002 112.684L71.3859 121Z" fill="white"/>
<path fill-rule="evenodd" clip-rule="evenodd" d="M62.3716 90.1493C62.3716 93.8473 61.6435 97.441 60.2221 100.826C59.0087 103.708 57.3099 106.347 55.195 108.656C54.9177 108.951 54.6403 109.247 54.3629 109.542C54.1029 109.802 53.8429 110.045 53.5829 110.306C51.5374 112.198 49.2492 113.743 46.753 114.941C46.4063 115.115 46.0422 115.271 45.6782 115.427C45.6609 115.427 45.6609 115.444 45.6435 115.444C43.5634 116.33 41.3272 116.764 39.0563 116.764H3V108.691H36.4735C46.597 108.691 54.9003 100.583 55.039 90.4445C55.039 90.3577 55.039 90.2709 55.039 90.1841C55.039 79.1077 46.0596 70.1146 35 70.1146C23.9404 70.0799 14.961 79.0556 14.961 90.1493H19.6067L11.3034 101.781L3 90.1493H7.64572C7.64572 86.4514 8.37378 82.8577 9.79523 79.4723C11.182 76.2084 13.1408 73.2743 15.6544 70.757C18.1679 68.2396 21.0975 66.2605 24.3564 64.8889C27.7367 63.4653 31.325 62.7361 35.0173 62.7361C35.7627 62.7361 36.4908 62.7709 37.2188 62.823C39.3684 62.9966 41.4659 63.4132 43.5114 64.0903C44.2394 64.3334 44.9502 64.5938 45.6609 64.9063C48.9198 66.2952 51.8494 68.257 54.3629 70.7743C56.8765 73.2917 58.8526 76.2257 60.2221 79.4896C61.6435 82.8577 62.3716 86.4514 62.3716 90.1493Z" fill="white"/>
<path d="M21.412 146.096C20.58 146.096 19.78 145.963 19.012 145.696C18.2547 145.419 17.668 145.067 17.252 144.64L17.716 143.728C18.1107 144.112 18.6387 144.437 19.3 144.704C19.972 144.96 20.676 145.088 21.412 145.088C22.116 145.088 22.6867 145.003 23.124 144.832C23.572 144.651 23.8973 144.411 24.1 144.112C24.3133 143.813 24.42 143.483 24.42 143.12C24.42 142.683 24.292 142.331 24.036 142.064C23.7907 141.797 23.4653 141.589 23.06 141.44C22.6547 141.28 22.2067 141.141 21.716 141.024C21.2253 140.907 20.7347 140.784 20.244 140.656C19.7533 140.517 19.3 140.336 18.884 140.112C18.4787 139.888 18.148 139.595 17.892 139.232C17.6467 138.859 17.524 138.373 17.524 137.776C17.524 137.221 17.668 136.715 17.956 136.256C18.2547 135.787 18.708 135.413 19.316 135.136C19.924 134.848 20.7027 134.704 21.652 134.704C22.2813 134.704 22.9053 134.795 23.524 134.976C24.1427 135.147 24.676 135.387 25.124 135.696L24.724 136.64C24.244 136.32 23.732 136.085 23.188 135.936C22.6547 135.787 22.1373 135.712 21.636 135.712C20.964 135.712 20.4093 135.803 19.972 135.984C19.5347 136.165 19.2093 136.411 18.996 136.72C18.7933 137.019 18.692 137.36 18.692 137.744C18.692 138.181 18.8147 138.533 19.06 138.8C19.316 139.067 19.6467 139.275 20.052 139.424C20.468 139.573 20.9213 139.707 21.412 139.824C21.9027 139.941 22.388 140.069 22.868 140.208C23.3587 140.347 23.8067 140.528 24.212 140.752C24.628 140.965 24.9587 141.253 25.204 141.616C25.46 141.979 25.588 142.453 25.588 143.04C25.588 143.584 25.4387 144.091 25.14 144.56C24.8413 145.019 24.3827 145.392 23.764 145.68C23.156 145.957 22.372 146.096 21.412 146.096ZM31.4158 146.08C30.5838 146.08 29.8371 145.899 29.1758 145.536C28.5251 145.163 28.0131 144.656 27.6398 144.016C27.2664 143.365 27.0798 142.624 27.0798 141.792C27.0798 140.949 27.2664 140.208 27.6398 139.568C28.0131 138.928 28.5251 138.427 29.1758 138.064C29.8371 137.701 30.5838 137.52 31.4158 137.52C32.1304 137.52 32.7758 137.659 33.3518 137.936C33.9278 138.213 34.3811 138.629 34.7118 139.184L33.8638 139.76C33.5758 139.333 33.2184 139.019 32.7918 138.816C32.3651 138.613 31.9011 138.512 31.3998 138.512C30.8024 138.512 30.2638 138.651 29.7838 138.928C29.3038 139.195 28.9251 139.573 28.6478 140.064C28.3704 140.555 28.2318 141.131 28.2318 141.792C28.2318 142.453 28.3704 143.029 28.6478 143.52C28.9251 144.011 29.3038 144.395 29.7838 144.672C30.2638 144.939 30.8024 145.072 31.3998 145.072C31.9011 145.072 32.3651 144.971 32.7918 144.768C33.2184 144.565 33.5758 144.256 33.8638 143.84L34.7118 144.416C34.3811 144.96 33.9278 145.376 33.3518 145.664C32.7758 145.941 32.1304 146.08 31.4158 146.08ZM36.9434 146V137.6H38.0314V139.888L37.9194 139.488C38.154 138.848 38.5487 138.363 39.1034 138.032C39.658 137.691 40.346 137.52 41.1674 137.52V138.624C41.1247 138.624 41.082 138.624 41.0394 138.624C40.9967 138.613 40.954 138.608 40.9114 138.608C40.026 138.608 39.3327 138.88 38.8314 139.424C38.33 139.957 38.0794 140.72 38.0794 141.712V146H36.9434ZM46.8373 146.08C46.1226 146.08 45.4986 145.947 44.9653 145.68C44.4319 145.413 44.0159 145.013 43.7173 144.48C43.4293 143.947 43.2853 143.28 43.2853 142.48V137.6H44.4213V142.352C44.4213 143.248 44.6399 143.925 45.0773 144.384C45.5253 144.832 46.1493 145.056 46.9493 145.056C47.5359 145.056 48.0426 144.939 48.4693 144.704C48.9066 144.459 49.2373 144.107 49.4613 143.648C49.6959 143.189 49.8133 142.64 49.8133 142V137.6H50.9493V146H49.8612V143.696L50.0373 144.112C49.7706 144.731 49.3546 145.216 48.7893 145.568C48.2346 145.909 47.5839 146.08 46.8373 146.08ZM64.6113 137.52C65.2939 137.52 65.8859 137.653 66.3873 137.92C66.8993 138.176 67.2939 138.571 67.5713 139.104C67.8593 139.637 68.0033 140.309 68.0033 141.12V146H66.8673V141.232C66.8673 140.347 66.6539 139.68 66.2273 139.232C65.8113 138.773 65.2193 138.544 64.4513 138.544C63.8753 138.544 63.3739 138.667 62.9473 138.912C62.5313 139.147 62.2059 139.493 61.9713 139.952C61.7473 140.4 61.6353 140.944 61.6353 141.584V146H60.4993V141.232C60.4993 140.347 60.2859 139.68 59.8593 139.232C59.4326 138.773 58.8353 138.544 58.0673 138.544C57.5019 138.544 57.0059 138.667 56.5793 138.912C56.1526 139.147 55.8219 139.493 55.5873 139.952C55.3633 140.4 55.2513 140.944 55.2513 141.584V146H54.1153V137.6H55.2033V139.872L55.0273 139.472C55.2833 138.864 55.6939 138.389 56.2593 138.048C56.8353 137.696 57.5126 137.52 58.2913 137.52C59.1126 137.52 59.8113 137.728 60.3873 138.144C60.9633 138.549 61.3366 139.163 61.5073 139.984L61.0593 139.808C61.3046 139.125 61.7366 138.576 62.3553 138.16C62.9846 137.733 63.7366 137.52 64.6113 137.52Z" fill="white"/>
</svg>
