<svg width="86" height="150" viewBox="0 0 86 150" fill="none" xmlns="http://www.w3.org/2000/svg">
<path d="M77.9363 51.9686C77.4265 49.1037 75.3555 46.7844 72.711 46.1705C72.5835 46.1364 72.4561 46.1364 72.2968 46.1023C72.2649 46.1023 72.233 46.0341 72.2012 46H13.767C13.7351 46.0341 13.7032 46.1023 13.6395 46.1023C10.995 46.5798 8.76468 48.8308 8.15931 51.6958C8.12745 51.7981 8.06372 51.9345 8 52.0709V114.793C8.03186 114.861 8.09558 114.895 8.09558 114.963C8.73282 118.101 10.5171 120.045 13.4165 120.829C13.5121 120.864 13.5758 120.932 13.6395 121H72.2968C72.3605 120.966 72.3924 120.898 72.4561 120.864C75.3555 120.147 77.1397 118.271 77.8726 115.168C77.9044 115.065 77.8726 114.929 77.9044 114.827C77.9044 114.793 77.9681 114.759 78 114.724V52.1733C78 52.105 77.9363 52.0709 77.9363 51.9686ZM48.6236 87.5757H48.2731C45.6286 87.5757 42.9522 87.5757 40.3077 87.5757C40.1802 87.5757 40.0528 87.5757 39.9254 87.5757C39.9254 87.6098 39.8935 87.6098 39.8935 87.6439C39.8935 87.7804 39.8935 87.9168 39.8935 88.0532V114.349H32.9158V87.6098H24.1538V81.6412H48.5917V87.5757H48.6236ZM72.1375 105.413C72.0737 106.573 71.9144 107.699 71.4684 108.79C71.3409 109.131 71.2453 109.438 71.086 109.779C70.5125 111.075 69.5567 111.996 68.4415 112.746C67.167 113.599 65.7651 114.076 64.2995 114.383C62.6746 114.724 61.0496 114.827 59.3928 114.759C58.5963 114.724 57.7997 114.724 57.0032 114.622C55.1234 114.383 53.2754 113.94 51.5548 113.053C51.4593 113.019 51.3318 112.849 51.3318 112.746C51.3318 110.529 51.3318 108.312 51.3318 106.095C51.3318 106.061 51.3318 106.027 51.3318 105.959C51.8416 106.334 52.3514 106.709 52.8612 107.016C54.1038 107.801 55.4738 108.347 56.8757 108.688C58.0865 108.995 59.2972 109.029 60.508 108.96C61.432 108.926 62.3559 108.688 63.1843 108.244C63.9172 107.835 64.5225 107.289 64.6818 106.368C64.8411 105.55 64.7774 104.731 64.3314 104.015C63.6941 102.992 62.802 102.344 61.8143 101.798C60.6991 101.218 59.584 100.707 58.437 100.161C56.7483 99.3424 55.0915 98.4557 53.7214 97.0914C52.6063 95.9659 51.7779 94.6357 51.3955 93.0327C51.1725 92.0778 51.1088 91.1228 51.1406 90.1678C51.1725 87.8145 51.969 85.8022 53.5303 84.131C54.8047 82.7667 56.366 81.9482 58.0865 81.4707C59.2654 81.1637 60.4442 80.925 61.655 80.8909C62.5152 80.8909 63.3755 80.7885 64.2039 80.8226C65.5102 80.8568 66.7847 80.925 68.0592 81.266C68.8876 81.5048 69.7478 81.7435 70.5762 81.9482C70.7355 81.9823 70.7993 82.0846 70.7993 82.2892C70.7993 84.4038 70.7993 86.5525 70.7993 88.6671C70.7993 88.7353 70.7993 88.8035 70.7674 88.9059C70.5125 88.7353 70.2895 88.5989 70.0665 88.4625C69.0469 87.8486 67.9636 87.4393 66.8484 87.1323C65.6058 86.8254 64.3632 86.6207 63.0888 86.6548C62.2285 86.6889 61.3364 86.8254 60.5398 87.1323C59.5521 87.5075 58.7556 88.1214 58.4051 89.2469C58.1183 90.1337 58.3414 90.884 58.8512 91.6003C59.4884 92.487 60.3487 93.101 61.2726 93.5784C62.5152 94.2265 63.7897 94.7722 65.0005 95.3861C66.4024 96.1023 67.8043 96.8186 68.9832 97.8759C70.0027 98.7967 70.9267 99.8199 71.4365 101.184C71.7233 102.003 71.9782 102.855 71.9782 103.776C72.1056 104.322 72.1693 104.868 72.1375 105.413Z" fill="white"/>
<path d="M4.5 146V135.824H0.564V134.8H9.62V135.824H5.684V146H4.5ZM10.7886 149.184C10.394 149.184 10.0153 149.12 9.65263 148.992C9.30063 148.864 8.99662 148.672 8.74062 148.416L9.26863 147.568C9.48196 147.771 9.71129 147.925 9.95663 148.032C10.2126 148.149 10.4953 148.208 10.8046 148.208C11.178 148.208 11.498 148.101 11.7646 147.888C12.042 147.685 12.3033 147.323 12.5486 146.8L13.0926 145.568L13.2206 145.392L16.6766 137.6H17.7966L13.5886 147.008C13.354 147.552 13.0926 147.984 12.8046 148.304C12.5273 148.624 12.2233 148.848 11.8926 148.976C11.562 149.115 11.194 149.184 10.7886 149.184ZM13.0286 146.24L9.15663 137.6H10.3406L13.7646 145.312L13.0286 146.24ZM23.7325 146.08C23.0072 146.08 22.3512 145.915 21.7645 145.584C21.1778 145.243 20.7085 144.757 20.3565 144.128C20.0152 143.488 19.8445 142.709 19.8445 141.792C19.8445 140.875 20.0152 140.101 20.3565 139.472C20.6978 138.832 21.1618 138.347 21.7485 138.016C22.3352 137.685 22.9965 137.52 23.7325 137.52C24.5325 137.52 25.2472 137.701 25.8765 138.064C26.5165 138.416 27.0178 138.917 27.3805 139.568C27.7432 140.208 27.9245 140.949 27.9245 141.792C27.9245 142.645 27.7432 143.392 27.3805 144.032C27.0178 144.672 26.5165 145.173 25.8765 145.536C25.2472 145.899 24.5325 146.08 23.7325 146.08ZM19.3965 149.104V137.6H20.4845V140.128L20.3725 141.808L20.5325 143.504V149.104H19.3965ZM23.6525 145.072C24.2498 145.072 24.7832 144.939 25.2525 144.672C25.7218 144.395 26.0952 144.011 26.3725 143.52C26.6498 143.019 26.7885 142.443 26.7885 141.792C26.7885 141.141 26.6498 140.571 26.3725 140.08C26.0952 139.589 25.7218 139.205 25.2525 138.928C24.7832 138.651 24.2498 138.512 23.6525 138.512C23.0552 138.512 22.5165 138.651 22.0365 138.928C21.5672 139.205 21.1938 139.589 20.9165 140.08C20.6498 140.571 20.5165 141.141 20.5165 141.792C20.5165 142.443 20.6498 143.019 20.9165 143.52C21.1938 144.011 21.5672 144.395 22.0365 144.672C22.5165 144.939 23.0552 145.072 23.6525 145.072ZM33.8083 146.08C32.9336 146.08 32.1656 145.899 31.5043 145.536C30.8429 145.163 30.3256 144.656 29.9523 144.016C29.5789 143.365 29.3923 142.624 29.3923 141.792C29.3923 140.96 29.5683 140.224 29.9203 139.584C30.2829 138.944 30.7736 138.443 31.3923 138.08C32.0216 137.707 32.7256 137.52 33.5043 137.52C34.2936 137.52 34.9923 137.701 35.6003 138.064C36.2189 138.416 36.7043 138.917 37.0563 139.568C37.4083 140.208 37.5843 140.949 37.5843 141.792C37.5843 141.845 37.5789 141.904 37.5683 141.968C37.5683 142.021 37.5683 142.08 37.5683 142.144H30.2563V141.296H36.9603L36.5123 141.632C36.5123 141.024 36.3789 140.485 36.1123 140.016C35.8563 139.536 35.5043 139.163 35.0563 138.896C34.6083 138.629 34.0909 138.496 33.5043 138.496C32.9283 138.496 32.4109 138.629 31.9523 138.896C31.4936 139.163 31.1363 139.536 30.8803 140.016C30.6243 140.496 30.4963 141.045 30.4963 141.664V141.84C30.4963 142.48 30.6349 143.045 30.9123 143.536C31.2003 144.016 31.5949 144.395 32.0963 144.672C32.6083 144.939 33.1896 145.072 33.8403 145.072C34.3523 145.072 34.8269 144.981 35.2643 144.8C35.7123 144.619 36.0963 144.341 36.4163 143.968L37.0563 144.704C36.6829 145.152 36.2136 145.493 35.6483 145.728C35.0936 145.963 34.4803 146.08 33.8083 146.08ZM43.2245 146.096C42.3925 146.096 41.5925 145.963 40.8245 145.696C40.0672 145.419 39.4805 145.067 39.0645 144.64L39.5285 143.728C39.9232 144.112 40.4512 144.437 41.1125 144.704C41.7845 144.96 42.4885 145.088 43.2245 145.088C43.9285 145.088 44.4992 145.003 44.9365 144.832C45.3845 144.651 45.7098 144.411 45.9125 144.112C46.1258 143.813 46.2325 143.483 46.2325 143.12C46.2325 142.683 46.1045 142.331 45.8485 142.064C45.6032 141.797 45.2778 141.589 44.8725 141.44C44.4672 141.28 44.0192 141.141 43.5285 141.024C43.0378 140.907 42.5472 140.784 42.0565 140.656C41.5658 140.517 41.1125 140.336 40.6965 140.112C40.2912 139.888 39.9605 139.595 39.7045 139.232C39.4592 138.859 39.3365 138.373 39.3365 137.776C39.3365 137.221 39.4805 136.715 39.7685 136.256C40.0672 135.787 40.5205 135.413 41.1285 135.136C41.7365 134.848 42.5152 134.704 43.4645 134.704C44.0938 134.704 44.7178 134.795 45.3365 134.976C45.9552 135.147 46.4885 135.387 46.9365 135.696L46.5365 136.64C46.0565 136.32 45.5445 136.085 45.0005 135.936C44.4672 135.787 43.9498 135.712 43.4485 135.712C42.7765 135.712 42.2218 135.803 41.7845 135.984C41.3472 136.165 41.0218 136.411 40.8085 136.72C40.6058 137.019 40.5045 137.36 40.5045 137.744C40.5045 138.181 40.6272 138.533 40.8725 138.8C41.1285 139.067 41.4592 139.275 41.8645 139.424C42.2805 139.573 42.7338 139.707 43.2245 139.824C43.7152 139.941 44.2005 140.069 44.6805 140.208C45.1712 140.347 45.6192 140.528 46.0245 140.752C46.4405 140.965 46.7712 141.253 47.0165 141.616C47.2725 141.979 47.4005 142.453 47.4005 143.04C47.4005 143.584 47.2512 144.091 46.9525 144.56C46.6538 145.019 46.1952 145.392 45.5765 145.68C44.9685 145.957 44.1845 146.096 43.2245 146.096ZM53.2283 146.08C52.3963 146.08 51.6496 145.899 50.9883 145.536C50.3376 145.163 49.8256 144.656 49.4523 144.016C49.0789 143.365 48.8923 142.624 48.8923 141.792C48.8923 140.949 49.0789 140.208 49.4523 139.568C49.8256 138.928 50.3376 138.427 50.9883 138.064C51.6496 137.701 52.3963 137.52 53.2283 137.52C53.9429 137.52 54.5883 137.659 55.1643 137.936C55.7403 138.213 56.1936 138.629 56.5243 139.184L55.6763 139.76C55.3883 139.333 55.0309 139.019 54.6043 138.816C54.1776 138.613 53.7136 138.512 53.2123 138.512C52.6149 138.512 52.0763 138.651 51.5963 138.928C51.1163 139.195 50.7376 139.573 50.4603 140.064C50.1829 140.555 50.0443 141.131 50.0443 141.792C50.0443 142.453 50.1829 143.029 50.4603 143.52C50.7376 144.011 51.1163 144.395 51.5963 144.672C52.0763 144.939 52.6149 145.072 53.2123 145.072C53.7136 145.072 54.1776 144.971 54.6043 144.768C55.0309 144.565 55.3883 144.256 55.6763 143.84L56.5243 144.416C56.1936 144.96 55.7403 145.376 55.1643 145.664C54.5883 145.941 53.9429 146.08 53.2283 146.08ZM58.7559 146V137.6H59.8439V139.888L59.7319 139.488C59.9665 138.848 60.3612 138.363 60.9159 138.032C61.4705 137.691 62.1585 137.52 62.9799 137.52V138.624C62.9372 138.624 62.8945 138.624 62.8519 138.624C62.8092 138.613 62.7665 138.608 62.7239 138.608C61.8385 138.608 61.1452 138.88 60.6439 139.424C60.1425 139.957 59.8919 140.72 59.8919 141.712V146H58.7559ZM65.0528 146V137.6H66.1888V146H65.0528ZM65.6288 135.744C65.3941 135.744 65.1968 135.664 65.0368 135.504C64.8768 135.344 64.7968 135.152 64.7968 134.928C64.7968 134.704 64.8768 134.517 65.0368 134.368C65.1968 134.208 65.3941 134.128 65.6288 134.128C65.8634 134.128 66.0608 134.203 66.2208 134.352C66.3808 134.501 66.4608 134.688 66.4608 134.912C66.4608 135.147 66.3808 135.344 66.2208 135.504C66.0714 135.664 65.8741 135.744 65.6288 135.744ZM73.6856 146.08C72.9603 146.08 72.3043 145.915 71.7176 145.584C71.131 145.243 70.6616 144.757 70.3096 144.128C69.9683 143.488 69.7976 142.709 69.7976 141.792C69.7976 140.875 69.9683 140.101 70.3096 139.472C70.651 138.832 71.115 138.347 71.7016 138.016C72.2883 137.685 72.9496 137.52 73.6856 137.52C74.4856 137.52 75.2003 137.701 75.8296 138.064C76.4696 138.416 76.971 138.917 77.3336 139.568C77.6963 140.208 77.8776 140.949 77.8776 141.792C77.8776 142.645 77.6963 143.392 77.3336 144.032C76.971 144.672 76.4696 145.173 75.8296 145.536C75.2003 145.899 74.4856 146.08 73.6856 146.08ZM69.3496 149.104V137.6H70.4376V140.128L70.3256 141.808L70.4856 143.504V149.104H69.3496ZM73.6056 145.072C74.203 145.072 74.7363 144.939 75.2056 144.672C75.675 144.395 76.0483 144.011 76.3256 143.52C76.603 143.019 76.7416 142.443 76.7416 141.792C76.7416 141.141 76.603 140.571 76.3256 140.08C76.0483 139.589 75.675 139.205 75.2056 138.928C74.7363 138.651 74.203 138.512 73.6056 138.512C73.0083 138.512 72.4696 138.651 71.9896 138.928C71.5203 139.205 71.147 139.589 70.8696 140.08C70.603 140.571 70.4696 141.141 70.4696 141.792C70.4696 142.443 70.603 143.019 70.8696 143.52C71.147 144.011 71.5203 144.395 71.9896 144.672C72.4696 144.939 73.0083 145.072 73.6056 145.072ZM82.8494 146.08C82.06 146.08 81.452 145.867 81.0254 145.44C80.5987 145.013 80.3854 144.411 80.3854 143.632V135.744H81.5214V143.568C81.5214 144.059 81.644 144.437 81.8894 144.704C82.1454 144.971 82.508 145.104 82.9774 145.104C83.4787 145.104 83.8947 144.96 84.2254 144.672L84.6254 145.488C84.4014 145.691 84.1294 145.84 83.8094 145.936C83.5 146.032 83.18 146.08 82.8494 146.08ZM78.8814 138.544V137.6H84.0814V138.544H78.8814Z" fill="white"/>
</svg>
